<svg height="450" width="800" viewBox="0 0 800 450" id="view_donut3dview" version="1.1" xmlns:xlink="http://www.w3.org/1999/xlink" xmlns="http://www.w3.org/2000/svg"><g id="view_donut3dview_global_definitions"><pattern id="texture_carbon1" height="10" width="10" patternUnits="userSpaceOnUse"><rect fill="darkgray" stroke="none" height="10" width="10" y="0" x="0"></rect><polygon fill="black" stroke="none" points="5,0 5,10 0,5 "></polygon><polygon fill="black" stroke="none" points="5,0 10,0 10,5 "></polygon><polygon fill="black" stroke="none" points="10,5 10,10 5,10 "></polygon></pattern><linearGradient y2="0" x2="0" y1="-10" x1="0" id="texture_gradient8" gradientUnits="userSpaceOnUse"><stop stop-opacity="1" stop-color="black" offset="0%"></stop><stop stop-opacity="1" stop-color="darkgray" offset="100%"></stop></linearGradient><linearGradient y2="-2.5" x2="5" y1="-2.5" x1="-5" id="texture_gradient9" gradientUnits="userSpaceOnUse"><stop stop-opacity="1" stop-color="black" offset="0%"></stop><stop stop-opacity="1" stop-color="darkgray" offset="100%"></stop></linearGradient><linearGradient y2="5" x2="5" y1="-5" x1="5" id="texture_gradient10" gradientUnits="userSpaceOnUse"><stop stop-opacity="1" stop-color="black" offset="0%"></stop><stop stop-opacity="1" stop-color="darkgray" offset="100%"></stop></linearGradient><linearGradient y2="-1.25" x2="10" y1="-1.25" x1="0" id="texture_gradient11" gradientUnits="userSpaceOnUse"><stop stop-opacity="1" stop-color="black" offset="0%"></stop><stop stop-opacity="1" stop-color="darkgray" offset="100%"></stop></linearGradient><linearGradient y2="10" x2="10" y1="0" x1="10" id="texture_gradient12" gradientUnits="userSpaceOnUse"><stop stop-opacity="1" stop-color="black" offset="0%"></stop><stop stop-opacity="1" stop-color="darkgray" offset="100%"></stop></linearGradient><linearGradient y2="0" x2="15" y1="0" x1="5" id="texture_gradient13" gradientUnits="userSpaceOnUse"><stop stop-opacity="1" stop-color="black" offset="0%"></stop><stop stop-opacity="1" stop-color="darkgray" offset="100%"></stop></linearGradient><linearGradient y2="15" x2="15" y1="5" x1="15" id="texture_gradient14" gradientUnits="userSpaceOnUse"><stop stop-opacity="1" stop-color="black" offset="0%"></stop><stop stop-opacity="1" stop-color="darkgray" offset="100%"></stop></linearGradient><linearGradient y2="1.25" x2="20" y1="1.25" x1="10" id="texture_gradient15" gradientUnits="userSpaceOnUse"><stop stop-opacity="1" stop-color="black" offset="0%"></stop><stop stop-opacity="1" stop-color="darkgray" offset="100%"></stop></linearGradient><linearGradient y2="20" x2="20" y1="10" x1="20" id="texture_gradient16" gradientUnits="userSpaceOnUse"><stop stop-opacity="1" stop-color="black" offset="0%"></stop><stop stop-opacity="1" stop-color="darkgray" offset="100%"></stop></linearGradient><linearGradient y2="2.5" x2="25" y1="2.5" x1="15" id="texture_gradient17" gradientUnits="userSpaceOnUse"><stop stop-opacity="1" stop-color="black" offset="0%"></stop><stop stop-opacity="1" stop-color="darkgray" offset="100%"></stop></linearGradient><linearGradient y2="20" x2="0" y1="10" x1="0" id="texture_gradient18" gradientUnits="userSpaceOnUse"><stop stop-opacity="1" stop-color="black" offset="0%"></stop><stop stop-opacity="1" stop-color="darkgray" offset="100%"></stop></linearGradient><linearGradient y2="2.5" x2="5" y1="2.5" x1="-5" id="texture_gradient19" gradientUnits="userSpaceOnUse"><stop stop-opacity="1" stop-color="black" offset="0%"></stop><stop stop-opacity="1" stop-color="darkgray" offset="100%"></stop></linearGradient><linearGradient y2="25" x2="5" y1="15" x1="5" id="texture_gradient20" gradientUnits="userSpaceOnUse"><stop stop-opacity="1" stop-color="black" offset="0%"></stop><stop stop-opacity="1" stop-color="darkgray" offset="100%"></stop></linearGradient><linearGradient y2="3.75" x2="10" y1="3.75" x1="0" id="texture_gradient21" gradientUnits="userSpaceOnUse"><stop stop-opacity="1" stop-color="black" offset="0%"></stop><stop stop-opacity="1" stop-color="darkgray" offset="100%"></stop></linearGradient><linearGradient y2="30" x2="10" y1="20" x1="10" id="texture_gradient22" gradientUnits="userSpaceOnUse"><stop stop-opacity="1" stop-color="black" offset="0%"></stop><stop stop-opacity="1" stop-color="darkgray" offset="100%"></stop></linearGradient><linearGradient y2="5" x2="15" y1="5" x1="5" id="texture_gradient23" gradientUnits="userSpaceOnUse"><stop stop-opacity="1" stop-color="black" offset="0%"></stop><stop stop-opacity="1" stop-color="darkgray" offset="100%"></stop></linearGradient><linearGradient y2="35" x2="15" y1="25" x1="15" id="texture_gradient24" gradientUnits="userSpaceOnUse"><stop stop-opacity="1" stop-color="black" offset="0%"></stop><stop stop-opacity="1" stop-color="darkgray" offset="100%"></stop></linearGradient><linearGradient y2="6.25" x2="20" y1="6.25" x1="10" id="texture_gradient25" gradientUnits="userSpaceOnUse"><stop stop-opacity="1" stop-color="black" offset="0%"></stop><stop stop-opacity="1" stop-color="darkgray" offset="100%"></stop></linearGradient><linearGradient y2="40" x2="20" y1="30" x1="20" id="texture_gradient26" gradientUnits="userSpaceOnUse"><stop stop-opacity="1" stop-color="black" offset="0%"></stop><stop stop-opacity="1" stop-color="darkgray" offset="100%"></stop></linearGradient><linearGradient y2="7.5" x2="25" y1="7.5" x1="15" id="texture_gradient27" gradientUnits="userSpaceOnUse"><stop stop-opacity="1" stop-color="black" offset="0%"></stop><stop stop-opacity="1" stop-color="darkgray" offset="100%"></stop></linearGradient><pattern id="texture_carbon2" height="20" width="20" patternUnits="userSpaceOnUse"><rect fill="rgb(60,60,60)" stroke="none" height="20" width="20" y="0" x="0"></rect><rect fill="url(#texture_gradient8)" stroke="none" height="10" width="10" y="-10" x="-5"></rect><rect fill="url(#texture_gradient8)" stroke="none" height="5" width="10" y="-10" x="-5"></rect><rect fill="url(#texture_gradient10)" stroke="none" height="10" width="10" y="-5" x="0"></rect><rect fill="url(#texture_gradient10)" stroke="none" height="5" width="10" y="-5" x="0"></rect><rect fill="url(#texture_gradient12)" stroke="none" height="10" width="10" y="0" x="5"></rect><rect fill="url(#texture_gradient12)" stroke="none" height="5" width="10" y="0" x="5"></rect><rect fill="url(#texture_gradient14)" stroke="none" height="10" width="10" y="5" x="10"></rect><rect fill="url(#texture_gradient14)" stroke="none" height="5" width="10" y="5" x="10"></rect><rect fill="url(#texture_gradient16)" stroke="none" height="10" width="10" y="10" x="15"></rect><rect fill="url(#texture_gradient16)" stroke="none" height="5" width="10" y="10" x="15"></rect><rect fill="url(#texture_gradient18)" stroke="none" height="10" width="10" y="10" x="-5"></rect><rect fill="url(#texture_gradient18)" stroke="none" height="5" width="10" y="10" x="-5"></rect><rect fill="url(#texture_gradient20)" stroke="none" height="10" width="10" y="15" x="0"></rect><rect fill="url(#texture_gradient20)" stroke="none" height="5" width="10" y="15" x="0"></rect><rect fill="url(#texture_gradient22)" stroke="none" height="10" width="10" y="20" x="5"></rect><rect fill="url(#texture_gradient22)" stroke="none" height="5" width="10" y="20" x="5"></rect><rect fill="url(#texture_gradient24)" stroke="none" height="10" width="10" y="25" x="10"></rect><rect fill="url(#texture_gradient24)" stroke="none" height="5" width="10" y="25" x="10"></rect><rect fill="url(#texture_gradient26)" stroke="none" height="10" width="10" y="30" x="15"></rect><rect fill="url(#texture_gradient26)" stroke="none" height="5" width="10" y="30" x="15"></rect></pattern></g><g id="view_donut3dview_background"></g><g id="view_donut3dview_projections"><svg viewBox="0 0 1140 450" version="1.1" xmlns:xlink="http://www.w3.org/1999/xlink" xmlns="http://www.w3.org/2000/svg" id="proj_32"><defs id="proj_32_definitions"></defs><g id="proj_32_parts" xmlns="http://www.w3.org/2000/svg"><svg height="20" width="1140" y="430" x="0" id="proj_32_South"><g id="proj_32_South_plugins"><g transform="translate(0,0) scale(1,1)" id="proj_32_South_plugin_Donut3DPlugin_34"><defs id="proj_32_South_plugin_Donut3DPlugin_34_definition"></defs><g id="proj_32_South_plugin_Donut3DPlugin_34_graphics"></g></g><g transform="translate(0,0) scale(1,1)" id="proj_32_South_plugin_TranslatePlugin_301"><defs id="proj_32_South_plugin_TranslatePlugin_301_definition"></defs><g id="proj_32_South_plugin_TranslatePlugin_301_graphics"></g></g></g></svg><svg height="20" width="1140" y="0" x="0" id="proj_32_North"><g id="proj_32_North_plugins"><g transform="translate(0,0) scale(1,1)" id="proj_32_North_plugin_Donut3DPlugin_34"><defs id="proj_32_North_plugin_Donut3DPlugin_34_definition"></defs><g id="proj_32_North_plugin_Donut3DPlugin_34_graphics"></g></g><g transform="translate(0,0) scale(1,1)" id="proj_32_North_plugin_TranslatePlugin_301"><defs id="proj_32_North_plugin_TranslatePlugin_301_definition"></defs><g id="proj_32_North_plugin_TranslatePlugin_301_graphics"></g></g></g></svg><svg height="410" width="0" y="20" x="1140" id="proj_32_East"><g id="proj_32_East_plugins"><g transform="translate(0,0) scale(1,1)" id="proj_32_East_plugin_Donut3DPlugin_34"><defs id="proj_32_East_plugin_Donut3DPlugin_34_definition"></defs><g id="proj_32_East_plugin_Donut3DPlugin_34_graphics"></g></g><g transform="translate(0,0) scale(1,1)" id="proj_32_East_plugin_TranslatePlugin_301"><defs id="proj_32_East_plugin_TranslatePlugin_301_definition"></defs><g id="proj_32_East_plugin_TranslatePlugin_301_graphics"></g></g></g></svg><svg height="410" width="0" y="20" x="0" id="proj_32_West"><g id="proj_32_West_plugins"><g transform="translate(0,0) scale(1,1)" id="proj_32_West_plugin_Donut3DPlugin_34"><defs id="proj_32_West_plugin_Donut3DPlugin_34_definition"></defs><g id="proj_32_West_plugin_Donut3DPlugin_34_graphics"></g></g><g transform="translate(0,0) scale(1,1)" id="proj_32_West_plugin_TranslatePlugin_301"><defs id="proj_32_West_plugin_TranslatePlugin_301_definition"></defs><g id="proj_32_West_plugin_TranslatePlugin_301_graphics"></g></g></g></svg><svg height="410" width="1140" y="20" x="0" id="proj_32_Device"><g id="proj_32_Device_plugins"><g transform="translate(0,0) scale(1,1)" id="proj_32_Device_plugin_Donut3DPlugin_34"><defs id="proj_32_Device_plugin_Donut3DPlugin_34_definition"><clipPath id="clip271"><path d="M684.9066664678467,140.72123903134607 A150,100 0 0,0 420,205 L 470,205 A100,66.66666666666667 0 0,1 646.6044443118979,162.14749268756404 ZM420,205 A150,100 0 0,0 474.7666248885115,282.2603226181159 L 506.51108325900765,256.50688174541057 A100,66.66666666666667 0 0,1 470,205 ZM474.7666248885115,282.2603226181159 A150,100 0 0,0 523.0619939051769,299.97794734414776 L 538.7079959367845,268.3186315627652 A100,66.66666666666667 0 0,1 506.51108325900765,256.50688174541057 ZM523.0619939051769,299.97794734414776 A150,100 0 0,0 720,205.00000000000003 L 670,205.00000000000003 A100,66.66666666666667 0 0,1 538.7079959367845,268.3186315627652 ZM720,205 A150,100 0 0,0 711.9775255238392,172.7345575567805 L 664.6516836825595,183.48970503785364 A100,66.66666666666667 0 0,1 670,205 ZM711.9775255238392,172.73455755678043 A150,100 0 0,0 684.9066664678467,140.721239031346 L 646.6044443118977,162.147492687564 A100,66.66666666666667 0 0,1 664.6516836825595,183.48970503785364 Z"></path></clipPath><linearGradient y2="305" x2="570" y1="105" x1="570" id="gradient272" gradientUnits="userSpaceOnUse"><stop stop-opacity="0.5" stop-color="rgb(40, 40, 40)" offset="0%"></stop><stop stop-opacity="0" stop-color="rgb(40, 40, 40)" offset="45%"></stop><stop stop-opacity="0" stop-color="rgb(255, 255, 255)" offset="55%"></stop><stop stop-opacity="0.8" stop-color="rgb(255, 255, 255)" offset="100%"></stop></linearGradient><linearGradient y2="205" x2="720" y1="205" x1="420" id="gradient273" gradientUnits="userSpaceOnUse"><stop stop-opacity="0.3" stop-color="rgb(40, 40, 40)" offset="0%"></stop><stop stop-opacity="0.05" stop-color="rgb(40, 40, 40)" offset="40%"></stop><stop stop-opacity="0.05" stop-color="rgb(255, 255, 255)" offset="80%"></stop><stop stop-opacity="0.5" stop-color="rgb(255, 255, 255)" offset="100%"></stop></linearGradient><clipPath id="clip274"><ellipse ry="66.66666666666667" rx="100" cy="205" cx="570"></ellipse></clipPath><linearGradient y2="205" x2="470" y1="205" x1="670" id="gradient275" gradientUnits="userSpaceOnUse"><stop stop-opacity="0.2" stop-color="rgb(40, 40, 40)" offset="0%"></stop><stop stop-opacity="0.3" stop-color="rgb(40, 40, 40)" offset="40%"></stop><stop stop-opacity="0" stop-color="rgb(240, 240, 240)" offset="80%"></stop><stop stop-opacity="0.6" stop-color="rgb(240, 240, 240)" offset="100%"></stop></linearGradient><linearGradient y2="305" x2="570" y1="105" x1="570" id="gradient276" gradientUnits="userSpaceOnUse"><stop stop-opacity="0.5" stop-color="rgb(40, 40, 40)" offset="0%"></stop><stop stop-opacity="0" stop-color="rgb(40, 40, 40)" offset="45%"></stop><stop stop-opacity="0" stop-color="rgb(255, 255, 255)" offset="55%"></stop><stop stop-opacity="0.8" stop-color="rgb(255, 255, 255)" offset="100%"></stop></linearGradient><linearGradient y2="205" x2="720" y1="205" x1="420" id="gradient277" gradientUnits="userSpaceOnUse"><stop stop-opacity="0.3" stop-color="rgb(40, 40, 40)" offset="0%"></stop><stop stop-opacity="0.05" stop-color="rgb(40, 40, 40)" offset="40%"></stop><stop stop-opacity="0.05" stop-color="rgb(255, 255, 255)" offset="80%"></stop><stop stop-opacity="0.5" stop-color="rgb(255, 255, 255)" offset="100%"></stop></linearGradient><clipPath id="clip278"><ellipse ry="66.66666666666667" rx="100" cy="205" cx="570"></ellipse></clipPath><linearGradient y2="205" x2="470" y1="205" x1="670" id="gradient279" gradientUnits="userSpaceOnUse"><stop stop-opacity="0.2" stop-color="rgb(40, 40, 40)" offset="0%"></stop><stop stop-opacity="0.3" stop-color="rgb(40, 40, 40)" offset="40%"></stop><stop stop-opacity="0" stop-color="rgb(240, 240, 240)" offset="80%"></stop><stop stop-opacity="0.6" stop-color="rgb(240, 240, 240)" offset="100%"></stop></linearGradient><linearGradient y2="305" x2="570" y1="105" x1="570" id="gradient280" gradientUnits="userSpaceOnUse"><stop stop-opacity="0.5" stop-color="rgb(40, 40, 40)" offset="0%"></stop><stop stop-opacity="0" stop-color="rgb(40, 40, 40)" offset="45%"></stop><stop stop-opacity="0" stop-color="rgb(255, 255, 255)" offset="55%"></stop><stop stop-opacity="0.8" stop-color="rgb(255, 255, 255)" offset="100%"></stop></linearGradient><linearGradient y2="205" x2="720" y1="205" x1="420" id="gradient281" gradientUnits="userSpaceOnUse"><stop stop-opacity="0.3" stop-color="rgb(40, 40, 40)" offset="0%"></stop><stop stop-opacity="0.05" stop-color="rgb(40, 40, 40)" offset="40%"></stop><stop stop-opacity="0.05" stop-color="rgb(255, 255, 255)" offset="80%"></stop><stop stop-opacity="0.5" stop-color="rgb(255, 255, 255)" offset="100%"></stop></linearGradient><clipPath id="clip282"><ellipse ry="66.66666666666667" rx="100" cy="205" cx="570"></ellipse></clipPath><linearGradient y2="205" x2="470" y1="205" x1="670" id="gradient283" gradientUnits="userSpaceOnUse"><stop stop-opacity="0.2" stop-color="rgb(40, 40, 40)" offset="0%"></stop><stop stop-opacity="0.3" stop-color="rgb(40, 40, 40)" offset="40%"></stop><stop stop-opacity="0" stop-color="rgb(240, 240, 240)" offset="80%"></stop><stop stop-opacity="0.6" stop-color="rgb(240, 240, 240)" offset="100%"></stop></linearGradient><clipPath id="clip284"><path d="M684.9066664678467,140.72123903134607 A150,100 0 0,0 420,205 L 470,205 A100,66.66666666666667 0 0,1 646.6044443118979,162.14749268756404 ZM420,205 A150,100 0 0,0 474.7666248885115,282.2603226181159 L 506.51108325900765,256.50688174541057 A100,66.66666666666667 0 0,1 470,205 ZM474.7666248885115,282.2603226181159 A150,100 0 0,0 523.0619939051769,299.97794734414776 L 538.7079959367845,268.3186315627652 A100,66.66666666666667 0 0,1 506.51108325900765,256.50688174541057 ZM523.0619939051769,299.97794734414776 A150,100 0 0,0 720,205.00000000000003 L 670,205.00000000000003 A100,66.66666666666667 0 0,1 538.7079959367845,268.3186315627652 ZM720,205 A150,100 0 0,0 711.9775255238392,172.7345575567805 L 664.6516836825595,183.48970503785364 A100,66.66666666666667 0 0,1 670,205 ZM711.9775255238392,172.73455755678043 A150,100 0 0,0 684.9066664678467,140.721239031346 L 646.6044443118977,162.147492687564 A100,66.66666666666667 0 0,1 664.6516836825595,183.48970503785364 Z"></path></clipPath><linearGradient y2="305" x2="570" y1="105" x1="570" id="gradient285" gradientUnits="userSpaceOnUse"><stop stop-opacity="0.5" stop-color="rgb(40, 40, 40)" offset="0%"></stop><stop stop-opacity="0" stop-color="rgb(40, 40, 40)" offset="45%"></stop><stop stop-opacity="0" stop-color="rgb(255, 255, 255)" offset="55%"></stop><stop stop-opacity="0.8" stop-color="rgb(255, 255, 255)" offset="100%"></stop></linearGradient><linearGradient y2="205" x2="720" y1="205" x1="420" id="gradient286" gradientUnits="userSpaceOnUse"><stop stop-opacity="0.3" stop-color="rgb(40, 40, 40)" offset="0%"></stop><stop stop-opacity="0.05" stop-color="rgb(40, 40, 40)" offset="40%"></stop><stop stop-opacity="0.05" stop-color="rgb(255, 255, 255)" offset="80%"></stop><stop stop-opacity="0.5" stop-color="rgb(255, 255, 255)" offset="100%"></stop></linearGradient><clipPath id="clip287"><ellipse ry="66.66666666666667" rx="100" cy="205" cx="570"></ellipse></clipPath><linearGradient y2="205" x2="470" y1="205" x1="670" id="gradient288" gradientUnits="userSpaceOnUse"><stop stop-opacity="0.2" stop-color="rgb(40, 40, 40)" offset="0%"></stop><stop stop-opacity="0.3" stop-color="rgb(40, 40, 40)" offset="40%"></stop><stop stop-opacity="0" stop-color="rgb(240, 240, 240)" offset="80%"></stop><stop stop-opacity="0.6" stop-color="rgb(240, 240, 240)" offset="100%"></stop></linearGradient><clipPath id="clip289"><path d="M684.9066664678467,140.72123903134607 A150,100 0 0,0 420,205 L 470,205 A100,66.66666666666667 0 0,1 646.6044443118979,162.14749268756404 ZM420,205 A150,100 0 0,0 474.7666248885115,282.2603226181159 L 506.51108325900765,256.50688174541057 A100,66.66666666666667 0 0,1 470,205 ZM474.7666248885115,282.2603226181159 A150,100 0 0,0 523.0619939051769,299.97794734414776 L 538.7079959367845,268.3186315627652 A100,66.66666666666667 0 0,1 506.51108325900765,256.50688174541057 ZM523.0619939051769,299.97794734414776 A150,100 0 0,0 720,205.00000000000003 L 670,205.00000000000003 A100,66.66666666666667 0 0,1 538.7079959367845,268.3186315627652 ZM720,205 A150,100 0 0,0 711.9775255238392,172.7345575567805 L 664.6516836825595,183.48970503785364 A100,66.66666666666667 0 0,1 670,205 ZM711.9775255238392,172.73455755678043 A150,100 0 0,0 684.9066664678467,140.721239031346 L 646.6044443118977,162.147492687564 A100,66.66666666666667 0 0,1 664.6516836825595,183.48970503785364 Z"></path></clipPath><linearGradient y2="305" x2="570" y1="105" x1="570" id="gradient290" gradientUnits="userSpaceOnUse"><stop stop-opacity="0.5" stop-color="rgb(40, 40, 40)" offset="0%"></stop><stop stop-opacity="0" stop-color="rgb(40, 40, 40)" offset="45%"></stop><stop stop-opacity="0" stop-color="rgb(255, 255, 255)" offset="55%"></stop><stop stop-opacity="0.8" stop-color="rgb(255, 255, 255)" offset="100%"></stop></linearGradient><linearGradient y2="205" x2="720" y1="205" x1="420" id="gradient291" gradientUnits="userSpaceOnUse"><stop stop-opacity="0.3" stop-color="rgb(40, 40, 40)" offset="0%"></stop><stop stop-opacity="0.05" stop-color="rgb(40, 40, 40)" offset="40%"></stop><stop stop-opacity="0.05" stop-color="rgb(255, 255, 255)" offset="80%"></stop><stop stop-opacity="0.5" stop-color="rgb(255, 255, 255)" offset="100%"></stop></linearGradient><clipPath id="clip292"><ellipse ry="66.66666666666667" rx="100" cy="205" cx="570"></ellipse></clipPath><linearGradient y2="205" x2="470" y1="205" x1="670" id="gradient293" gradientUnits="userSpaceOnUse"><stop stop-opacity="0.2" stop-color="rgb(40, 40, 40)" offset="0%"></stop><stop stop-opacity="0.3" stop-color="rgb(40, 40, 40)" offset="40%"></stop><stop stop-opacity="0" stop-color="rgb(240, 240, 240)" offset="80%"></stop><stop stop-opacity="0.6" stop-color="rgb(240, 240, 240)" offset="100%"></stop></linearGradient><linearGradient y2="305" x2="570" y1="105" x1="570" id="gradient294" gradientUnits="userSpaceOnUse"><stop stop-opacity="0.5" stop-color="rgb(40, 40, 40)" offset="0%"></stop><stop stop-opacity="0" stop-color="rgb(40, 40, 40)" offset="45%"></stop><stop stop-opacity="0" stop-color="rgb(255, 255, 255)" offset="55%"></stop><stop stop-opacity="0.8" stop-color="rgb(255, 255, 255)" offset="100%"></stop></linearGradient><linearGradient y2="205" x2="720" y1="205" x1="420" id="gradient295" gradientUnits="userSpaceOnUse"><stop stop-opacity="0.3" stop-color="rgb(40, 40, 40)" offset="0%"></stop><stop stop-opacity="0.05" stop-color="rgb(40, 40, 40)" offset="40%"></stop><stop stop-opacity="0.05" stop-color="rgb(255, 255, 255)" offset="80%"></stop><stop stop-opacity="0.5" stop-color="rgb(255, 255, 255)" offset="100%"></stop></linearGradient><clipPath id="clip296"><ellipse ry="66.66666666666667" rx="100" cy="205" cx="570"></ellipse></clipPath><linearGradient y2="205" x2="470" y1="205" x1="670" id="gradient297" gradientUnits="userSpaceOnUse"><stop stop-opacity="0.2" stop-color="rgb(40, 40, 40)" offset="0%"></stop><stop stop-opacity="0.3" stop-color="rgb(40, 40, 40)" offset="40%"></stop><stop stop-opacity="0" stop-color="rgb(240, 240, 240)" offset="80%"></stop><stop stop-opacity="0.6" stop-color="rgb(240, 240, 240)" offset="100%"></stop></linearGradient><clipPath id="clip298" clipPathUnits="userSpaceOnUse"><rect height="116.6825180053711" width="300" y="330.0173034667969" x="420"></rect></clipPath><filter height="233.3650360107422" width="300" y="96.65226745605469" x="420" id="filter299" filterUnits="userSpaceOnUse"><feGaussianBlur stdDeviation="3" in="SourceGraphic"></feGaussianBlur></filter></defs><g id="proj_32_Device_plugin_Donut3DPlugin_34_graphics"><g id="donut3d35"><path fill="rgb(250, 250, 250)" opacity="0.7" d="M 684.9066664678467,140.72123903134607 A 150,100 0 0,0 420,205 L 420,225 A 150,100 0 0,1 684.9066664678467,160.72123903134607 Z"></path><path fill="rgb(250, 250, 250)" opacity="0.7" d="M684.9066664678467,160.72123903134607 A150,100 0 0,0 420,225 L 470,225 A100,66.66666666666667 0 0,1 646.6044443118979,182.14749268756404 Z"></path><path fill="rgb(250, 250, 250)" opacity="0.7" d="M 646.6044443118979,162.14749268756404 A 100,66.66666666666667 0 0,0 470,205 L 470,225 A 100,66.66666666666667 0 0,1 646.6044443118979,182.14749268756404 Z"></path><path fill="rgb(250, 250, 250)" opacity="0.7" d="M 684.9066664678467,140.72123903134607 L 646.6044443118979,162.14749268756404 L 646.6044443118979,182.14749268756404 L 684.9066664678467,160.72123903134607 Z"></path><path fill="rgb(250, 250, 250)" opacity="0.7" d="M684.9066664678467,140.72123903134607 A150,100 0 0,0 420,205 L 470,205 A100,66.66666666666667 0 0,1 646.6044443118979,162.14749268756404 Z"></path><path fill="url(#gradient272)" opacity="0.8" d="M684.9066664678467,140.72123903134607 A150,100 0 0,0 420,205 L 470,205 A100,66.66666666666667 0 0,1 646.6044443118979,162.14749268756404 Z"></path><path opacity="1" fill="url(#gradient273)" d=" M 420,205 A 150,100 0 0,0 474.7666248885115,282.2603226181159 L 474.7666248885115,302.2603226181159 A 150,100 0 0,1 420,225 Z M 474.7666248885115,282.2603226181159 A 150,100 0 0,0 523.0619939051769,299.97794734414776 L 523.0619939051769,319.97794734414776 A 150,100 0 0,1 474.7666248885115,302.2603226181159 Z M 523.0619939051769,299.97794734414776 A 150,100 0 0,0 720,205.00000000000003 L 720,225.00000000000003 A 150,100 0 0,1 523.0619939051769,319.97794734414776 Z"></path><path opacity="1" fill="url(#gradient275)" clip-path="url(#clip274)" d=" M 646.6044443118979,162.14749268756404 A 100,66.66666666666667 0 0,0 470,205 L 470,225 A 100,66.66666666666667 0 0,1 646.6044443118979,182.14749268756404 Z M 670,205 A 100,66.66666666666667 0 0,0 664.6516836825595,183.48970503785364 L 664.6516836825595,203.48970503785364 A 100,66.66666666666667 0 0,1 670,225 Z M 664.6516836825595,183.48970503785364 A 100,66.66666666666667 0 0,0 646.6044443118977,162.147492687564 L 646.6044443118977,182.147492687564 A 100,66.66666666666667 0 0,1 664.6516836825595,203.48970503785364 Z"></path><path fill="rgb(250, 250, 250)" opacity="0.7" d="M 470,205 A 100,66.66666666666667 0 0,0 506.51108325900765,256.50688174541057 L 506.51108325900765,276.50688174541057 A 100,66.66666666666667 0 0,1 470,225 Z"></path><path fill="rgb(250, 250, 250)" opacity="0.7" d="M420,225 A150,100 0 0,0 474.7666248885115,302.2603226181159 L 506.51108325900765,276.50688174541057 A100,66.66666666666667 0 0,1 470,225 Z"></path><path fill="rgb(250, 250, 250)" opacity="0.7" d="M 474.7666248885115,282.2603226181159 L 506.51108325900765,256.50688174541057 L 506.51108325900765,276.50688174541057 L 474.7666248885115,302.2603226181159 Z"></path><path fill="rgb(250, 250, 250)" opacity="0.7" d="M 420,205 A 150,100 0 0,0 474.7666248885115,282.2603226181159 L 474.7666248885115,302.2603226181159 A 150,100 0 0,1 420,225 Z"></path><path fill="rgb(250, 250, 250)" opacity="0.7" d="M420,205 A150,100 0 0,0 474.7666248885115,282.2603226181159 L 506.51108325900765,256.50688174541057 A100,66.66666666666667 0 0,1 470,205 Z"></path><path fill="url(#gradient276)" opacity="0.8" d="M420,205 A150,100 0 0,0 474.7666248885115,282.2603226181159 L 506.51108325900765,256.50688174541057 A100,66.66666666666667 0 0,1 470,205 Z"></path><path opacity="1" fill="url(#gradient277)" d=" M 420,205 A 150,100 0 0,0 474.7666248885115,282.2603226181159 L 474.7666248885115,302.2603226181159 A 150,100 0 0,1 420,225 Z M 474.7666248885115,282.2603226181159 A 150,100 0 0,0 523.0619939051769,299.97794734414776 L 523.0619939051769,319.97794734414776 A 150,100 0 0,1 474.7666248885115,302.2603226181159 Z M 523.0619939051769,299.97794734414776 A 150,100 0 0,0 720,205.00000000000003 L 720,225.00000000000003 A 150,100 0 0,1 523.0619939051769,319.97794734414776 Z"></path><path opacity="1" fill="url(#gradient279)" clip-path="url(#clip278)" d=" M 646.6044443118979,162.14749268756404 A 100,66.66666666666667 0 0,0 470,205 L 470,225 A 100,66.66666666666667 0 0,1 646.6044443118979,182.14749268756404 Z M 670,205 A 100,66.66666666666667 0 0,0 664.6516836825595,183.48970503785364 L 664.6516836825595,203.48970503785364 A 100,66.66666666666667 0 0,1 670,225 Z M 664.6516836825595,183.48970503785364 A 100,66.66666666666667 0 0,0 646.6044443118977,162.147492687564 L 646.6044443118977,182.147492687564 A 100,66.66666666666667 0 0,1 664.6516836825595,203.48970503785364 Z"></path><path fill="rgb(244, 145, 26)" opacity="0.7" d="M 506.51108325900765,256.50688174541057 A 100,66.66666666666667 0 0,0 538.7079959367845,268.3186315627652 L 538.7079959367845,288.3186315627652 A 100,66.66666666666667 0 0,1 506.51108325900765,276.50688174541057 Z"></path><path fill="rgb(244, 145, 26)" opacity="0.7" d="M474.7666248885115,302.2603226181159 A150,100 0 0,0 523.0619939051769,319.97794734414776 L 538.7079959367845,288.3186315627652 A100,66.66666666666667 0 0,1 506.51108325900765,276.50688174541057 Z"></path><path fill="rgb(244, 145, 26)" opacity="0.7" d="M 474.7666248885115,282.2603226181159 L 506.51108325900765,256.50688174541057 L 506.51108325900765,276.50688174541057 L 474.7666248885115,302.2603226181159 Z"></path><path fill="rgb(244, 145, 26)" opacity="0.7" d="M 523.0619939051769,299.97794734414776 L 538.7079959367845,268.3186315627652 L 538.7079959367845,288.3186315627652 L 523.0619939051769,319.97794734414776 Z"></path><path fill="rgb(244, 145, 26)" opacity="0.7" d="M 474.7666248885115,282.2603226181159 A 150,100 0 0,0 523.0619939051769,299.97794734414776 L 523.0619939051769,319.97794734414776 A 150,100 0 0,1 474.7666248885115,302.2603226181159 Z"></path><path fill="rgb(244, 145, 26)" opacity="0.7" d="M474.7666248885115,282.2603226181159 A150,100 0 0,0 523.0619939051769,299.97794734414776 L 538.7079959367845,268.3186315627652 A100,66.66666666666667 0 0,1 506.51108325900765,256.50688174541057 Z"></path><path fill="url(#gradient280)" opacity="0.8" d="M474.7666248885115,282.2603226181159 A150,100 0 0,0 523.0619939051769,299.97794734414776 L 538.7079959367845,268.3186315627652 A100,66.66666666666667 0 0,1 506.51108325900765,256.50688174541057 Z"></path><path opacity="1" fill="url(#gradient281)" d=" M 420,205 A 150,100 0 0,0 474.7666248885115,282.2603226181159 L 474.7666248885115,302.2603226181159 A 150,100 0 0,1 420,225 Z M 474.7666248885115,282.2603226181159 A 150,100 0 0,0 523.0619939051769,299.97794734414776 L 523.0619939051769,319.97794734414776 A 150,100 0 0,1 474.7666248885115,302.2603226181159 Z M 523.0619939051769,299.97794734414776 A 150,100 0 0,0 720,205.00000000000003 L 720,225.00000000000003 A 150,100 0 0,1 523.0619939051769,319.97794734414776 Z"></path><path opacity="1" fill="url(#gradient283)" clip-path="url(#clip282)" d=" M 646.6044443118979,162.14749268756404 A 100,66.66666666666667 0 0,0 470,205 L 470,225 A 100,66.66666666666667 0 0,1 646.6044443118979,182.14749268756404 Z M 670,205 A 100,66.66666666666667 0 0,0 664.6516836825595,183.48970503785364 L 664.6516836825595,203.48970503785364 A 100,66.66666666666667 0 0,1 670,225 Z M 664.6516836825595,183.48970503785364 A 100,66.66666666666667 0 0,0 646.6044443118977,162.147492687564 L 646.6044443118977,182.147492687564 A 100,66.66666666666667 0 0,1 664.6516836825595,203.48970503785364 Z"></path><path fill="rgb(208, 58, 47)" opacity="0.7" d="M 711.9775255238392,172.73455755678043 A 150,100 0 0,0 684.9066664678467,140.721239031346 L 684.9066664678467,160.721239031346 A 150,100 0 0,1 711.9775255238392,192.73455755678043 Z"></path><path fill="rgb(208, 58, 47)" opacity="0.7" d="M711.9775255238392,192.73455755678043 A150,100 0 0,0 684.9066664678467,160.721239031346 L 646.6044443118977,182.147492687564 A100,66.66666666666667 0 0,1 664.6516836825595,203.48970503785364 Z"></path><path fill="rgb(208, 58, 47)" opacity="0.7" d="M 664.6516836825595,183.48970503785364 A 100,66.66666666666667 0 0,0 646.6044443118977,162.147492687564 L 646.6044443118977,182.147492687564 A 100,66.66666666666667 0 0,1 664.6516836825595,203.48970503785364 Z"></path><path fill="rgb(208, 58, 47)" opacity="0.7" d="M 711.9775255238392,172.73455755678043 L 664.6516836825595,183.48970503785364 L 664.6516836825595,203.48970503785364 L 711.9775255238392,192.73455755678043 Z"></path><path fill="rgb(208, 58, 47)" opacity="0.7" d="M 684.9066664678467,140.721239031346 L 646.6044443118977,162.147492687564 L 646.6044443118977,182.147492687564 L 684.9066664678467,160.721239031346 Z"></path><path fill="rgb(208, 58, 47)" opacity="0.7" d="M711.9775255238392,172.73455755678043 A150,100 0 0,0 684.9066664678467,140.721239031346 L 646.6044443118977,162.147492687564 A100,66.66666666666667 0 0,1 664.6516836825595,183.48970503785364 Z"></path><path fill="url(#gradient285)" opacity="0.8" d="M711.9775255238392,172.73455755678043 A150,100 0 0,0 684.9066664678467,140.721239031346 L 646.6044443118977,162.147492687564 A100,66.66666666666667 0 0,1 664.6516836825595,183.48970503785364 Z"></path><path opacity="1" fill="url(#gradient286)" d=" M 420,205 A 150,100 0 0,0 474.7666248885115,282.2603226181159 L 474.7666248885115,302.2603226181159 A 150,100 0 0,1 420,225 Z M 474.7666248885115,282.2603226181159 A 150,100 0 0,0 523.0619939051769,299.97794734414776 L 523.0619939051769,319.97794734414776 A 150,100 0 0,1 474.7666248885115,302.2603226181159 Z M 523.0619939051769,299.97794734414776 A 150,100 0 0,0 720,205.00000000000003 L 720,225.00000000000003 A 150,100 0 0,1 523.0619939051769,319.97794734414776 Z"></path><path opacity="1" fill="url(#gradient288)" clip-path="url(#clip287)" d=" M 646.6044443118979,162.14749268756404 A 100,66.66666666666667 0 0,0 470,205 L 470,225 A 100,66.66666666666667 0 0,1 646.6044443118979,182.14749268756404 Z M 670,205 A 100,66.66666666666667 0 0,0 664.6516836825595,183.48970503785364 L 664.6516836825595,203.48970503785364 A 100,66.66666666666667 0 0,1 670,225 Z M 664.6516836825595,183.48970503785364 A 100,66.66666666666667 0 0,0 646.6044443118977,162.147492687564 L 646.6044443118977,182.147492687564 A 100,66.66666666666667 0 0,1 664.6516836825595,203.48970503785364 Z"></path><path fill="rgb(78, 148, 44)" opacity="0.7" d="M 720,205 A 150,100 0 0,0 711.9775255238392,172.7345575567805 L 711.9775255238392,192.7345575567805 A 150,100 0 0,1 720,225 Z"></path><path fill="rgb(78, 148, 44)" opacity="0.7" d="M720,225 A150,100 0 0,0 711.9775255238392,192.7345575567805 L 664.6516836825595,203.48970503785364 A100,66.66666666666667 0 0,1 670,225 Z"></path><path fill="rgb(78, 148, 44)" opacity="0.7" d="M 670,205 A 100,66.66666666666667 0 0,0 664.6516836825595,183.48970503785364 L 664.6516836825595,203.48970503785364 A 100,66.66666666666667 0 0,1 670,225 Z"></path><path fill="rgb(78, 148, 44)" opacity="0.7" d="M 711.9775255238392,172.7345575567805 L 664.6516836825595,183.48970503785364 L 664.6516836825595,203.48970503785364 L 711.9775255238392,192.7345575567805 Z"></path><path fill="rgb(78, 148, 44)" opacity="0.7" d="M720,205 A150,100 0 0,0 711.9775255238392,172.7345575567805 L 664.6516836825595,183.48970503785364 A100,66.66666666666667 0 0,1 670,205 Z"></path><path fill="url(#gradient290)" opacity="0.8" d="M720,205 A150,100 0 0,0 711.9775255238392,172.7345575567805 L 664.6516836825595,183.48970503785364 A100,66.66666666666667 0 0,1 670,205 Z"></path><path opacity="1" fill="url(#gradient291)" d=" M 420,205 A 150,100 0 0,0 474.7666248885115,282.2603226181159 L 474.7666248885115,302.2603226181159 A 150,100 0 0,1 420,225 Z M 474.7666248885115,282.2603226181159 A 150,100 0 0,0 523.0619939051769,299.97794734414776 L 523.0619939051769,319.97794734414776 A 150,100 0 0,1 474.7666248885115,302.2603226181159 Z M 523.0619939051769,299.97794734414776 A 150,100 0 0,0 720,205.00000000000003 L 720,225.00000000000003 A 150,100 0 0,1 523.0619939051769,319.97794734414776 Z"></path><path opacity="1" fill="url(#gradient293)" clip-path="url(#clip292)" d=" M 646.6044443118979,162.14749268756404 A 100,66.66666666666667 0 0,0 470,205 L 470,225 A 100,66.66666666666667 0 0,1 646.6044443118979,182.14749268756404 Z M 670,205 A 100,66.66666666666667 0 0,0 664.6516836825595,183.48970503785364 L 664.6516836825595,203.48970503785364 A 100,66.66666666666667 0 0,1 670,225 Z M 664.6516836825595,183.48970503785364 A 100,66.66666666666667 0 0,0 646.6044443118977,162.147492687564 L 646.6044443118977,182.147492687564 A 100,66.66666666666667 0 0,1 664.6516836825595,203.48970503785364 Z"></path><path fill="rgb(78, 148, 44)" opacity="0.7" d="M 538.7079959367845,268.3186315627652 A 100,66.66666666666667 0 0,0 670,205.00000000000003 L 670,225.00000000000003 A 100,66.66666666666667 0 0,1 538.7079959367845,288.3186315627652 Z"></path><path fill="rgb(78, 148, 44)" opacity="0.7" d="M523.0619939051769,319.97794734414776 A150,100 0 0,0 720,225.00000000000003 L 670,225.00000000000003 A100,66.66666666666667 0 0,1 538.7079959367845,288.3186315627652 Z"></path><path fill="rgb(78, 148, 44)" opacity="0.7" d="M 523.0619939051769,299.97794734414776 L 538.7079959367845,268.3186315627652 L 538.7079959367845,288.3186315627652 L 523.0619939051769,319.97794734414776 Z"></path><path fill="rgb(78, 148, 44)" opacity="0.7" d="M 523.0619939051769,299.97794734414776 A 150,100 0 0,0 720,205.00000000000003 L 720,225.00000000000003 A 150,100 0 0,1 523.0619939051769,319.97794734414776 Z"></path><path fill="rgb(78, 148, 44)" opacity="0.7" d="M523.0619939051769,299.97794734414776 A150,100 0 0,0 720,205.00000000000003 L 670,205.00000000000003 A100,66.66666666666667 0 0,1 538.7079959367845,268.3186315627652 Z"></path><path fill="url(#gradient294)" opacity="0.8" d="M523.0619939051769,299.97794734414776 A150,100 0 0,0 720,205.00000000000003 L 670,205.00000000000003 A100,66.66666666666667 0 0,1 538.7079959367845,268.3186315627652 Z"></path><path opacity="1" fill="url(#gradient295)" d=" M 420,205 A 150,100 0 0,0 474.7666248885115,282.2603226181159 L 474.7666248885115,302.2603226181159 A 150,100 0 0,1 420,225 Z M 474.7666248885115,282.2603226181159 A 150,100 0 0,0 523.0619939051769,299.97794734414776 L 523.0619939051769,319.97794734414776 A 150,100 0 0,1 474.7666248885115,302.2603226181159 Z M 523.0619939051769,299.97794734414776 A 150,100 0 0,0 720,205.00000000000003 L 720,225.00000000000003 A 150,100 0 0,1 523.0619939051769,319.97794734414776 Z"></path><path opacity="1" fill="url(#gradient297)" clip-path="url(#clip296)" d=" M 646.6044443118979,162.14749268756404 A 100,66.66666666666667 0 0,0 470,205 L 470,225 A 100,66.66666666666667 0 0,1 646.6044443118979,182.14749268756404 Z M 670,205 A 100,66.66666666666667 0 0,0 664.6516836825595,183.48970503785364 L 664.6516836825595,203.48970503785364 A 100,66.66666666666667 0 0,1 670,225 Z M 664.6516836825595,183.48970503785364 A 100,66.66666666666667 0 0,0 646.6044443118977,162.147492687564 L 646.6044443118977,182.147492687564 A 100,66.66666666666667 0 0,1 664.6516836825595,203.48970503785364 Z"></path></g><g clip-path="url(#clip298)"><g id="null_reflection300" opacity="0.3" transform="translate(0,233.3650360107422), scale(1,-1), translate(0,-426.66957092285156)" filter="url(#filter299)"><path fill="rgb(250, 250, 250)" opacity="0.7" d="M 684.9066664678467,140.72123903134607 A 150,100 0 0,0 420,205 L 420,225 A 150,100 0 0,1 684.9066664678467,160.72123903134607 Z"></path><path fill="rgb(250, 250, 250)" opacity="0.7" d="M684.9066664678467,160.72123903134607 A150,100 0 0,0 420,225 L 470,225 A100,66.66666666666667 0 0,1 646.6044443118979,182.14749268756404 Z"></path><path fill="rgb(250, 250, 250)" opacity="0.7" d="M 646.6044443118979,162.14749268756404 A 100,66.66666666666667 0 0,0 470,205 L 470,225 A 100,66.66666666666667 0 0,1 646.6044443118979,182.14749268756404 Z"></path><path fill="rgb(250, 250, 250)" opacity="0.7" d="M 684.9066664678467,140.72123903134607 L 646.6044443118979,162.14749268756404 L 646.6044443118979,182.14749268756404 L 684.9066664678467,160.72123903134607 Z"></path><path fill="rgb(250, 250, 250)" opacity="0.7" d="M684.9066664678467,140.72123903134607 A150,100 0 0,0 420,205 L 470,205 A100,66.66666666666667 0 0,1 646.6044443118979,162.14749268756404 Z"></path><path fill="url(#gradient272)" opacity="0.8" d="M684.9066664678467,140.72123903134607 A150,100 0 0,0 420,205 L 470,205 A100,66.66666666666667 0 0,1 646.6044443118979,162.14749268756404 Z"></path><path opacity="1" fill="url(#gradient273)" d=" M 420,205 A 150,100 0 0,0 474.7666248885115,282.2603226181159 L 474.7666248885115,302.2603226181159 A 150,100 0 0,1 420,225 Z M 474.7666248885115,282.2603226181159 A 150,100 0 0,0 523.0619939051769,299.97794734414776 L 523.0619939051769,319.97794734414776 A 150,100 0 0,1 474.7666248885115,302.2603226181159 Z M 523.0619939051769,299.97794734414776 A 150,100 0 0,0 720,205.00000000000003 L 720,225.00000000000003 A 150,100 0 0,1 523.0619939051769,319.97794734414776 Z"></path><path opacity="1" fill="url(#gradient275)" clip-path="url(#clip274)" d=" M 646.6044443118979,162.14749268756404 A 100,66.66666666666667 0 0,0 470,205 L 470,225 A 100,66.66666666666667 0 0,1 646.6044443118979,182.14749268756404 Z M 670,205 A 100,66.66666666666667 0 0,0 664.6516836825595,183.48970503785364 L 664.6516836825595,203.48970503785364 A 100,66.66666666666667 0 0,1 670,225 Z M 664.6516836825595,183.48970503785364 A 100,66.66666666666667 0 0,0 646.6044443118977,162.147492687564 L 646.6044443118977,182.147492687564 A 100,66.66666666666667 0 0,1 664.6516836825595,203.48970503785364 Z"></path><path fill="rgb(250, 250, 250)" opacity="0.7" d="M 470,205 A 100,66.66666666666667 0 0,0 506.51108325900765,256.50688174541057 L 506.51108325900765,276.50688174541057 A 100,66.66666666666667 0 0,1 470,225 Z"></path><path fill="rgb(250, 250, 250)" opacity="0.7" d="M420,225 A150,100 0 0,0 474.7666248885115,302.2603226181159 L 506.51108325900765,276.50688174541057 A100,66.66666666666667 0 0,1 470,225 Z"></path><path fill="rgb(250, 250, 250)" opacity="0.7" d="M 474.7666248885115,282.2603226181159 L 506.51108325900765,256.50688174541057 L 506.51108325900765,276.50688174541057 L 474.7666248885115,302.2603226181159 Z"></path><path fill="rgb(250, 250, 250)" opacity="0.7" d="M 420,205 A 150,100 0 0,0 474.7666248885115,282.2603226181159 L 474.7666248885115,302.2603226181159 A 150,100 0 0,1 420,225 Z"></path><path fill="rgb(250, 250, 250)" opacity="0.7" d="M420,205 A150,100 0 0,0 474.7666248885115,282.2603226181159 L 506.51108325900765,256.50688174541057 A100,66.66666666666667 0 0,1 470,205 Z"></path><path fill="url(#gradient276)" opacity="0.8" d="M420,205 A150,100 0 0,0 474.7666248885115,282.2603226181159 L 506.51108325900765,256.50688174541057 A100,66.66666666666667 0 0,1 470,205 Z"></path><path opacity="1" fill="url(#gradient277)" d=" M 420,205 A 150,100 0 0,0 474.7666248885115,282.2603226181159 L 474.7666248885115,302.2603226181159 A 150,100 0 0,1 420,225 Z M 474.7666248885115,282.2603226181159 A 150,100 0 0,0 523.0619939051769,299.97794734414776 L 523.0619939051769,319.97794734414776 A 150,100 0 0,1 474.7666248885115,302.2603226181159 Z M 523.0619939051769,299.97794734414776 A 150,100 0 0,0 720,205.00000000000003 L 720,225.00000000000003 A 150,100 0 0,1 523.0619939051769,319.97794734414776 Z"></path><path opacity="1" fill="url(#gradient279)" clip-path="url(#clip278)" d=" M 646.6044443118979,162.14749268756404 A 100,66.66666666666667 0 0,0 470,205 L 470,225 A 100,66.66666666666667 0 0,1 646.6044443118979,182.14749268756404 Z M 670,205 A 100,66.66666666666667 0 0,0 664.6516836825595,183.48970503785364 L 664.6516836825595,203.48970503785364 A 100,66.66666666666667 0 0,1 670,225 Z M 664.6516836825595,183.48970503785364 A 100,66.66666666666667 0 0,0 646.6044443118977,162.147492687564 L 646.6044443118977,182.147492687564 A 100,66.66666666666667 0 0,1 664.6516836825595,203.48970503785364 Z"></path><path fill="rgb(244, 145, 26)" opacity="0.7" d="M 506.51108325900765,256.50688174541057 A 100,66.66666666666667 0 0,0 538.7079959367845,268.3186315627652 L 538.7079959367845,288.3186315627652 A 100,66.66666666666667 0 0,1 506.51108325900765,276.50688174541057 Z"></path><path fill="rgb(244, 145, 26)" opacity="0.7" d="M474.7666248885115,302.2603226181159 A150,100 0 0,0 523.0619939051769,319.97794734414776 L 538.7079959367845,288.3186315627652 A100,66.66666666666667 0 0,1 506.51108325900765,276.50688174541057 Z"></path><path fill="rgb(244, 145, 26)" opacity="0.7" d="M 474.7666248885115,282.2603226181159 L 506.51108325900765,256.50688174541057 L 506.51108325900765,276.50688174541057 L 474.7666248885115,302.2603226181159 Z"></path><path fill="rgb(244, 145, 26)" opacity="0.7" d="M 523.0619939051769,299.97794734414776 L 538.7079959367845,268.3186315627652 L 538.7079959367845,288.3186315627652 L 523.0619939051769,319.97794734414776 Z"></path><path fill="rgb(244, 145, 26)" opacity="0.7" d="M 474.7666248885115,282.2603226181159 A 150,100 0 0,0 523.0619939051769,299.97794734414776 L 523.0619939051769,319.97794734414776 A 150,100 0 0,1 474.7666248885115,302.2603226181159 Z"></path><path fill="rgb(244, 145, 26)" opacity="0.7" d="M474.7666248885115,282.2603226181159 A150,100 0 0,0 523.0619939051769,299.97794734414776 L 538.7079959367845,268.3186315627652 A100,66.66666666666667 0 0,1 506.51108325900765,256.50688174541057 Z"></path><path fill="url(#gradient280)" opacity="0.8" d="M474.7666248885115,282.2603226181159 A150,100 0 0,0 523.0619939051769,299.97794734414776 L 538.7079959367845,268.3186315627652 A100,66.66666666666667 0 0,1 506.51108325900765,256.50688174541057 Z"></path><path opacity="1" fill="url(#gradient281)" d=" M 420,205 A 150,100 0 0,0 474.7666248885115,282.2603226181159 L 474.7666248885115,302.2603226181159 A 150,100 0 0,1 420,225 Z M 474.7666248885115,282.2603226181159 A 150,100 0 0,0 523.0619939051769,299.97794734414776 L 523.0619939051769,319.97794734414776 A 150,100 0 0,1 474.7666248885115,302.2603226181159 Z M 523.0619939051769,299.97794734414776 A 150,100 0 0,0 720,205.00000000000003 L 720,225.00000000000003 A 150,100 0 0,1 523.0619939051769,319.97794734414776 Z"></path><path opacity="1" fill="url(#gradient283)" clip-path="url(#clip282)" d=" M 646.6044443118979,162.14749268756404 A 100,66.66666666666667 0 0,0 470,205 L 470,225 A 100,66.66666666666667 0 0,1 646.6044443118979,182.14749268756404 Z M 670,205 A 100,66.66666666666667 0 0,0 664.6516836825595,183.48970503785364 L 664.6516836825595,203.48970503785364 A 100,66.66666666666667 0 0,1 670,225 Z M 664.6516836825595,183.48970503785364 A 100,66.66666666666667 0 0,0 646.6044443118977,162.147492687564 L 646.6044443118977,182.147492687564 A 100,66.66666666666667 0 0,1 664.6516836825595,203.48970503785364 Z"></path><path fill="rgb(208, 58, 47)" opacity="0.7" d="M 711.9775255238392,172.73455755678043 A 150,100 0 0,0 684.9066664678467,140.721239031346 L 684.9066664678467,160.721239031346 A 150,100 0 0,1 711.9775255238392,192.73455755678043 Z"></path><path fill="rgb(208, 58, 47)" opacity="0.7" d="M711.9775255238392,192.73455755678043 A150,100 0 0,0 684.9066664678467,160.721239031346 L 646.6044443118977,182.147492687564 A100,66.66666666666667 0 0,1 664.6516836825595,203.48970503785364 Z"></path><path fill="rgb(208, 58, 47)" opacity="0.7" d="M 664.6516836825595,183.48970503785364 A 100,66.66666666666667 0 0,0 646.6044443118977,162.147492687564 L 646.6044443118977,182.147492687564 A 100,66.66666666666667 0 0,1 664.6516836825595,203.48970503785364 Z"></path><path fill="rgb(208, 58, 47)" opacity="0.7" d="M 711.9775255238392,172.73455755678043 L 664.6516836825595,183.48970503785364 L 664.6516836825595,203.48970503785364 L 711.9775255238392,192.73455755678043 Z"></path><path fill="rgb(208, 58, 47)" opacity="0.7" d="M 684.9066664678467,140.721239031346 L 646.6044443118977,162.147492687564 L 646.6044443118977,182.147492687564 L 684.9066664678467,160.721239031346 Z"></path><path fill="rgb(208, 58, 47)" opacity="0.7" d="M711.9775255238392,172.73455755678043 A150,100 0 0,0 684.9066664678467,140.721239031346 L 646.6044443118977,162.147492687564 A100,66.66666666666667 0 0,1 664.6516836825595,183.48970503785364 Z"></path><path fill="url(#gradient285)" opacity="0.8" d="M711.9775255238392,172.73455755678043 A150,100 0 0,0 684.9066664678467,140.721239031346 L 646.6044443118977,162.147492687564 A100,66.66666666666667 0 0,1 664.6516836825595,183.48970503785364 Z"></path><path opacity="1" fill="url(#gradient286)" d=" M 420,205 A 150,100 0 0,0 474.7666248885115,282.2603226181159 L 474.7666248885115,302.2603226181159 A 150,100 0 0,1 420,225 Z M 474.7666248885115,282.2603226181159 A 150,100 0 0,0 523.0619939051769,299.97794734414776 L 523.0619939051769,319.97794734414776 A 150,100 0 0,1 474.7666248885115,302.2603226181159 Z M 523.0619939051769,299.97794734414776 A 150,100 0 0,0 720,205.00000000000003 L 720,225.00000000000003 A 150,100 0 0,1 523.0619939051769,319.97794734414776 Z"></path><path opacity="1" fill="url(#gradient288)" clip-path="url(#clip287)" d=" M 646.6044443118979,162.14749268756404 A 100,66.66666666666667 0 0,0 470,205 L 470,225 A 100,66.66666666666667 0 0,1 646.6044443118979,182.14749268756404 Z M 670,205 A 100,66.66666666666667 0 0,0 664.6516836825595,183.48970503785364 L 664.6516836825595,203.48970503785364 A 100,66.66666666666667 0 0,1 670,225 Z M 664.6516836825595,183.48970503785364 A 100,66.66666666666667 0 0,0 646.6044443118977,162.147492687564 L 646.6044443118977,182.147492687564 A 100,66.66666666666667 0 0,1 664.6516836825595,203.48970503785364 Z"></path><path fill="rgb(78, 148, 44)" opacity="0.7" d="M 720,205 A 150,100 0 0,0 711.9775255238392,172.7345575567805 L 711.9775255238392,192.7345575567805 A 150,100 0 0,1 720,225 Z"></path><path fill="rgb(78, 148, 44)" opacity="0.7" d="M720,225 A150,100 0 0,0 711.9775255238392,192.7345575567805 L 664.6516836825595,203.48970503785364 A100,66.66666666666667 0 0,1 670,225 Z"></path><path fill="rgb(78, 148, 44)" opacity="0.7" d="M 670,205 A 100,66.66666666666667 0 0,0 664.6516836825595,183.48970503785364 L 664.6516836825595,203.48970503785364 A 100,66.66666666666667 0 0,1 670,225 Z"></path><path fill="rgb(78, 148, 44)" opacity="0.7" d="M 711.9775255238392,172.7345575567805 L 664.6516836825595,183.48970503785364 L 664.6516836825595,203.48970503785364 L 711.9775255238392,192.7345575567805 Z"></path><path fill="rgb(78, 148, 44)" opacity="0.7" d="M720,205 A150,100 0 0,0 711.9775255238392,172.7345575567805 L 664.6516836825595,183.48970503785364 A100,66.66666666666667 0 0,1 670,205 Z"></path><path fill="url(#gradient290)" opacity="0.8" d="M720,205 A150,100 0 0,0 711.9775255238392,172.7345575567805 L 664.6516836825595,183.48970503785364 A100,66.66666666666667 0 0,1 670,205 Z"></path><path opacity="1" fill="url(#gradient291)" d=" M 420,205 A 150,100 0 0,0 474.7666248885115,282.2603226181159 L 474.7666248885115,302.2603226181159 A 150,100 0 0,1 420,225 Z M 474.7666248885115,282.2603226181159 A 150,100 0 0,0 523.0619939051769,299.97794734414776 L 523.0619939051769,319.97794734414776 A 150,100 0 0,1 474.7666248885115,302.2603226181159 Z M 523.0619939051769,299.97794734414776 A 150,100 0 0,0 720,205.00000000000003 L 720,225.00000000000003 A 150,100 0 0,1 523.0619939051769,319.97794734414776 Z"></path><path opacity="1" fill="url(#gradient293)" clip-path="url(#clip292)" d=" M 646.6044443118979,162.14749268756404 A 100,66.66666666666667 0 0,0 470,205 L 470,225 A 100,66.66666666666667 0 0,1 646.6044443118979,182.14749268756404 Z M 670,205 A 100,66.66666666666667 0 0,0 664.6516836825595,183.48970503785364 L 664.6516836825595,203.48970503785364 A 100,66.66666666666667 0 0,1 670,225 Z M 664.6516836825595,183.48970503785364 A 100,66.66666666666667 0 0,0 646.6044443118977,162.147492687564 L 646.6044443118977,182.147492687564 A 100,66.66666666666667 0 0,1 664.6516836825595,203.48970503785364 Z"></path><path fill="rgb(78, 148, 44)" opacity="0.7" d="M 538.7079959367845,268.3186315627652 A 100,66.66666666666667 0 0,0 670,205.00000000000003 L 670,225.00000000000003 A 100,66.66666666666667 0 0,1 538.7079959367845,288.3186315627652 Z"></path><path fill="rgb(78, 148, 44)" opacity="0.7" d="M523.0619939051769,319.97794734414776 A150,100 0 0,0 720,225.00000000000003 L 670,225.00000000000003 A100,66.66666666666667 0 0,1 538.7079959367845,288.3186315627652 Z"></path><path fill="rgb(78, 148, 44)" opacity="0.7" d="M 523.0619939051769,299.97794734414776 L 538.7079959367845,268.3186315627652 L 538.7079959367845,288.3186315627652 L 523.0619939051769,319.97794734414776 Z"></path><path fill="rgb(78, 148, 44)" opacity="0.7" d="M 523.0619939051769,299.97794734414776 A 150,100 0 0,0 720,205.00000000000003 L 720,225.00000000000003 A 150,100 0 0,1 523.0619939051769,319.97794734414776 Z"></path><path fill="rgb(78, 148, 44)" opacity="0.7" d="M523.0619939051769,299.97794734414776 A150,100 0 0,0 720,205.00000000000003 L 670,205.00000000000003 A100,66.66666666666667 0 0,1 538.7079959367845,268.3186315627652 Z"></path><path fill="url(#gradient294)" opacity="0.8" d="M523.0619939051769,299.97794734414776 A150,100 0 0,0 720,205.00000000000003 L 670,205.00000000000003 A100,66.66666666666667 0 0,1 538.7079959367845,268.3186315627652 Z"></path><path opacity="1" fill="url(#gradient295)" d=" M 420,205 A 150,100 0 0,0 474.7666248885115,282.2603226181159 L 474.7666248885115,302.2603226181159 A 150,100 0 0,1 420,225 Z M 474.7666248885115,282.2603226181159 A 150,100 0 0,0 523.0619939051769,299.97794734414776 L 523.0619939051769,319.97794734414776 A 150,100 0 0,1 474.7666248885115,302.2603226181159 Z M 523.0619939051769,299.97794734414776 A 150,100 0 0,0 720,205.00000000000003 L 720,225.00000000000003 A 150,100 0 0,1 523.0619939051769,319.97794734414776 Z"></path><path opacity="1" fill="url(#gradient297)" clip-path="url(#clip296)" d=" M 646.6044443118979,162.14749268756404 A 100,66.66666666666667 0 0,0 470,205 L 470,225 A 100,66.66666666666667 0 0,1 646.6044443118979,182.14749268756404 Z M 670,205 A 100,66.66666666666667 0 0,0 664.6516836825595,183.48970503785364 L 664.6516836825595,203.48970503785364 A 100,66.66666666666667 0 0,1 670,225 Z M 664.6516836825595,183.48970503785364 A 100,66.66666666666667 0 0,0 646.6044443118977,162.147492687564 L 646.6044443118977,182.147492687564 A 100,66.66666666666667 0 0,1 664.6516836825595,203.48970503785364 Z"></path></g></g><g opacity="1" id="label153"><rect stroke-width="2" fill-opacity="1" fill="black" stroke="rgb(180,180,180)" ry="8" rx="8" height="18.5" width="72.01666641235352" y="100.04920196533203" x="303.48333740234375"></rect><text text-anchor="end" fill="hsl(0, 0%, 100%)" font-size="12" y="113.54920233510455" x="365">JenScript</text><path stroke="darkgray" fill="none" d="M 463.3909117340329,134.65323256546503 Q 442.0690940808395,113.54920233510455 375,113.54920233510455"></path></g><g opacity="1" id="label190"><rect stroke-width="2" fill-opacity="1" fill="black" stroke="rgb(244, 145, 26)" ry="8" rx="8" height="18.5" width="45.183332443237305" y="305.3941345214844" x="330.3166809082031"></rect><text text-anchor="end" fill="hsl(33, 91%, 73%)" font-size="12" y="318.89413963766975" x="365">SVG</text><path stroke="darkgray" fill="none" d="M 497.68297461444763,292.6108766443613 Q 483.2195695373372,318.89413963766975 375,318.89413963766975"></path></g><g opacity="1" id="label227"><rect stroke-width="2" fill-opacity="1" fill="black" stroke="rgb(78, 148, 44)" ry="8" rx="8" height="18.5" width="39.70000076293945" y="282.9508056640625" x="764.433349609375"></rect><text text-anchor="start" fill="hsl(100, 54%, 58%)" font-size="12" y="296.4507976648954" x="775">API</text><path stroke="darkgray" fill="none" d="M 676.6090882659671,275.34676743453497 Q 697.9309059191605,296.4507976648954 765,296.4507976648954"></path></g><g opacity="1" id="label264"><rect stroke-width="2" fill-opacity="1" fill="black" stroke="hsl(4, 63%, 70%)" ry="8" rx="8" height="18.5" width="77.78333282470703" y="127.65925598144531" x="764.5"></rect><text text-anchor="start" fill="hsl(4, 63%, 70%)" font-size="12" y="141.15925782923483" x="775">JavaScript</text><path stroke="darkgray" fill="none" d="M 700.6669491129986,155.8917367917191 Q 726.8003389355983,141.15925782923483 765,141.15925782923483"></path></g></g></g><g transform="translate(0,0) scale(1,1)" id="proj_32_Device_plugin_TranslatePlugin_301"><defs id="proj_32_Device_plugin_TranslatePlugin_301_definition"></defs><g id="proj_32_Device_plugin_TranslatePlugin_301_graphics"></g></g></g></svg></g></svg></g><g id="view_donut3dview_selectors"><g id="view_donut3dview_selectors_definitions"></g><g id="view_donut3dview_selectors_graphics"></g></g><svg height="410" width="1140" y="20" x="0" id="view_donut3dview_widgets"><defs id="view_donut3dview_widgets_definitions"></defs><g id="view_donut3dview_widgets_graphics"></g></svg><g id="view_donut3dview_foreground"><g id="foreground29"><g id="view_donut3dview_foreground_definitions"></g><g id="view_donut3dview_foreground_graphics"><text text-anchor="start" fill-opacity="1" fill="#4a49ee" font-size="6" y="18" x="0" id="text_foreground29">JenScript 1.1.0 - www.jensoftapi.com</text></g></g></g><g id="view_donut3dview_dispatcher"><svg height="20px" width="1140px" y="430px" x="0px" id="view_donut3dview_South_dispatcher"><rect style="stroke: black;stroke-opacity: 0; fill: #0000ff;fill-opacity :0" height="20" width="1140" y="0" x="0" id="view_donut3dview_dispatcher"></rect></svg><svg height="20px" width="1140px" y="0px" x="0px" id="view_donut3dview_North_dispatcher"><rect style="stroke: black;stroke-opacity: 0; fill: #0000ff;fill-opacity :0" height="20" width="1140" y="0" x="0" id="view_donut3dview_dispatcher"></rect></svg><svg height="410px" width="0px" y="20px" x="1140px" id="view_donut3dview_East_dispatcher"><rect style="stroke: black;stroke-opacity: 0; fill: #0000ff;fill-opacity :0" height="410" width="0" y="0" x="0" id="view_donut3dview_dispatcher"></rect></svg><svg height="410px" width="0px" y="20px" x="0px" id="view_donut3dview_West_dispatcher"><rect style="stroke: black;stroke-opacity: 0; fill: #0000ff;fill-opacity :0" height="410" width="0" y="0" x="0" id="view_donut3dview_dispatcher"></rect></svg><svg height="410px" width="1140px" y="20px" x="0px" id="view_donut3dview_Device_dispatcher"><rect style="stroke: black;stroke-opacity: 0; fill: #0000ff;fill-opacity :0" height="410" width="1140" y="0" x="0" id="view_donut3dview_dispatcher"></rect></svg></g></svg>