<svg height="200" width="200" viewBox="0 0 200 200" id="view_view" version="1.1" xmlns:xlink="http://www.w3.org/1999/xlink" xmlns="http://www.w3.org/2000/svg"><g id="view_view_global_definitions"><pattern id="texture_carbon1" height="10" width="10" patternUnits="userSpaceOnUse"><rect fill="darkgray" stroke="none" height="10" width="10" y="0" x="0"></rect><polygon fill="black" stroke="none" points="5,0 5,10 0,5 "></polygon><polygon fill="black" stroke="none" points="5,0 10,0 10,5 "></polygon><polygon fill="black" stroke="none" points="10,5 10,10 5,10 "></polygon></pattern><linearGradient y2="0" x2="0" y1="-10" x1="0" id="texture_gradient8" gradientUnits="userSpaceOnUse"><stop stop-opacity="1" stop-color="black" offset="0%"></stop><stop stop-opacity="1" stop-color="darkgray" offset="100%"></stop></linearGradient><linearGradient y2="-2.5" x2="5" y1="-2.5" x1="-5" id="texture_gradient9" gradientUnits="userSpaceOnUse"><stop stop-opacity="1" stop-color="black" offset="0%"></stop><stop stop-opacity="1" stop-color="darkgray" offset="100%"></stop></linearGradient><linearGradient y2="5" x2="5" y1="-5" x1="5" id="texture_gradient10" gradientUnits="userSpaceOnUse"><stop stop-opacity="1" stop-color="black" offset="0%"></stop><stop stop-opacity="1" stop-color="darkgray" offset="100%"></stop></linearGradient><linearGradient y2="-1.25" x2="10" y1="-1.25" x1="0" id="texture_gradient11" gradientUnits="userSpaceOnUse"><stop stop-opacity="1" stop-color="black" offset="0%"></stop><stop stop-opacity="1" stop-color="darkgray" offset="100%"></stop></linearGradient><linearGradient y2="10" x2="10" y1="0" x1="10" id="texture_gradient12" gradientUnits="userSpaceOnUse"><stop stop-opacity="1" stop-color="black" offset="0%"></stop><stop stop-opacity="1" stop-color="darkgray" offset="100%"></stop></linearGradient><linearGradient y2="0" x2="15" y1="0" x1="5" id="texture_gradient13" gradientUnits="userSpaceOnUse"><stop stop-opacity="1" stop-color="black" offset="0%"></stop><stop stop-opacity="1" stop-color="darkgray" offset="100%"></stop></linearGradient><linearGradient y2="15" x2="15" y1="5" x1="15" id="texture_gradient14" gradientUnits="userSpaceOnUse"><stop stop-opacity="1" stop-color="black" offset="0%"></stop><stop stop-opacity="1" stop-color="darkgray" offset="100%"></stop></linearGradient><linearGradient y2="1.25" x2="20" y1="1.25" x1="10" id="texture_gradient15" gradientUnits="userSpaceOnUse"><stop stop-opacity="1" stop-color="black" offset="0%"></stop><stop stop-opacity="1" stop-color="darkgray" offset="100%"></stop></linearGradient><linearGradient y2="20" x2="20" y1="10" x1="20" id="texture_gradient16" gradientUnits="userSpaceOnUse"><stop stop-opacity="1" stop-color="black" offset="0%"></stop><stop stop-opacity="1" stop-color="darkgray" offset="100%"></stop></linearGradient><linearGradient y2="2.5" x2="25" y1="2.5" x1="15" id="texture_gradient17" gradientUnits="userSpaceOnUse"><stop stop-opacity="1" stop-color="black" offset="0%"></stop><stop stop-opacity="1" stop-color="darkgray" offset="100%"></stop></linearGradient><linearGradient y2="20" x2="0" y1="10" x1="0" id="texture_gradient18" gradientUnits="userSpaceOnUse"><stop stop-opacity="1" stop-color="black" offset="0%"></stop><stop stop-opacity="1" stop-color="darkgray" offset="100%"></stop></linearGradient><linearGradient y2="2.5" x2="5" y1="2.5" x1="-5" id="texture_gradient19" gradientUnits="userSpaceOnUse"><stop stop-opacity="1" stop-color="black" offset="0%"></stop><stop stop-opacity="1" stop-color="darkgray" offset="100%"></stop></linearGradient><linearGradient y2="25" x2="5" y1="15" x1="5" id="texture_gradient20" gradientUnits="userSpaceOnUse"><stop stop-opacity="1" stop-color="black" offset="0%"></stop><stop stop-opacity="1" stop-color="darkgray" offset="100%"></stop></linearGradient><linearGradient y2="3.75" x2="10" y1="3.75" x1="0" id="texture_gradient21" gradientUnits="userSpaceOnUse"><stop stop-opacity="1" stop-color="black" offset="0%"></stop><stop stop-opacity="1" stop-color="darkgray" offset="100%"></stop></linearGradient><linearGradient y2="30" x2="10" y1="20" x1="10" id="texture_gradient22" gradientUnits="userSpaceOnUse"><stop stop-opacity="1" stop-color="black" offset="0%"></stop><stop stop-opacity="1" stop-color="darkgray" offset="100%"></stop></linearGradient><linearGradient y2="5" x2="15" y1="5" x1="5" id="texture_gradient23" gradientUnits="userSpaceOnUse"><stop stop-opacity="1" stop-color="black" offset="0%"></stop><stop stop-opacity="1" stop-color="darkgray" offset="100%"></stop></linearGradient><linearGradient y2="35" x2="15" y1="25" x1="15" id="texture_gradient24" gradientUnits="userSpaceOnUse"><stop stop-opacity="1" stop-color="black" offset="0%"></stop><stop stop-opacity="1" stop-color="darkgray" offset="100%"></stop></linearGradient><linearGradient y2="6.25" x2="20" y1="6.25" x1="10" id="texture_gradient25" gradientUnits="userSpaceOnUse"><stop stop-opacity="1" stop-color="black" offset="0%"></stop><stop stop-opacity="1" stop-color="darkgray" offset="100%"></stop></linearGradient><linearGradient y2="40" x2="20" y1="30" x1="20" id="texture_gradient26" gradientUnits="userSpaceOnUse"><stop stop-opacity="1" stop-color="black" offset="0%"></stop><stop stop-opacity="1" stop-color="darkgray" offset="100%"></stop></linearGradient><linearGradient y2="7.5" x2="25" y1="7.5" x1="15" id="texture_gradient27" gradientUnits="userSpaceOnUse"><stop stop-opacity="1" stop-color="black" offset="0%"></stop><stop stop-opacity="1" stop-color="darkgray" offset="100%"></stop></linearGradient><pattern id="texture_carbon2" height="20" width="20" patternUnits="userSpaceOnUse"><rect fill="rgb(60,60,60)" stroke="none" height="20" width="20" y="0" x="0"></rect><rect fill="url(#texture_gradient8)" stroke="none" height="10" width="10" y="-10" x="-5"></rect><rect fill="url(#texture_gradient8)" stroke="none" height="5" width="10" y="-10" x="-5"></rect><rect fill="url(#texture_gradient10)" stroke="none" height="10" width="10" y="-5" x="0"></rect><rect fill="url(#texture_gradient10)" stroke="none" height="5" width="10" y="-5" x="0"></rect><rect fill="url(#texture_gradient12)" stroke="none" height="10" width="10" y="0" x="5"></rect><rect fill="url(#texture_gradient12)" stroke="none" height="5" width="10" y="0" x="5"></rect><rect fill="url(#texture_gradient14)" stroke="none" height="10" width="10" y="5" x="10"></rect><rect fill="url(#texture_gradient14)" stroke="none" height="5" width="10" y="5" x="10"></rect><rect fill="url(#texture_gradient16)" stroke="none" height="10" width="10" y="10" x="15"></rect><rect fill="url(#texture_gradient16)" stroke="none" height="5" width="10" y="10" x="15"></rect><rect fill="url(#texture_gradient18)" stroke="none" height="10" width="10" y="10" x="-5"></rect><rect fill="url(#texture_gradient18)" stroke="none" height="5" width="10" y="10" x="-5"></rect><rect fill="url(#texture_gradient20)" stroke="none" height="10" width="10" y="15" x="0"></rect><rect fill="url(#texture_gradient20)" stroke="none" height="5" width="10" y="15" x="0"></rect><rect fill="url(#texture_gradient22)" stroke="none" height="10" width="10" y="20" x="5"></rect><rect fill="url(#texture_gradient22)" stroke="none" height="5" width="10" y="20" x="5"></rect><rect fill="url(#texture_gradient24)" stroke="none" height="10" width="10" y="25" x="10"></rect><rect fill="url(#texture_gradient24)" stroke="none" height="5" width="10" y="25" x="10"></rect><rect fill="url(#texture_gradient26)" stroke="none" height="10" width="10" y="30" x="15"></rect><rect fill="url(#texture_gradient26)" stroke="none" height="5" width="10" y="30" x="15"></rect></pattern></g><g id="view_view_background"></g><g id="view_view_projections"><svg viewBox="0 0 500 500" version="1.1" xmlns:xlink="http://www.w3.org/1999/xlink" xmlns="http://www.w3.org/2000/svg" id="proj_32"><defs id="proj_32_definitions"></defs><g id="proj_32_parts" xmlns="http://www.w3.org/2000/svg"><svg height="20" width="500" y="480" x="0" id="proj_32_South"><g id="proj_32_South_plugins"><g transform="translate(0,0) scale(1,1)" id="proj_32_South_plugin_Donut3DPlugin_34"><defs id="proj_32_South_plugin_Donut3DPlugin_34_definition"></defs><g id="proj_32_South_plugin_Donut3DPlugin_34_graphics"></g></g></g></svg><svg height="20" width="500" y="0" x="0" id="proj_32_North"><g id="proj_32_North_plugins"><g transform="translate(0,0) scale(1,1)" id="proj_32_North_plugin_Donut3DPlugin_34"><defs id="proj_32_North_plugin_Donut3DPlugin_34_definition"></defs><g id="proj_32_North_plugin_Donut3DPlugin_34_graphics"></g></g></g></svg><svg height="460" width="0" y="20" x="500" id="proj_32_East"><g id="proj_32_East_plugins"><g transform="translate(0,0) scale(1,1)" id="proj_32_East_plugin_Donut3DPlugin_34"><defs id="proj_32_East_plugin_Donut3DPlugin_34_definition"></defs><g id="proj_32_East_plugin_Donut3DPlugin_34_graphics"></g></g></g></svg><svg height="460" width="0" y="20" x="0" id="proj_32_West"><g id="proj_32_West_plugins"><g transform="translate(0,0) scale(1,1)" id="proj_32_West_plugin_Donut3DPlugin_34"><defs id="proj_32_West_plugin_Donut3DPlugin_34_definition"></defs><g id="proj_32_West_plugin_Donut3DPlugin_34_graphics"></g></g></g></svg><svg height="460" width="500" y="20" x="0" id="proj_32_Device"><g id="proj_32_Device_plugins"><g transform="translate(0,0) scale(1,1)" id="proj_32_Device_plugin_Donut3DPlugin_34"><defs id="proj_32_Device_plugin_Donut3DPlugin_34_definition"><clipPath id="clip2622"><path d="M407.5692404819533,217.65168514368494 A160,71.11111111111111 0 0,0 90,230 L 155,230 A95,42.22222222222222 0 0,1 343.55673653615975,222.66818805406294 ZM90,230 A160,71.11111111111111 0 0,0 100.21891829518017,255.00618220186573 L 161.0674827377632,244.84742068235778 A95,42.22222222222222 0 0,1 155,230 ZM100.21891829518017,255.00618220186573 A160,71.11111111111111 0 0,0 130.65816939816904,277.3652004748267 L 179.14078808016288,258.12308778192835 A95,42.22222222222222 0 0,1 161.0674827377632,244.84742068235778 ZM135.40610177457592,285.0818765090463 A160,71.11111111111111 0 0,0 411.7135064590873,251.5002486714513 L 347.94624198799835,245.90067228757593 A95,42.22222222222222 0 0,1 183.88872045656973,265.839763816148 ZM406.9655740826804,243.78357263723166 A160,71.11111111111111 0 0,0 410,230.00000000000003 L 345,230 A95,42.22222222222222 0 0,1 343.19830961159147,238.1839962533563 ZM410,230 A160,71.11111111111111 0 0,0 407.5692404819533,217.6516851436849 L 343.55673653615975,222.6681880540629 A95,42.22222222222222 0 0,1 345,230 Z"></path></clipPath><linearGradient y2="308.8277871453307" x2="254.74793237640682" y1="158.88888888888889" x1="250" id="gradient2623" gradientUnits="userSpaceOnUse"><stop stop-opacity="0.5" stop-color="rgb(40, 40, 40)" offset="0%"></stop><stop stop-opacity="0" stop-color="rgb(40, 40, 40)" offset="45%"></stop><stop stop-opacity="0" stop-color="rgb(255, 255, 255)" offset="55%"></stop><stop stop-opacity="0.8" stop-color="rgb(255, 255, 255)" offset="100%"></stop></linearGradient><linearGradient y2="230" x2="410" y1="230" x1="90" id="gradient2624" gradientUnits="userSpaceOnUse"><stop stop-opacity="0.3" stop-color="rgb(40, 40, 40)" offset="0%"></stop><stop stop-opacity="0.05" stop-color="rgb(40, 40, 40)" offset="40%"></stop><stop stop-opacity="0.05" stop-color="rgb(255, 255, 255)" offset="80%"></stop><stop stop-opacity="0.5" stop-color="rgb(255, 255, 255)" offset="100%"></stop></linearGradient><clipPath id="clip2625"><ellipse ry="42.22222222222222" rx="95" cy="230" cx="250"></ellipse></clipPath><linearGradient y2="230" x2="155" y1="230" x1="345" id="gradient2626" gradientUnits="userSpaceOnUse"><stop stop-opacity="0.2" stop-color="rgb(40, 40, 40)" offset="0%"></stop><stop stop-opacity="0.3" stop-color="rgb(40, 40, 40)" offset="40%"></stop><stop stop-opacity="0" stop-color="rgb(240, 240, 240)" offset="80%"></stop><stop stop-opacity="0.6" stop-color="rgb(240, 240, 240)" offset="100%"></stop></linearGradient><linearGradient y2="308.8277871453307" x2="254.74793237640682" y1="158.88888888888889" x1="250" id="gradient2627" gradientUnits="userSpaceOnUse"><stop stop-opacity="0.5" stop-color="rgb(40, 40, 40)" offset="0%"></stop><stop stop-opacity="0" stop-color="rgb(40, 40, 40)" offset="45%"></stop><stop stop-opacity="0" stop-color="rgb(255, 255, 255)" offset="55%"></stop><stop stop-opacity="0.8" stop-color="rgb(255, 255, 255)" offset="100%"></stop></linearGradient><linearGradient y2="230" x2="410" y1="230" x1="90" id="gradient2628" gradientUnits="userSpaceOnUse"><stop stop-opacity="0.3" stop-color="rgb(40, 40, 40)" offset="0%"></stop><stop stop-opacity="0.05" stop-color="rgb(40, 40, 40)" offset="40%"></stop><stop stop-opacity="0.05" stop-color="rgb(255, 255, 255)" offset="80%"></stop><stop stop-opacity="0.5" stop-color="rgb(255, 255, 255)" offset="100%"></stop></linearGradient><clipPath id="clip2629"><ellipse ry="42.22222222222222" rx="95" cy="230" cx="250"></ellipse></clipPath><linearGradient y2="230" x2="155" y1="230" x1="345" id="gradient2630" gradientUnits="userSpaceOnUse"><stop stop-opacity="0.2" stop-color="rgb(40, 40, 40)" offset="0%"></stop><stop stop-opacity="0.3" stop-color="rgb(40, 40, 40)" offset="40%"></stop><stop stop-opacity="0" stop-color="rgb(240, 240, 240)" offset="80%"></stop><stop stop-opacity="0.6" stop-color="rgb(240, 240, 240)" offset="100%"></stop></linearGradient><linearGradient y2="308.8277871453307" x2="254.74793237640682" y1="158.88888888888889" x1="250" id="gradient2631" gradientUnits="userSpaceOnUse"><stop stop-opacity="0.5" stop-color="rgb(40, 40, 40)" offset="0%"></stop><stop stop-opacity="0" stop-color="rgb(40, 40, 40)" offset="45%"></stop><stop stop-opacity="0" stop-color="rgb(255, 255, 255)" offset="55%"></stop><stop stop-opacity="0.8" stop-color="rgb(255, 255, 255)" offset="100%"></stop></linearGradient><linearGradient y2="230" x2="410" y1="230" x1="90" id="gradient2632" gradientUnits="userSpaceOnUse"><stop stop-opacity="0.3" stop-color="rgb(40, 40, 40)" offset="0%"></stop><stop stop-opacity="0.05" stop-color="rgb(40, 40, 40)" offset="40%"></stop><stop stop-opacity="0.05" stop-color="rgb(255, 255, 255)" offset="80%"></stop><stop stop-opacity="0.5" stop-color="rgb(255, 255, 255)" offset="100%"></stop></linearGradient><clipPath id="clip2633"><ellipse ry="42.22222222222222" rx="95" cy="230" cx="250"></ellipse></clipPath><linearGradient y2="230" x2="155" y1="230" x1="345" id="gradient2634" gradientUnits="userSpaceOnUse"><stop stop-opacity="0.2" stop-color="rgb(40, 40, 40)" offset="0%"></stop><stop stop-opacity="0.3" stop-color="rgb(40, 40, 40)" offset="40%"></stop><stop stop-opacity="0" stop-color="rgb(240, 240, 240)" offset="80%"></stop><stop stop-opacity="0.6" stop-color="rgb(240, 240, 240)" offset="100%"></stop></linearGradient><clipPath id="clip2635"><path d="M407.5692404819533,217.65168514368494 A160,71.11111111111111 0 0,0 90,230 L 155,230 A95,42.22222222222222 0 0,1 343.55673653615975,222.66818805406294 ZM90,230 A160,71.11111111111111 0 0,0 100.21891829518017,255.00618220186573 L 161.0674827377632,244.84742068235778 A95,42.22222222222222 0 0,1 155,230 ZM100.21891829518017,255.00618220186573 A160,71.11111111111111 0 0,0 130.65816939816904,277.3652004748267 L 179.14078808016288,258.12308778192835 A95,42.22222222222222 0 0,1 161.0674827377632,244.84742068235778 ZM135.40610177457592,285.0818765090463 A160,71.11111111111111 0 0,0 411.7135064590873,251.5002486714513 L 347.94624198799835,245.90067228757593 A95,42.22222222222222 0 0,1 183.88872045656973,265.839763816148 ZM406.9655740826804,243.78357263723166 A160,71.11111111111111 0 0,0 410,230.00000000000003 L 345,230 A95,42.22222222222222 0 0,1 343.19830961159147,238.1839962533563 ZM410,230 A160,71.11111111111111 0 0,0 407.5692404819533,217.6516851436849 L 343.55673653615975,222.6681880540629 A95,42.22222222222222 0 0,1 345,230 Z"></path></clipPath><linearGradient y2="308.8277871453307" x2="254.74793237640682" y1="158.88888888888889" x1="250" id="gradient2636" gradientUnits="userSpaceOnUse"><stop stop-opacity="0.5" stop-color="rgb(40, 40, 40)" offset="0%"></stop><stop stop-opacity="0" stop-color="rgb(40, 40, 40)" offset="45%"></stop><stop stop-opacity="0" stop-color="rgb(255, 255, 255)" offset="55%"></stop><stop stop-opacity="0.8" stop-color="rgb(255, 255, 255)" offset="100%"></stop></linearGradient><linearGradient y2="230" x2="410" y1="230" x1="90" id="gradient2637" gradientUnits="userSpaceOnUse"><stop stop-opacity="0.3" stop-color="rgb(40, 40, 40)" offset="0%"></stop><stop stop-opacity="0.05" stop-color="rgb(40, 40, 40)" offset="40%"></stop><stop stop-opacity="0.05" stop-color="rgb(255, 255, 255)" offset="80%"></stop><stop stop-opacity="0.5" stop-color="rgb(255, 255, 255)" offset="100%"></stop></linearGradient><clipPath id="clip2638"><ellipse ry="42.22222222222222" rx="95" cy="230" cx="250"></ellipse></clipPath><linearGradient y2="230" x2="155" y1="230" x1="345" id="gradient2639" gradientUnits="userSpaceOnUse"><stop stop-opacity="0.2" stop-color="rgb(40, 40, 40)" offset="0%"></stop><stop stop-opacity="0.3" stop-color="rgb(40, 40, 40)" offset="40%"></stop><stop stop-opacity="0" stop-color="rgb(240, 240, 240)" offset="80%"></stop><stop stop-opacity="0.6" stop-color="rgb(240, 240, 240)" offset="100%"></stop></linearGradient><linearGradient y2="308.8277871453307" x2="254.74793237640682" y1="158.88888888888889" x1="250" id="gradient2640" gradientUnits="userSpaceOnUse"><stop stop-opacity="0.5" stop-color="rgb(40, 40, 40)" offset="0%"></stop><stop stop-opacity="0" stop-color="rgb(40, 40, 40)" offset="45%"></stop><stop stop-opacity="0" stop-color="rgb(255, 255, 255)" offset="55%"></stop><stop stop-opacity="0.8" stop-color="rgb(255, 255, 255)" offset="100%"></stop></linearGradient><linearGradient y2="230" x2="410" y1="230" x1="90" id="gradient2641" gradientUnits="userSpaceOnUse"><stop stop-opacity="0.3" stop-color="rgb(40, 40, 40)" offset="0%"></stop><stop stop-opacity="0.05" stop-color="rgb(40, 40, 40)" offset="40%"></stop><stop stop-opacity="0.05" stop-color="rgb(255, 255, 255)" offset="80%"></stop><stop stop-opacity="0.5" stop-color="rgb(255, 255, 255)" offset="100%"></stop></linearGradient><clipPath id="clip2642"><ellipse ry="42.22222222222222" rx="95" cy="230" cx="250"></ellipse></clipPath><linearGradient y2="230" x2="155" y1="230" x1="345" id="gradient2643" gradientUnits="userSpaceOnUse"><stop stop-opacity="0.2" stop-color="rgb(40, 40, 40)" offset="0%"></stop><stop stop-opacity="0.3" stop-color="rgb(40, 40, 40)" offset="40%"></stop><stop stop-opacity="0" stop-color="rgb(240, 240, 240)" offset="80%"></stop><stop stop-opacity="0.6" stop-color="rgb(240, 240, 240)" offset="100%"></stop></linearGradient><linearGradient y2="308.8277871453307" x2="254.74793237640682" y1="158.88888888888889" x1="250" id="gradient2644" gradientUnits="userSpaceOnUse"><stop stop-opacity="0.5" stop-color="rgb(40, 40, 40)" offset="0%"></stop><stop stop-opacity="0" stop-color="rgb(40, 40, 40)" offset="45%"></stop><stop stop-opacity="0" stop-color="rgb(255, 255, 255)" offset="55%"></stop><stop stop-opacity="0.8" stop-color="rgb(255, 255, 255)" offset="100%"></stop></linearGradient><linearGradient y2="230" x2="410" y1="230" x1="90" id="gradient2645" gradientUnits="userSpaceOnUse"><stop stop-opacity="0.3" stop-color="rgb(40, 40, 40)" offset="0%"></stop><stop stop-opacity="0.05" stop-color="rgb(40, 40, 40)" offset="40%"></stop><stop stop-opacity="0.05" stop-color="rgb(255, 255, 255)" offset="80%"></stop><stop stop-opacity="0.5" stop-color="rgb(255, 255, 255)" offset="100%"></stop></linearGradient><clipPath id="clip2646"><ellipse ry="42.22222222222222" rx="95" cy="230" cx="250"></ellipse></clipPath><linearGradient y2="230" x2="155" y1="230" x1="345" id="gradient2647" gradientUnits="userSpaceOnUse"><stop stop-opacity="0.2" stop-color="rgb(40, 40, 40)" offset="0%"></stop><stop stop-opacity="0.3" stop-color="rgb(40, 40, 40)" offset="40%"></stop><stop stop-opacity="0" stop-color="rgb(240, 240, 240)" offset="80%"></stop><stop stop-opacity="0.6" stop-color="rgb(240, 240, 240)" offset="100%"></stop></linearGradient></defs><g id="proj_32_Device_plugin_Donut3DPlugin_34_graphics"><g id="donut3d35"><path fill="rgb(250, 250, 250)" opacity="0.7" d="M 407.5692404819533,217.65168514368494 A 160,71.11111111111111 0 0,0 90,230 L 90,247.22222222222223 A 160,71.11111111111111 0 0,1 407.5692404819533,234.87390736590717 Z"></path><path fill="rgb(250, 250, 250)" opacity="0.7" d="M407.5692404819533,234.87390736590717 A160,71.11111111111111 0 0,0 90,247.22222222222223 L 155,247.22222222222223 A95,42.22222222222222 0 0,1 343.55673653615975,239.89041027628517 Z"></path><path fill="rgb(250, 250, 250)" opacity="0.7" d="M 343.55673653615975,222.66818805406294 A 95,42.22222222222222 0 0,0 155,230 L 155,247.22222222222223 A 95,42.22222222222222 0 0,1 343.55673653615975,239.89041027628517 Z"></path><path fill="rgb(250, 250, 250)" opacity="0.7" d="M 407.5692404819533,217.65168514368494 L 343.55673653615975,222.66818805406294 L 343.55673653615975,239.89041027628517 L 407.5692404819533,234.87390736590717 Z"></path><path fill="rgb(250, 250, 250)" opacity="0.7" d="M407.5692404819533,217.65168514368494 A160,71.11111111111111 0 0,0 90,230 L 155,230 A95,42.22222222222222 0 0,1 343.55673653615975,222.66818805406294 Z"></path><path fill="url(#gradient2623)" opacity="0.8" d="M407.5692404819533,217.65168514368494 A160,71.11111111111111 0 0,0 90,230 L 155,230 A95,42.22222222222222 0 0,1 343.55673653615975,222.66818805406294 Z"></path><path opacity="1" fill="url(#gradient2624)" d=" M 90,230 A 160,71.11111111111111 0 0,0 100.21891829518017,255.00618220186573 L 100.21891829518017,272.22840442408796 A 160,71.11111111111111 0 0,1 90,247.22222222222223 Z M 100.21891829518017,255.00618220186573 A 160,71.11111111111111 0 0,0 130.65816939816904,277.3652004748267 L 130.65816939816904,294.5874226970489 A 160,71.11111111111111 0 0,1 100.21891829518017,272.22840442408796 Z M 135.40610177457592,285.0818765090463 A 160,71.11111111111111 0 0,0 411.7135064590873,251.5002486714513 L 411.7135064590873,268.7224708936735 A 160,71.11111111111111 0 0,1 135.40610177457592,302.30409873126854 Z M 406.9655740826804,243.78357263723166 A 160,71.11111111111111 0 0,0 410,230.00000000000003 L 410,247.22222222222226 A 160,71.11111111111111 0 0,1 406.9655740826804,261.0057948594539 Z"></path><path opacity="1" fill="url(#gradient2626)" clip-path="url(#clip2625)" d=" M 343.55673653615975,222.66818805406294 A 95,42.22222222222222 0 0,0 155,230 L 155,247.22222222222223 A 95,42.22222222222222 0 0,1 343.55673653615975,239.89041027628517 Z M 345,230 A 95,42.22222222222222 0 0,0 343.55673653615975,222.6681880540629 L 343.55673653615975,239.89041027628514 A 95,42.22222222222222 0 0,1 345,247.22222222222223 Z"></path><path fill="rgb(250, 250, 250)" opacity="0.7" d="M 155,230 A 95,42.22222222222222 0 0,0 161.0674827377632,244.84742068235778 L 161.0674827377632,262.06964290458 A 95,42.22222222222222 0 0,1 155,247.22222222222223 Z"></path><path fill="rgb(250, 250, 250)" opacity="0.7" d="M90,247.22222222222223 A160,71.11111111111111 0 0,0 100.21891829518017,272.22840442408796 L 161.0674827377632,262.06964290458 A95,42.22222222222222 0 0,1 155,247.22222222222223 Z"></path><path fill="rgb(250, 250, 250)" opacity="0.7" d="M 100.21891829518017,255.00618220186573 L 161.0674827377632,244.84742068235778 L 161.0674827377632,262.06964290458 L 100.21891829518017,272.22840442408796 Z"></path><path fill="rgb(250, 250, 250)" opacity="0.7" d="M 90,230 A 160,71.11111111111111 0 0,0 100.21891829518017,255.00618220186573 L 100.21891829518017,272.22840442408796 A 160,71.11111111111111 0 0,1 90,247.22222222222223 Z"></path><path fill="rgb(250, 250, 250)" opacity="0.7" d="M90,230 A160,71.11111111111111 0 0,0 100.21891829518017,255.00618220186573 L 161.0674827377632,244.84742068235778 A95,42.22222222222222 0 0,1 155,230 Z"></path><path fill="url(#gradient2627)" opacity="0.8" d="M90,230 A160,71.11111111111111 0 0,0 100.21891829518017,255.00618220186573 L 161.0674827377632,244.84742068235778 A95,42.22222222222222 0 0,1 155,230 Z"></path><path opacity="1" fill="url(#gradient2628)" d=" M 90,230 A 160,71.11111111111111 0 0,0 100.21891829518017,255.00618220186573 L 100.21891829518017,272.22840442408796 A 160,71.11111111111111 0 0,1 90,247.22222222222223 Z M 100.21891829518017,255.00618220186573 A 160,71.11111111111111 0 0,0 130.65816939816904,277.3652004748267 L 130.65816939816904,294.5874226970489 A 160,71.11111111111111 0 0,1 100.21891829518017,272.22840442408796 Z M 135.40610177457592,285.0818765090463 A 160,71.11111111111111 0 0,0 411.7135064590873,251.5002486714513 L 411.7135064590873,268.7224708936735 A 160,71.11111111111111 0 0,1 135.40610177457592,302.30409873126854 Z M 406.9655740826804,243.78357263723166 A 160,71.11111111111111 0 0,0 410,230.00000000000003 L 410,247.22222222222226 A 160,71.11111111111111 0 0,1 406.9655740826804,261.0057948594539 Z"></path><path opacity="1" fill="url(#gradient2630)" clip-path="url(#clip2629)" d=" M 343.55673653615975,222.66818805406294 A 95,42.22222222222222 0 0,0 155,230 L 155,247.22222222222223 A 95,42.22222222222222 0 0,1 343.55673653615975,239.89041027628517 Z M 345,230 A 95,42.22222222222222 0 0,0 343.55673653615975,222.6681880540629 L 343.55673653615975,239.89041027628514 A 95,42.22222222222222 0 0,1 345,247.22222222222223 Z"></path><path fill="rgb(244, 145, 26)" opacity="0.7" d="M 161.0674827377632,244.84742068235778 A 95,42.22222222222222 0 0,0 179.14078808016288,258.12308778192835 L 179.14078808016288,275.3453100041506 A 95,42.22222222222222 0 0,1 161.0674827377632,262.06964290458 Z"></path><path fill="rgb(244, 145, 26)" opacity="0.7" d="M100.21891829518017,272.22840442408796 A160,71.11111111111111 0 0,0 130.65816939816904,294.5874226970489 L 179.14078808016288,275.3453100041506 A95,42.22222222222222 0 0,1 161.0674827377632,262.06964290458 Z"></path><path fill="rgb(244, 145, 26)" opacity="0.7" d="M 100.21891829518017,255.00618220186573 L 161.0674827377632,244.84742068235778 L 161.0674827377632,262.06964290458 L 100.21891829518017,272.22840442408796 Z"></path><path fill="rgb(244, 145, 26)" opacity="0.7" d="M 130.65816939816904,277.3652004748267 L 179.14078808016288,258.12308778192835 L 179.14078808016288,275.3453100041506 L 130.65816939816904,294.5874226970489 Z"></path><path fill="rgb(244, 145, 26)" opacity="0.7" d="M 100.21891829518017,255.00618220186573 A 160,71.11111111111111 0 0,0 130.65816939816904,277.3652004748267 L 130.65816939816904,294.5874226970489 A 160,71.11111111111111 0 0,1 100.21891829518017,272.22840442408796 Z"></path><path fill="rgb(244, 145, 26)" opacity="0.7" d="M100.21891829518017,255.00618220186573 A160,71.11111111111111 0 0,0 130.65816939816904,277.3652004748267 L 179.14078808016288,258.12308778192835 A95,42.22222222222222 0 0,1 161.0674827377632,244.84742068235778 Z"></path><path fill="url(#gradient2631)" opacity="0.8" d="M100.21891829518017,255.00618220186573 A160,71.11111111111111 0 0,0 130.65816939816904,277.3652004748267 L 179.14078808016288,258.12308778192835 A95,42.22222222222222 0 0,1 161.0674827377632,244.84742068235778 Z"></path><path opacity="1" fill="url(#gradient2632)" d=" M 90,230 A 160,71.11111111111111 0 0,0 100.21891829518017,255.00618220186573 L 100.21891829518017,272.22840442408796 A 160,71.11111111111111 0 0,1 90,247.22222222222223 Z M 100.21891829518017,255.00618220186573 A 160,71.11111111111111 0 0,0 130.65816939816904,277.3652004748267 L 130.65816939816904,294.5874226970489 A 160,71.11111111111111 0 0,1 100.21891829518017,272.22840442408796 Z M 135.40610177457592,285.0818765090463 A 160,71.11111111111111 0 0,0 411.7135064590873,251.5002486714513 L 411.7135064590873,268.7224708936735 A 160,71.11111111111111 0 0,1 135.40610177457592,302.30409873126854 Z M 406.9655740826804,243.78357263723166 A 160,71.11111111111111 0 0,0 410,230.00000000000003 L 410,247.22222222222226 A 160,71.11111111111111 0 0,1 406.9655740826804,261.0057948594539 Z"></path><path opacity="1" fill="url(#gradient2634)" clip-path="url(#clip2633)" d=" M 343.55673653615975,222.66818805406294 A 95,42.22222222222222 0 0,0 155,230 L 155,247.22222222222223 A 95,42.22222222222222 0 0,1 343.55673653615975,239.89041027628517 Z M 345,230 A 95,42.22222222222222 0 0,0 343.55673653615975,222.6681880540629 L 343.55673653615975,239.89041027628514 A 95,42.22222222222222 0 0,1 345,247.22222222222223 Z"></path><path fill="rgb(208, 58, 47)" opacity="0.7" d="M 410,230 A 160,71.11111111111111 0 0,0 407.5692404819533,217.6516851436849 L 407.5692404819533,234.87390736590712 A 160,71.11111111111111 0 0,1 410,247.22222222222223 Z"></path><path fill="rgb(208, 58, 47)" opacity="0.7" d="M410,247.22222222222223 A160,71.11111111111111 0 0,0 407.5692404819533,234.87390736590712 L 343.55673653615975,239.89041027628514 A95,42.22222222222222 0 0,1 345,247.22222222222223 Z"></path><path fill="rgb(208, 58, 47)" opacity="0.7" d="M 345,230 A 95,42.22222222222222 0 0,0 343.55673653615975,222.6681880540629 L 343.55673653615975,239.89041027628514 A 95,42.22222222222222 0 0,1 345,247.22222222222223 Z"></path><path fill="rgb(208, 58, 47)" opacity="0.7" d="M 407.5692404819533,217.6516851436849 L 343.55673653615975,222.6681880540629 L 343.55673653615975,239.89041027628514 L 407.5692404819533,234.87390736590712 Z"></path><path fill="rgb(208, 58, 47)" opacity="0.7" d="M410,230 A160,71.11111111111111 0 0,0 407.5692404819533,217.6516851436849 L 343.55673653615975,222.6681880540629 A95,42.22222222222222 0 0,1 345,230 Z"></path><path fill="url(#gradient2636)" opacity="0.8" d="M410,230 A160,71.11111111111111 0 0,0 407.5692404819533,217.6516851436849 L 343.55673653615975,222.6681880540629 A95,42.22222222222222 0 0,1 345,230 Z"></path><path opacity="1" fill="url(#gradient2637)" d=" M 90,230 A 160,71.11111111111111 0 0,0 100.21891829518017,255.00618220186573 L 100.21891829518017,272.22840442408796 A 160,71.11111111111111 0 0,1 90,247.22222222222223 Z M 100.21891829518017,255.00618220186573 A 160,71.11111111111111 0 0,0 130.65816939816904,277.3652004748267 L 130.65816939816904,294.5874226970489 A 160,71.11111111111111 0 0,1 100.21891829518017,272.22840442408796 Z M 135.40610177457592,285.0818765090463 A 160,71.11111111111111 0 0,0 411.7135064590873,251.5002486714513 L 411.7135064590873,268.7224708936735 A 160,71.11111111111111 0 0,1 135.40610177457592,302.30409873126854 Z M 406.9655740826804,243.78357263723166 A 160,71.11111111111111 0 0,0 410,230.00000000000003 L 410,247.22222222222226 A 160,71.11111111111111 0 0,1 406.9655740826804,261.0057948594539 Z"></path><path opacity="1" fill="url(#gradient2639)" clip-path="url(#clip2638)" d=" M 343.55673653615975,222.66818805406294 A 95,42.22222222222222 0 0,0 155,230 L 155,247.22222222222223 A 95,42.22222222222222 0 0,1 343.55673653615975,239.89041027628517 Z M 345,230 A 95,42.22222222222222 0 0,0 343.55673653615975,222.6681880540629 L 343.55673653615975,239.89041027628514 A 95,42.22222222222222 0 0,1 345,247.22222222222223 Z"></path><path fill="rgb(208, 58, 47)" opacity="0.7" d="M 343.19830961159147,238.1839962533563 A 95,42.22222222222222 0 0,0 345,230 L 345,247.22222222222223 A 95,42.22222222222222 0 0,1 343.19830961159147,255.40621847557853 Z"></path><path fill="rgb(208, 58, 47)" opacity="0.7" d="M406.9655740826804,261.0057948594539 A160,71.11111111111111 0 0,0 410,247.22222222222226 L 345,247.22222222222223 A95,42.22222222222222 0 0,1 343.19830961159147,255.40621847557853 Z"></path><path fill="rgb(208, 58, 47)" opacity="0.7" d="M 406.9655740826804,243.78357263723166 L 343.19830961159147,238.1839962533563 L 343.19830961159147,255.40621847557853 L 406.9655740826804,261.0057948594539 Z"></path><path fill="rgb(208, 58, 47)" opacity="0.7" d="M 406.9655740826804,243.78357263723166 A 160,71.11111111111111 0 0,0 410,230.00000000000003 L 410,247.22222222222226 A 160,71.11111111111111 0 0,1 406.9655740826804,261.0057948594539 Z"></path><path fill="rgb(208, 58, 47)" opacity="0.7" d="M406.9655740826804,243.78357263723166 A160,71.11111111111111 0 0,0 410,230.00000000000003 L 345,230 A95,42.22222222222222 0 0,1 343.19830961159147,238.1839962533563 Z"></path><path fill="url(#gradient2640)" opacity="0.8" d="M406.9655740826804,243.78357263723166 A160,71.11111111111111 0 0,0 410,230.00000000000003 L 345,230 A95,42.22222222222222 0 0,1 343.19830961159147,238.1839962533563 Z"></path><path opacity="1" fill="url(#gradient2641)" d=" M 90,230 A 160,71.11111111111111 0 0,0 100.21891829518017,255.00618220186573 L 100.21891829518017,272.22840442408796 A 160,71.11111111111111 0 0,1 90,247.22222222222223 Z M 100.21891829518017,255.00618220186573 A 160,71.11111111111111 0 0,0 130.65816939816904,277.3652004748267 L 130.65816939816904,294.5874226970489 A 160,71.11111111111111 0 0,1 100.21891829518017,272.22840442408796 Z M 135.40610177457592,285.0818765090463 A 160,71.11111111111111 0 0,0 411.7135064590873,251.5002486714513 L 411.7135064590873,268.7224708936735 A 160,71.11111111111111 0 0,1 135.40610177457592,302.30409873126854 Z M 406.9655740826804,243.78357263723166 A 160,71.11111111111111 0 0,0 410,230.00000000000003 L 410,247.22222222222226 A 160,71.11111111111111 0 0,1 406.9655740826804,261.0057948594539 Z"></path><path opacity="1" fill="url(#gradient2643)" clip-path="url(#clip2642)" d=" M 343.55673653615975,222.66818805406294 A 95,42.22222222222222 0 0,0 155,230 L 155,247.22222222222223 A 95,42.22222222222222 0 0,1 343.55673653615975,239.89041027628517 Z M 345,230 A 95,42.22222222222222 0 0,0 343.55673653615975,222.6681880540629 L 343.55673653615975,239.89041027628514 A 95,42.22222222222222 0 0,1 345,247.22222222222223 Z"></path><path fill="rgb(78, 148, 44)" opacity="0.7" d="M 183.88872045656973,265.839763816148 A 95,42.22222222222222 0 0,0 347.94624198799835,245.90067228757593 L 347.94624198799835,263.12289450979813 A 95,42.22222222222222 0 0,1 183.88872045656973,283.0619860383702 Z"></path><path fill="rgb(78, 148, 44)" opacity="0.7" d="M135.40610177457592,302.30409873126854 A160,71.11111111111111 0 0,0 411.7135064590873,268.7224708936735 L 347.94624198799835,263.12289450979813 A95,42.22222222222222 0 0,1 183.88872045656973,283.0619860383702 Z"></path><path fill="rgb(78, 148, 44)" opacity="0.7" d="M 135.40610177457592,285.0818765090463 L 183.88872045656973,265.839763816148 L 183.88872045656973,283.0619860383702 L 135.40610177457592,302.30409873126854 Z"></path><path fill="rgb(78, 148, 44)" opacity="0.7" d="M 411.7135064590873,251.5002486714513 L 347.94624198799835,245.90067228757593 L 347.94624198799835,263.12289450979813 L 411.7135064590873,268.7224708936735 Z"></path><path fill="rgb(78, 148, 44)" opacity="0.7" d="M 135.40610177457592,285.0818765090463 A 160,71.11111111111111 0 0,0 411.7135064590873,251.5002486714513 L 411.7135064590873,268.7224708936735 A 160,71.11111111111111 0 0,1 135.40610177457592,302.30409873126854 Z"></path><path fill="rgb(78, 148, 44)" opacity="0.7" d="M135.40610177457592,285.0818765090463 A160,71.11111111111111 0 0,0 411.7135064590873,251.5002486714513 L 347.94624198799835,245.90067228757593 A95,42.22222222222222 0 0,1 183.88872045656973,265.839763816148 Z"></path><path fill="url(#gradient2644)" opacity="0.8" d="M135.40610177457592,285.0818765090463 A160,71.11111111111111 0 0,0 411.7135064590873,251.5002486714513 L 347.94624198799835,245.90067228757593 A95,42.22222222222222 0 0,1 183.88872045656973,265.839763816148 Z"></path><path opacity="1" fill="url(#gradient2645)" d=" M 90,230 A 160,71.11111111111111 0 0,0 100.21891829518017,255.00618220186573 L 100.21891829518017,272.22840442408796 A 160,71.11111111111111 0 0,1 90,247.22222222222223 Z M 100.21891829518017,255.00618220186573 A 160,71.11111111111111 0 0,0 130.65816939816904,277.3652004748267 L 130.65816939816904,294.5874226970489 A 160,71.11111111111111 0 0,1 100.21891829518017,272.22840442408796 Z M 135.40610177457592,285.0818765090463 A 160,71.11111111111111 0 0,0 411.7135064590873,251.5002486714513 L 411.7135064590873,268.7224708936735 A 160,71.11111111111111 0 0,1 135.40610177457592,302.30409873126854 Z M 406.9655740826804,243.78357263723166 A 160,71.11111111111111 0 0,0 410,230.00000000000003 L 410,247.22222222222226 A 160,71.11111111111111 0 0,1 406.9655740826804,261.0057948594539 Z"></path><path opacity="1" fill="url(#gradient2647)" clip-path="url(#clip2646)" d=" M 343.55673653615975,222.66818805406294 A 95,42.22222222222222 0 0,0 155,230 L 155,247.22222222222223 A 95,42.22222222222222 0 0,1 343.55673653615975,239.89041027628517 Z M 345,230 A 95,42.22222222222222 0 0,0 343.55673653615975,222.6681880540629 L 343.55673653615975,239.89041027628514 A 95,42.22222222222222 0 0,1 345,247.22222222222223 Z"></path></g><g opacity="1" id="label372"><rect stroke-width="2" fill-opacity="1" fill="black" stroke="rgb(180,180,180)" ry="8" rx="8" height="18.5" width="72.01666641235352" y="118.96978759765625" x="13.483333587646484"></rect><text text-anchor="end" fill="hsl(0, 0%, 100%)" font-size="12" y="132.4697890119462" x="75">JenScript</text><path stroke="darkgray" fill="none" d="M 207.79615665416128,161.40732414026985 Q 199.88293602681654,132.4697890119462 85,132.4697890119462"></path></g><g opacity="1" id="label472"><rect stroke-width="2" fill-opacity="1" fill="black" stroke="rgb(244, 145, 26)" ry="8" rx="8" height="18.5" width="45.183332443237305" y="268.8427734375" x="40.31666564941406"></rect><text text-anchor="end" fill="hsl(33, 91%, 73%)" font-size="12" y="282.34276491213893" x="75">SVG</text><path stroke="darkgray" fill="none" d="M 113.10769216716432,266.8124940041417 Q 87.44038444850761,282.34276491213893 85,282.34276491213893"></path></g><g opacity="1" id="label506"><rect stroke-width="2" fill-opacity="1" fill="black" stroke="rgb(78, 148, 44)" ry="8" rx="8" height="18.5" width="39.70000076293945" y="331.3927307128906" x="414.4333190917969"></rect><text text-anchor="start" fill="hsl(100, 54%, 58%)" font-size="12" y="344.892732065048" x="425">API</text><path stroke="darkgray" fill="none" d="M 296.9517757222456,315.95519693672435 Q 304.86499634959034,344.892732065048 415,344.892732065048"></path></g><g opacity="1" id="label540"><rect stroke-width="2" fill-opacity="1" fill="black" stroke="hsl(4, 63%, 70%)" ry="8" rx="8" height="18.5" width="77.78333282470703" y="217.53805541992188" x="414.5"></rect><text text-anchor="start" fill="hsl(4, 63%, 70%)" font-size="12" y="231.03805341056477" x="425">JavaScript</text><path stroke="darkgray" fill="none" d="M 409.9915677579477,230.7300595414961 Q 439.9899867125629,231.03805341056477 415,231.03805341056477"></path></g></g></g></g></svg></g></svg></g><g id="view_view_selectors"><g id="view_view_selectors_definitions"></g><g id="view_view_selectors_graphics"></g></g><svg height="460" width="500" y="20" x="0" id="view_view_widgets"><defs id="view_view_widgets_definitions"></defs><g id="view_view_widgets_graphics"></g></svg><g id="view_view_foreground"><g id="foreground29"><g id="view_view_foreground_definitions"></g><g id="view_view_foreground_graphics"><text text-anchor="start" fill-opacity="1" fill="#4566ea" font-size="6" y="18" x="0" id="text_foreground29">JenScript 1.1.1 - www.jensoftapi.com</text></g></g></g><g id="view_view_dispatcher"><svg height="20px" width="500px" y="480px" x="0px" id="view_view_South_dispatcher"><rect style="stroke: black;stroke-opacity: 0; fill: #0000ff;fill-opacity :0" height="20" width="500" y="0" x="0" id="view_view_dispatcher"></rect></svg><svg height="20px" width="500px" y="0px" x="0px" id="view_view_North_dispatcher"><rect style="stroke: black;stroke-opacity: 0; fill: #0000ff;fill-opacity :0" height="20" width="500" y="0" x="0" id="view_view_dispatcher"></rect></svg><svg height="460px" width="0px" y="20px" x="500px" id="view_view_East_dispatcher"><rect style="stroke: black;stroke-opacity: 0; fill: #0000ff;fill-opacity :0" height="460" width="0" y="0" x="0" id="view_view_dispatcher"></rect></svg><svg height="460px" width="0px" y="20px" x="0px" id="view_view_West_dispatcher"><rect style="stroke: black;stroke-opacity: 0; fill: #0000ff;fill-opacity :0" height="460" width="0" y="0" x="0" id="view_view_dispatcher"></rect></svg><svg height="460px" width="500px" y="20px" x="0px" id="view_view_Device_dispatcher"><rect style="stroke: black;stroke-opacity: 0; fill: #0000ff;fill-opacity :0" height="460" width="500" y="0" x="0" id="view_view_dispatcher"></rect></svg></g></svg>