<svg height="540" width="540" viewBox="0 0 540 540" id="view_donut3dview" version="1.1" xmlns:xlink="http://www.w3.org/1999/xlink" xmlns="http://www.w3.org/2000/svg"><g id="view_donut3dview_global_definitions"><pattern id="texture_carbon1" height="10" width="10" patternUnits="userSpaceOnUse"><rect fill="darkgray" stroke="none" height="10" width="10" y="0" x="0"></rect><polygon fill="black" stroke="none" points="5,0 5,10 0,5 "></polygon><polygon fill="black" stroke="none" points="5,0 10,0 10,5 "></polygon><polygon fill="black" stroke="none" points="10,5 10,10 5,10 "></polygon></pattern><linearGradient y2="0" x2="0" y1="-10" x1="0" id="texture_gradient2698" gradientUnits="userSpaceOnUse"><stop stop-opacity="1" stop-color="black" offset="0%"></stop><stop stop-opacity="1" stop-color="darkgray" offset="100%"></stop></linearGradient><linearGradient y2="-2.5" x2="5" y1="-2.5" x1="-5" id="texture_gradient2699" gradientUnits="userSpaceOnUse"><stop stop-opacity="1" stop-color="black" offset="0%"></stop><stop stop-opacity="1" stop-color="darkgray" offset="100%"></stop></linearGradient><linearGradient y2="5" x2="5" y1="-5" x1="5" id="texture_gradient2700" gradientUnits="userSpaceOnUse"><stop stop-opacity="1" stop-color="black" offset="0%"></stop><stop stop-opacity="1" stop-color="darkgray" offset="100%"></stop></linearGradient><linearGradient y2="-1.25" x2="10" y1="-1.25" x1="0" id="texture_gradient2701" gradientUnits="userSpaceOnUse"><stop stop-opacity="1" stop-color="black" offset="0%"></stop><stop stop-opacity="1" stop-color="darkgray" offset="100%"></stop></linearGradient><linearGradient y2="10" x2="10" y1="0" x1="10" id="texture_gradient2702" gradientUnits="userSpaceOnUse"><stop stop-opacity="1" stop-color="black" offset="0%"></stop><stop stop-opacity="1" stop-color="darkgray" offset="100%"></stop></linearGradient><linearGradient y2="0" x2="15" y1="0" x1="5" id="texture_gradient2703" gradientUnits="userSpaceOnUse"><stop stop-opacity="1" stop-color="black" offset="0%"></stop><stop stop-opacity="1" stop-color="darkgray" offset="100%"></stop></linearGradient><linearGradient y2="15" x2="15" y1="5" x1="15" id="texture_gradient2704" gradientUnits="userSpaceOnUse"><stop stop-opacity="1" stop-color="black" offset="0%"></stop><stop stop-opacity="1" stop-color="darkgray" offset="100%"></stop></linearGradient><linearGradient y2="1.25" x2="20" y1="1.25" x1="10" id="texture_gradient2705" gradientUnits="userSpaceOnUse"><stop stop-opacity="1" stop-color="black" offset="0%"></stop><stop stop-opacity="1" stop-color="darkgray" offset="100%"></stop></linearGradient><linearGradient y2="20" x2="20" y1="10" x1="20" id="texture_gradient2706" gradientUnits="userSpaceOnUse"><stop stop-opacity="1" stop-color="black" offset="0%"></stop><stop stop-opacity="1" stop-color="darkgray" offset="100%"></stop></linearGradient><linearGradient y2="2.5" x2="25" y1="2.5" x1="15" id="texture_gradient2707" gradientUnits="userSpaceOnUse"><stop stop-opacity="1" stop-color="black" offset="0%"></stop><stop stop-opacity="1" stop-color="darkgray" offset="100%"></stop></linearGradient><linearGradient y2="20" x2="0" y1="10" x1="0" id="texture_gradient2708" gradientUnits="userSpaceOnUse"><stop stop-opacity="1" stop-color="black" offset="0%"></stop><stop stop-opacity="1" stop-color="darkgray" offset="100%"></stop></linearGradient><linearGradient y2="2.5" x2="5" y1="2.5" x1="-5" id="texture_gradient2709" gradientUnits="userSpaceOnUse"><stop stop-opacity="1" stop-color="black" offset="0%"></stop><stop stop-opacity="1" stop-color="darkgray" offset="100%"></stop></linearGradient><linearGradient y2="25" x2="5" y1="15" x1="5" id="texture_gradient2710" gradientUnits="userSpaceOnUse"><stop stop-opacity="1" stop-color="black" offset="0%"></stop><stop stop-opacity="1" stop-color="darkgray" offset="100%"></stop></linearGradient><linearGradient y2="3.75" x2="10" y1="3.75" x1="0" id="texture_gradient2711" gradientUnits="userSpaceOnUse"><stop stop-opacity="1" stop-color="black" offset="0%"></stop><stop stop-opacity="1" stop-color="darkgray" offset="100%"></stop></linearGradient><linearGradient y2="30" x2="10" y1="20" x1="10" id="texture_gradient2712" gradientUnits="userSpaceOnUse"><stop stop-opacity="1" stop-color="black" offset="0%"></stop><stop stop-opacity="1" stop-color="darkgray" offset="100%"></stop></linearGradient><linearGradient y2="5" x2="15" y1="5" x1="5" id="texture_gradient2713" gradientUnits="userSpaceOnUse"><stop stop-opacity="1" stop-color="black" offset="0%"></stop><stop stop-opacity="1" stop-color="darkgray" offset="100%"></stop></linearGradient><linearGradient y2="35" x2="15" y1="25" x1="15" id="texture_gradient2714" gradientUnits="userSpaceOnUse"><stop stop-opacity="1" stop-color="black" offset="0%"></stop><stop stop-opacity="1" stop-color="darkgray" offset="100%"></stop></linearGradient><linearGradient y2="6.25" x2="20" y1="6.25" x1="10" id="texture_gradient2715" gradientUnits="userSpaceOnUse"><stop stop-opacity="1" stop-color="black" offset="0%"></stop><stop stop-opacity="1" stop-color="darkgray" offset="100%"></stop></linearGradient><linearGradient y2="40" x2="20" y1="30" x1="20" id="texture_gradient2716" gradientUnits="userSpaceOnUse"><stop stop-opacity="1" stop-color="black" offset="0%"></stop><stop stop-opacity="1" stop-color="darkgray" offset="100%"></stop></linearGradient><linearGradient y2="7.5" x2="25" y1="7.5" x1="15" id="texture_gradient2717" gradientUnits="userSpaceOnUse"><stop stop-opacity="1" stop-color="black" offset="0%"></stop><stop stop-opacity="1" stop-color="darkgray" offset="100%"></stop></linearGradient><pattern id="texture_carbon2" height="20" width="20" patternUnits="userSpaceOnUse"><rect fill="rgb(60,60,60)" stroke="none" height="20" width="20" y="0" x="0"></rect><rect fill="url(#texture_gradient2698)" stroke="none" height="10" width="10" y="-10" x="-5"></rect><rect fill="url(#texture_gradient2698)" stroke="none" height="5" width="10" y="-10" x="-5"></rect><rect fill="url(#texture_gradient2700)" stroke="none" height="10" width="10" y="-5" x="0"></rect><rect fill="url(#texture_gradient2700)" stroke="none" height="5" width="10" y="-5" x="0"></rect><rect fill="url(#texture_gradient2702)" stroke="none" height="10" width="10" y="0" x="5"></rect><rect fill="url(#texture_gradient2702)" stroke="none" height="5" width="10" y="0" x="5"></rect><rect fill="url(#texture_gradient2704)" stroke="none" height="10" width="10" y="5" x="10"></rect><rect fill="url(#texture_gradient2704)" stroke="none" height="5" width="10" y="5" x="10"></rect><rect fill="url(#texture_gradient2706)" stroke="none" height="10" width="10" y="10" x="15"></rect><rect fill="url(#texture_gradient2706)" stroke="none" height="5" width="10" y="10" x="15"></rect><rect fill="url(#texture_gradient2708)" stroke="none" height="10" width="10" y="10" x="-5"></rect><rect fill="url(#texture_gradient2708)" stroke="none" height="5" width="10" y="10" x="-5"></rect><rect fill="url(#texture_gradient2710)" stroke="none" height="10" width="10" y="15" x="0"></rect><rect fill="url(#texture_gradient2710)" stroke="none" height="5" width="10" y="15" x="0"></rect><rect fill="url(#texture_gradient2712)" stroke="none" height="10" width="10" y="20" x="5"></rect><rect fill="url(#texture_gradient2712)" stroke="none" height="5" width="10" y="20" x="5"></rect><rect fill="url(#texture_gradient2714)" stroke="none" height="10" width="10" y="25" x="10"></rect><rect fill="url(#texture_gradient2714)" stroke="none" height="5" width="10" y="25" x="10"></rect><rect fill="url(#texture_gradient2716)" stroke="none" height="10" width="10" y="30" x="15"></rect><rect fill="url(#texture_gradient2716)" stroke="none" height="5" width="10" y="30" x="15"></rect></pattern></g><g id="view_donut3dview_background"></g><g id="view_donut3dview_projections"><svg viewBox="0 0 540 540" version="1.1" xmlns:xlink="http://www.w3.org/1999/xlink" xmlns="http://www.w3.org/2000/svg" id="proj_2722"><defs id="proj_2722_definitions"></defs><g id="proj_2722_parts" xmlns="http://www.w3.org/2000/svg"><svg height="20" width="540" y="520" x="0" id="proj_2722_South"><g id="proj_2722_South_plugins"><g transform="translate(0,0) scale(1,1)" id="proj_2722_South_plugin_Donut3DPlugin_2724"><defs id="proj_2722_South_plugin_Donut3DPlugin_2724_definition"></defs><g id="proj_2722_South_plugin_Donut3DPlugin_2724_graphics"></g></g><g transform="translate(0,0) scale(1,1)" id="proj_2722_South_plugin_TranslatePlugin_2991"><defs id="proj_2722_South_plugin_TranslatePlugin_2991_definition"></defs><g id="proj_2722_South_plugin_TranslatePlugin_2991_graphics"></g></g></g></svg><svg height="20" width="540" y="0" x="0" id="proj_2722_North"><g id="proj_2722_North_plugins"><g transform="translate(0,0) scale(1,1)" id="proj_2722_North_plugin_Donut3DPlugin_2724"><defs id="proj_2722_North_plugin_Donut3DPlugin_2724_definition"></defs><g id="proj_2722_North_plugin_Donut3DPlugin_2724_graphics"></g></g><g transform="translate(0,0) scale(1,1)" id="proj_2722_North_plugin_TranslatePlugin_2991"><defs id="proj_2722_North_plugin_TranslatePlugin_2991_definition"></defs><g id="proj_2722_North_plugin_TranslatePlugin_2991_graphics"></g></g></g></svg><svg height="500" width="0" y="20" x="540" id="proj_2722_East"><g id="proj_2722_East_plugins"><g transform="translate(0,0) scale(1,1)" id="proj_2722_East_plugin_Donut3DPlugin_2724"><defs id="proj_2722_East_plugin_Donut3DPlugin_2724_definition"></defs><g id="proj_2722_East_plugin_Donut3DPlugin_2724_graphics"></g></g><g transform="translate(0,0) scale(1,1)" id="proj_2722_East_plugin_TranslatePlugin_2991"><defs id="proj_2722_East_plugin_TranslatePlugin_2991_definition"></defs><g id="proj_2722_East_plugin_TranslatePlugin_2991_graphics"></g></g></g></svg><svg height="500" width="0" y="20" x="0" id="proj_2722_West"><g id="proj_2722_West_plugins"><g transform="translate(0,0) scale(1,1)" id="proj_2722_West_plugin_Donut3DPlugin_2724"><defs id="proj_2722_West_plugin_Donut3DPlugin_2724_definition"></defs><g id="proj_2722_West_plugin_Donut3DPlugin_2724_graphics"></g></g><g transform="translate(0,0) scale(1,1)" id="proj_2722_West_plugin_TranslatePlugin_2991"><defs id="proj_2722_West_plugin_TranslatePlugin_2991_definition"></defs><g id="proj_2722_West_plugin_TranslatePlugin_2991_graphics"></g></g></g></svg><svg height="500" width="540" y="20" x="0" id="proj_2722_Device"><g id="proj_2722_Device_plugins"><g transform="translate(0,0) scale(1,1)" id="proj_2722_Device_plugin_Donut3DPlugin_2724"><defs id="proj_2722_Device_plugin_Donut3DPlugin_2724_definition"><clipPath id="clip4870"><path d="M381.9066664678469,49.72123903134596 A150,100 0 0,0 117.00000000000017,113.99999999999987 L 167.00000000000017,113.99999999999987 A100,66.66666666666667 0 0,1 343.60444431189796,71.14749268756393 ZM117.00000000000017,113.99999999999987 A150,100 0 0,0 171.76662488851167,191.26032261811574 L 203.51108325900785,165.50688174541045 A100,66.66666666666667 0 0,1 167.00000000000017,113.99999999999987 ZM171.76662488851167,191.26032261811574 A150,100 0 0,0 220.06199390517702,208.97794734414765 L 235.70799593678476,177.31863156276506 A100,66.66666666666667 0 0,1 203.51108325900785,165.50688174541045 ZM220.06199390517702,208.97794734414765 A150,100 0 0,0 417.00000000000017,113.99999999999991 L 367.00000000000017,113.9999999999999 A100,66.66666666666667 0 0,1 235.70799593678476,177.31863156276506 ZM417.00000000000017,113.99999999999989 A150,100 0 0,0 408.9775255238393,81.73455755678037 L 361.6516836825596,92.48970503785354 A100,66.66666666666667 0 0,1 367.00000000000017,113.99999999999989 ZM408.9775255238393,81.73455755678032 A150,100 0 0,0 381.9066664678468,49.72123903134589 L 343.6044443118979,71.1474926875639 A100,66.66666666666667 0 0,1 361.65168368255956,92.48970503785351 Z"></path></clipPath><linearGradient y2="213.9999999999999" x2="267.00000000000017" y1="13.999999999999886" x1="267.00000000000017" id="gradient4871" gradientUnits="userSpaceOnUse"><stop stop-opacity="0.5" stop-color="rgb(40, 40, 40)" offset="0%"></stop><stop stop-opacity="0" stop-color="rgb(40, 40, 40)" offset="45%"></stop><stop stop-opacity="0" stop-color="rgb(255, 255, 255)" offset="55%"></stop><stop stop-opacity="0.8" stop-color="rgb(255, 255, 255)" offset="100%"></stop></linearGradient><linearGradient y2="113.99999999999989" x2="417.00000000000017" y1="113.99999999999989" x1="117.00000000000017" id="gradient4872" gradientUnits="userSpaceOnUse"><stop stop-opacity="0.3" stop-color="rgb(40, 40, 40)" offset="0%"></stop><stop stop-opacity="0.05" stop-color="rgb(40, 40, 40)" offset="40%"></stop><stop stop-opacity="0.05" stop-color="rgb(255, 255, 255)" offset="80%"></stop><stop stop-opacity="0.5" stop-color="rgb(255, 255, 255)" offset="100%"></stop></linearGradient><clipPath id="clip4873"><ellipse ry="66.66666666666667" rx="100" cy="113.99999999999989" cx="267.00000000000017"></ellipse></clipPath><linearGradient y2="113.99999999999989" x2="167.00000000000017" y1="113.99999999999989" x1="367.00000000000017" id="gradient4874" gradientUnits="userSpaceOnUse"><stop stop-opacity="0.2" stop-color="rgb(40, 40, 40)" offset="0%"></stop><stop stop-opacity="0.3" stop-color="rgb(40, 40, 40)" offset="40%"></stop><stop stop-opacity="0" stop-color="rgb(240, 240, 240)" offset="80%"></stop><stop stop-opacity="0.6" stop-color="rgb(240, 240, 240)" offset="100%"></stop></linearGradient><linearGradient y2="213.9999999999999" x2="267.00000000000017" y1="13.999999999999886" x1="267.00000000000017" id="gradient4875" gradientUnits="userSpaceOnUse"><stop stop-opacity="0.5" stop-color="rgb(40, 40, 40)" offset="0%"></stop><stop stop-opacity="0" stop-color="rgb(40, 40, 40)" offset="45%"></stop><stop stop-opacity="0" stop-color="rgb(255, 255, 255)" offset="55%"></stop><stop stop-opacity="0.8" stop-color="rgb(255, 255, 255)" offset="100%"></stop></linearGradient><linearGradient y2="113.99999999999989" x2="417.00000000000017" y1="113.99999999999989" x1="117.00000000000017" id="gradient4876" gradientUnits="userSpaceOnUse"><stop stop-opacity="0.3" stop-color="rgb(40, 40, 40)" offset="0%"></stop><stop stop-opacity="0.05" stop-color="rgb(40, 40, 40)" offset="40%"></stop><stop stop-opacity="0.05" stop-color="rgb(255, 255, 255)" offset="80%"></stop><stop stop-opacity="0.5" stop-color="rgb(255, 255, 255)" offset="100%"></stop></linearGradient><clipPath id="clip4877"><ellipse ry="66.66666666666667" rx="100" cy="113.99999999999989" cx="267.00000000000017"></ellipse></clipPath><linearGradient y2="113.99999999999989" x2="167.00000000000017" y1="113.99999999999989" x1="367.00000000000017" id="gradient4878" gradientUnits="userSpaceOnUse"><stop stop-opacity="0.2" stop-color="rgb(40, 40, 40)" offset="0%"></stop><stop stop-opacity="0.3" stop-color="rgb(40, 40, 40)" offset="40%"></stop><stop stop-opacity="0" stop-color="rgb(240, 240, 240)" offset="80%"></stop><stop stop-opacity="0.6" stop-color="rgb(240, 240, 240)" offset="100%"></stop></linearGradient><linearGradient y2="213.9999999999999" x2="267.00000000000017" y1="13.999999999999886" x1="267.00000000000017" id="gradient4879" gradientUnits="userSpaceOnUse"><stop stop-opacity="0.5" stop-color="rgb(40, 40, 40)" offset="0%"></stop><stop stop-opacity="0" stop-color="rgb(40, 40, 40)" offset="45%"></stop><stop stop-opacity="0" stop-color="rgb(255, 255, 255)" offset="55%"></stop><stop stop-opacity="0.8" stop-color="rgb(255, 255, 255)" offset="100%"></stop></linearGradient><linearGradient y2="113.99999999999989" x2="417.00000000000017" y1="113.99999999999989" x1="117.00000000000017" id="gradient4880" gradientUnits="userSpaceOnUse"><stop stop-opacity="0.3" stop-color="rgb(40, 40, 40)" offset="0%"></stop><stop stop-opacity="0.05" stop-color="rgb(40, 40, 40)" offset="40%"></stop><stop stop-opacity="0.05" stop-color="rgb(255, 255, 255)" offset="80%"></stop><stop stop-opacity="0.5" stop-color="rgb(255, 255, 255)" offset="100%"></stop></linearGradient><clipPath id="clip4881"><ellipse ry="66.66666666666667" rx="100" cy="113.99999999999989" cx="267.00000000000017"></ellipse></clipPath><linearGradient y2="113.99999999999989" x2="167.00000000000017" y1="113.99999999999989" x1="367.00000000000017" id="gradient4882" gradientUnits="userSpaceOnUse"><stop stop-opacity="0.2" stop-color="rgb(40, 40, 40)" offset="0%"></stop><stop stop-opacity="0.3" stop-color="rgb(40, 40, 40)" offset="40%"></stop><stop stop-opacity="0" stop-color="rgb(240, 240, 240)" offset="80%"></stop><stop stop-opacity="0.6" stop-color="rgb(240, 240, 240)" offset="100%"></stop></linearGradient><clipPath id="clip4883"><path d="M381.9066664678469,49.72123903134596 A150,100 0 0,0 117.00000000000017,113.99999999999987 L 167.00000000000017,113.99999999999987 A100,66.66666666666667 0 0,1 343.60444431189796,71.14749268756393 ZM117.00000000000017,113.99999999999987 A150,100 0 0,0 171.76662488851167,191.26032261811574 L 203.51108325900785,165.50688174541045 A100,66.66666666666667 0 0,1 167.00000000000017,113.99999999999987 ZM171.76662488851167,191.26032261811574 A150,100 0 0,0 220.06199390517702,208.97794734414765 L 235.70799593678476,177.31863156276506 A100,66.66666666666667 0 0,1 203.51108325900785,165.50688174541045 ZM220.06199390517702,208.97794734414765 A150,100 0 0,0 417.00000000000017,113.99999999999991 L 367.00000000000017,113.9999999999999 A100,66.66666666666667 0 0,1 235.70799593678476,177.31863156276506 ZM417.00000000000017,113.99999999999989 A150,100 0 0,0 408.9775255238393,81.73455755678037 L 361.6516836825596,92.48970503785354 A100,66.66666666666667 0 0,1 367.00000000000017,113.99999999999989 ZM408.9775255238393,81.73455755678032 A150,100 0 0,0 381.9066664678468,49.72123903134589 L 343.6044443118979,71.1474926875639 A100,66.66666666666667 0 0,1 361.65168368255956,92.48970503785351 Z"></path></clipPath><linearGradient y2="213.9999999999999" x2="267.00000000000017" y1="13.999999999999886" x1="267.00000000000017" id="gradient4884" gradientUnits="userSpaceOnUse"><stop stop-opacity="0.5" stop-color="rgb(40, 40, 40)" offset="0%"></stop><stop stop-opacity="0" stop-color="rgb(40, 40, 40)" offset="45%"></stop><stop stop-opacity="0" stop-color="rgb(255, 255, 255)" offset="55%"></stop><stop stop-opacity="0.8" stop-color="rgb(255, 255, 255)" offset="100%"></stop></linearGradient><linearGradient y2="113.99999999999989" x2="417.00000000000017" y1="113.99999999999989" x1="117.00000000000017" id="gradient4885" gradientUnits="userSpaceOnUse"><stop stop-opacity="0.3" stop-color="rgb(40, 40, 40)" offset="0%"></stop><stop stop-opacity="0.05" stop-color="rgb(40, 40, 40)" offset="40%"></stop><stop stop-opacity="0.05" stop-color="rgb(255, 255, 255)" offset="80%"></stop><stop stop-opacity="0.5" stop-color="rgb(255, 255, 255)" offset="100%"></stop></linearGradient><clipPath id="clip4886"><ellipse ry="66.66666666666667" rx="100" cy="113.99999999999989" cx="267.00000000000017"></ellipse></clipPath><linearGradient y2="113.99999999999989" x2="167.00000000000017" y1="113.99999999999989" x1="367.00000000000017" id="gradient4887" gradientUnits="userSpaceOnUse"><stop stop-opacity="0.2" stop-color="rgb(40, 40, 40)" offset="0%"></stop><stop stop-opacity="0.3" stop-color="rgb(40, 40, 40)" offset="40%"></stop><stop stop-opacity="0" stop-color="rgb(240, 240, 240)" offset="80%"></stop><stop stop-opacity="0.6" stop-color="rgb(240, 240, 240)" offset="100%"></stop></linearGradient><clipPath id="clip4888"><path d="M381.9066664678469,49.72123903134596 A150,100 0 0,0 117.00000000000017,113.99999999999987 L 167.00000000000017,113.99999999999987 A100,66.66666666666667 0 0,1 343.60444431189796,71.14749268756393 ZM117.00000000000017,113.99999999999987 A150,100 0 0,0 171.76662488851167,191.26032261811574 L 203.51108325900785,165.50688174541045 A100,66.66666666666667 0 0,1 167.00000000000017,113.99999999999987 ZM171.76662488851167,191.26032261811574 A150,100 0 0,0 220.06199390517702,208.97794734414765 L 235.70799593678476,177.31863156276506 A100,66.66666666666667 0 0,1 203.51108325900785,165.50688174541045 ZM220.06199390517702,208.97794734414765 A150,100 0 0,0 417.00000000000017,113.99999999999991 L 367.00000000000017,113.9999999999999 A100,66.66666666666667 0 0,1 235.70799593678476,177.31863156276506 ZM417.00000000000017,113.99999999999989 A150,100 0 0,0 408.9775255238393,81.73455755678037 L 361.6516836825596,92.48970503785354 A100,66.66666666666667 0 0,1 367.00000000000017,113.99999999999989 ZM408.9775255238393,81.73455755678032 A150,100 0 0,0 381.9066664678468,49.72123903134589 L 343.6044443118979,71.1474926875639 A100,66.66666666666667 0 0,1 361.65168368255956,92.48970503785351 Z"></path></clipPath><linearGradient y2="213.9999999999999" x2="267.00000000000017" y1="13.999999999999886" x1="267.00000000000017" id="gradient4889" gradientUnits="userSpaceOnUse"><stop stop-opacity="0.5" stop-color="rgb(40, 40, 40)" offset="0%"></stop><stop stop-opacity="0" stop-color="rgb(40, 40, 40)" offset="45%"></stop><stop stop-opacity="0" stop-color="rgb(255, 255, 255)" offset="55%"></stop><stop stop-opacity="0.8" stop-color="rgb(255, 255, 255)" offset="100%"></stop></linearGradient><linearGradient y2="113.99999999999989" x2="417.00000000000017" y1="113.99999999999989" x1="117.00000000000017" id="gradient4890" gradientUnits="userSpaceOnUse"><stop stop-opacity="0.3" stop-color="rgb(40, 40, 40)" offset="0%"></stop><stop stop-opacity="0.05" stop-color="rgb(40, 40, 40)" offset="40%"></stop><stop stop-opacity="0.05" stop-color="rgb(255, 255, 255)" offset="80%"></stop><stop stop-opacity="0.5" stop-color="rgb(255, 255, 255)" offset="100%"></stop></linearGradient><clipPath id="clip4891"><ellipse ry="66.66666666666667" rx="100" cy="113.99999999999989" cx="267.00000000000017"></ellipse></clipPath><linearGradient y2="113.99999999999989" x2="167.00000000000017" y1="113.99999999999989" x1="367.00000000000017" id="gradient4892" gradientUnits="userSpaceOnUse"><stop stop-opacity="0.2" stop-color="rgb(40, 40, 40)" offset="0%"></stop><stop stop-opacity="0.3" stop-color="rgb(40, 40, 40)" offset="40%"></stop><stop stop-opacity="0" stop-color="rgb(240, 240, 240)" offset="80%"></stop><stop stop-opacity="0.6" stop-color="rgb(240, 240, 240)" offset="100%"></stop></linearGradient><linearGradient y2="213.9999999999999" x2="267.00000000000017" y1="13.999999999999886" x1="267.00000000000017" id="gradient4893" gradientUnits="userSpaceOnUse"><stop stop-opacity="0.5" stop-color="rgb(40, 40, 40)" offset="0%"></stop><stop stop-opacity="0" stop-color="rgb(40, 40, 40)" offset="45%"></stop><stop stop-opacity="0" stop-color="rgb(255, 255, 255)" offset="55%"></stop><stop stop-opacity="0.8" stop-color="rgb(255, 255, 255)" offset="100%"></stop></linearGradient><linearGradient y2="113.99999999999989" x2="417.00000000000017" y1="113.99999999999989" x1="117.00000000000017" id="gradient4894" gradientUnits="userSpaceOnUse"><stop stop-opacity="0.3" stop-color="rgb(40, 40, 40)" offset="0%"></stop><stop stop-opacity="0.05" stop-color="rgb(40, 40, 40)" offset="40%"></stop><stop stop-opacity="0.05" stop-color="rgb(255, 255, 255)" offset="80%"></stop><stop stop-opacity="0.5" stop-color="rgb(255, 255, 255)" offset="100%"></stop></linearGradient><clipPath id="clip4895"><ellipse ry="66.66666666666667" rx="100" cy="113.99999999999989" cx="267.00000000000017"></ellipse></clipPath><linearGradient y2="113.99999999999989" x2="167.00000000000017" y1="113.99999999999989" x1="367.00000000000017" id="gradient4896" gradientUnits="userSpaceOnUse"><stop stop-opacity="0.2" stop-color="rgb(40, 40, 40)" offset="0%"></stop><stop stop-opacity="0.3" stop-color="rgb(40, 40, 40)" offset="40%"></stop><stop stop-opacity="0" stop-color="rgb(240, 240, 240)" offset="80%"></stop><stop stop-opacity="0.6" stop-color="rgb(240, 240, 240)" offset="100%"></stop></linearGradient><clipPath id="clip4897" clipPathUnits="userSpaceOnUse"><rect height="116.68254852294922" width="300" y="239.0173535346985" x="116.99999237060547"></rect></clipPath><filter height="233.36509704589844" width="300" y="5.652256488800049" x="116.99999237060547" id="filter4898" filterUnits="userSpaceOnUse"><feGaussianBlur stdDeviation="3" in="SourceGraphic"></feGaussianBlur></filter></defs><g id="proj_2722_Device_plugin_Donut3DPlugin_2724_graphics"><g id="donut3d2725"><path fill="rgb(250, 250, 250)" opacity="0.7" d="M 381.9066664678469,49.72123903134596 A 150,100 0 0,0 117.00000000000017,113.99999999999987 L 117.00000000000017,133.9999999999999 A 150,100 0 0,1 381.9066664678469,69.72123903134596 Z"></path><path fill="rgb(250, 250, 250)" opacity="0.7" d="M381.9066664678469,69.72123903134596 A150,100 0 0,0 117.00000000000017,133.9999999999999 L 167.00000000000017,133.9999999999999 A100,66.66666666666667 0 0,1 343.60444431189796,91.14749268756393 Z"></path><path fill="rgb(250, 250, 250)" opacity="0.7" d="M 343.60444431189796,71.14749268756393 A 100,66.66666666666667 0 0,0 167.00000000000017,113.99999999999987 L 167.00000000000017,133.9999999999999 A 100,66.66666666666667 0 0,1 343.60444431189796,91.14749268756393 Z"></path><path fill="rgb(250, 250, 250)" opacity="0.7" d="M 381.9066664678469,49.72123903134596 L 343.60444431189796,71.14749268756393 L 343.60444431189796,91.14749268756393 L 381.9066664678469,69.72123903134596 Z"></path><path fill="rgb(250, 250, 250)" opacity="0.7" d="M381.9066664678469,49.72123903134596 A150,100 0 0,0 117.00000000000017,113.99999999999987 L 167.00000000000017,113.99999999999987 A100,66.66666666666667 0 0,1 343.60444431189796,71.14749268756393 Z"></path><path fill="url(#gradient4871)" opacity="0.8" d="M381.9066664678469,49.72123903134596 A150,100 0 0,0 117.00000000000017,113.99999999999987 L 167.00000000000017,113.99999999999987 A100,66.66666666666667 0 0,1 343.60444431189796,71.14749268756393 Z"></path><path opacity="1" fill="url(#gradient4872)" d=" M 117.00000000000017,113.99999999999987 A 150,100 0 0,0 171.76662488851167,191.26032261811574 L 171.76662488851167,211.26032261811574 A 150,100 0 0,1 117.00000000000017,133.9999999999999 Z M 171.76662488851167,191.26032261811574 A 150,100 0 0,0 220.06199390517702,208.97794734414765 L 220.06199390517702,228.97794734414765 A 150,100 0 0,1 171.76662488851167,211.26032261811574 Z M 220.06199390517702,208.97794734414765 A 150,100 0 0,0 417.00000000000017,113.99999999999991 L 417.00000000000017,133.99999999999991 A 150,100 0 0,1 220.06199390517702,228.97794734414765 Z"></path><path opacity="1" fill="url(#gradient4874)" clip-path="url(#clip4873)" d=" M 343.60444431189796,71.14749268756393 A 100,66.66666666666667 0 0,0 167.00000000000017,113.99999999999987 L 167.00000000000017,133.9999999999999 A 100,66.66666666666667 0 0,1 343.60444431189796,91.14749268756393 Z M 367.00000000000017,113.99999999999989 A 100,66.66666666666667 0 0,0 361.6516836825596,92.48970503785354 L 361.6516836825596,112.48970503785354 A 100,66.66666666666667 0 0,1 367.00000000000017,133.9999999999999 Z M 361.65168368255956,92.48970503785351 A 100,66.66666666666667 0 0,0 343.6044443118979,71.1474926875639 L 343.6044443118979,91.1474926875639 A 100,66.66666666666667 0 0,1 361.65168368255956,112.48970503785351 Z"></path><path fill="rgb(250, 250, 250)" opacity="0.7" d="M 167.00000000000017,113.99999999999987 A 100,66.66666666666667 0 0,0 203.51108325900785,165.50688174541045 L 203.51108325900785,185.50688174541045 A 100,66.66666666666667 0 0,1 167.00000000000017,133.9999999999999 Z"></path><path fill="rgb(250, 250, 250)" opacity="0.7" d="M117.00000000000017,133.9999999999999 A150,100 0 0,0 171.76662488851167,211.26032261811574 L 203.51108325900785,185.50688174541045 A100,66.66666666666667 0 0,1 167.00000000000017,133.9999999999999 Z"></path><path fill="rgb(250, 250, 250)" opacity="0.7" d="M 171.76662488851167,191.26032261811574 L 203.51108325900785,165.50688174541045 L 203.51108325900785,185.50688174541045 L 171.76662488851167,211.26032261811574 Z"></path><path fill="rgb(250, 250, 250)" opacity="0.7" d="M 117.00000000000017,113.99999999999987 A 150,100 0 0,0 171.76662488851167,191.26032261811574 L 171.76662488851167,211.26032261811574 A 150,100 0 0,1 117.00000000000017,133.9999999999999 Z"></path><path fill="rgb(250, 250, 250)" opacity="0.7" d="M117.00000000000017,113.99999999999987 A150,100 0 0,0 171.76662488851167,191.26032261811574 L 203.51108325900785,165.50688174541045 A100,66.66666666666667 0 0,1 167.00000000000017,113.99999999999987 Z"></path><path fill="url(#gradient4875)" opacity="0.8" d="M117.00000000000017,113.99999999999987 A150,100 0 0,0 171.76662488851167,191.26032261811574 L 203.51108325900785,165.50688174541045 A100,66.66666666666667 0 0,1 167.00000000000017,113.99999999999987 Z"></path><path opacity="1" fill="url(#gradient4876)" d=" M 117.00000000000017,113.99999999999987 A 150,100 0 0,0 171.76662488851167,191.26032261811574 L 171.76662488851167,211.26032261811574 A 150,100 0 0,1 117.00000000000017,133.9999999999999 Z M 171.76662488851167,191.26032261811574 A 150,100 0 0,0 220.06199390517702,208.97794734414765 L 220.06199390517702,228.97794734414765 A 150,100 0 0,1 171.76662488851167,211.26032261811574 Z M 220.06199390517702,208.97794734414765 A 150,100 0 0,0 417.00000000000017,113.99999999999991 L 417.00000000000017,133.99999999999991 A 150,100 0 0,1 220.06199390517702,228.97794734414765 Z"></path><path opacity="1" fill="url(#gradient4878)" clip-path="url(#clip4877)" d=" M 343.60444431189796,71.14749268756393 A 100,66.66666666666667 0 0,0 167.00000000000017,113.99999999999987 L 167.00000000000017,133.9999999999999 A 100,66.66666666666667 0 0,1 343.60444431189796,91.14749268756393 Z M 367.00000000000017,113.99999999999989 A 100,66.66666666666667 0 0,0 361.6516836825596,92.48970503785354 L 361.6516836825596,112.48970503785354 A 100,66.66666666666667 0 0,1 367.00000000000017,133.9999999999999 Z M 361.65168368255956,92.48970503785351 A 100,66.66666666666667 0 0,0 343.6044443118979,71.1474926875639 L 343.6044443118979,91.1474926875639 A 100,66.66666666666667 0 0,1 361.65168368255956,112.48970503785351 Z"></path><path fill="rgb(244, 145, 26)" opacity="0.7" d="M 203.51108325900785,165.50688174541045 A 100,66.66666666666667 0 0,0 235.70799593678476,177.31863156276506 L 235.70799593678476,197.31863156276506 A 100,66.66666666666667 0 0,1 203.51108325900785,185.50688174541045 Z"></path><path fill="rgb(244, 145, 26)" opacity="0.7" d="M171.76662488851167,211.26032261811574 A150,100 0 0,0 220.06199390517702,228.97794734414765 L 235.70799593678476,197.31863156276506 A100,66.66666666666667 0 0,1 203.51108325900785,185.50688174541045 Z"></path><path fill="rgb(244, 145, 26)" opacity="0.7" d="M 171.76662488851167,191.26032261811574 L 203.51108325900785,165.50688174541045 L 203.51108325900785,185.50688174541045 L 171.76662488851167,211.26032261811574 Z"></path><path fill="rgb(244, 145, 26)" opacity="0.7" d="M 220.06199390517702,208.97794734414765 L 235.70799593678476,177.31863156276506 L 235.70799593678476,197.31863156276506 L 220.06199390517702,228.97794734414765 Z"></path><path fill="rgb(244, 145, 26)" opacity="0.7" d="M 171.76662488851167,191.26032261811574 A 150,100 0 0,0 220.06199390517702,208.97794734414765 L 220.06199390517702,228.97794734414765 A 150,100 0 0,1 171.76662488851167,211.26032261811574 Z"></path><path fill="rgb(244, 145, 26)" opacity="0.7" d="M171.76662488851167,191.26032261811574 A150,100 0 0,0 220.06199390517702,208.97794734414765 L 235.70799593678476,177.31863156276506 A100,66.66666666666667 0 0,1 203.51108325900785,165.50688174541045 Z"></path><path fill="url(#gradient4879)" opacity="0.8" d="M171.76662488851167,191.26032261811574 A150,100 0 0,0 220.06199390517702,208.97794734414765 L 235.70799593678476,177.31863156276506 A100,66.66666666666667 0 0,1 203.51108325900785,165.50688174541045 Z"></path><path opacity="1" fill="url(#gradient4880)" d=" M 117.00000000000017,113.99999999999987 A 150,100 0 0,0 171.76662488851167,191.26032261811574 L 171.76662488851167,211.26032261811574 A 150,100 0 0,1 117.00000000000017,133.9999999999999 Z M 171.76662488851167,191.26032261811574 A 150,100 0 0,0 220.06199390517702,208.97794734414765 L 220.06199390517702,228.97794734414765 A 150,100 0 0,1 171.76662488851167,211.26032261811574 Z M 220.06199390517702,208.97794734414765 A 150,100 0 0,0 417.00000000000017,113.99999999999991 L 417.00000000000017,133.99999999999991 A 150,100 0 0,1 220.06199390517702,228.97794734414765 Z"></path><path opacity="1" fill="url(#gradient4882)" clip-path="url(#clip4881)" d=" M 343.60444431189796,71.14749268756393 A 100,66.66666666666667 0 0,0 167.00000000000017,113.99999999999987 L 167.00000000000017,133.9999999999999 A 100,66.66666666666667 0 0,1 343.60444431189796,91.14749268756393 Z M 367.00000000000017,113.99999999999989 A 100,66.66666666666667 0 0,0 361.6516836825596,92.48970503785354 L 361.6516836825596,112.48970503785354 A 100,66.66666666666667 0 0,1 367.00000000000017,133.9999999999999 Z M 361.65168368255956,92.48970503785351 A 100,66.66666666666667 0 0,0 343.6044443118979,71.1474926875639 L 343.6044443118979,91.1474926875639 A 100,66.66666666666667 0 0,1 361.65168368255956,112.48970503785351 Z"></path><path fill="rgb(208, 58, 47)" opacity="0.7" d="M 408.9775255238393,81.73455755678032 A 150,100 0 0,0 381.9066664678468,49.72123903134589 L 381.9066664678468,69.72123903134589 A 150,100 0 0,1 408.9775255238393,101.73455755678032 Z"></path><path fill="rgb(208, 58, 47)" opacity="0.7" d="M408.9775255238393,101.73455755678032 A150,100 0 0,0 381.9066664678468,69.72123903134589 L 343.6044443118979,91.1474926875639 A100,66.66666666666667 0 0,1 361.65168368255956,112.48970503785351 Z"></path><path fill="rgb(208, 58, 47)" opacity="0.7" d="M 361.65168368255956,92.48970503785351 A 100,66.66666666666667 0 0,0 343.6044443118979,71.1474926875639 L 343.6044443118979,91.1474926875639 A 100,66.66666666666667 0 0,1 361.65168368255956,112.48970503785351 Z"></path><path fill="rgb(208, 58, 47)" opacity="0.7" d="M 408.9775255238393,81.73455755678032 L 361.65168368255956,92.48970503785351 L 361.65168368255956,112.48970503785351 L 408.9775255238393,101.73455755678032 Z"></path><path fill="rgb(208, 58, 47)" opacity="0.7" d="M 381.9066664678468,49.72123903134589 L 343.6044443118979,71.1474926875639 L 343.6044443118979,91.1474926875639 L 381.9066664678468,69.72123903134589 Z"></path><path fill="rgb(208, 58, 47)" opacity="0.7" d="M408.9775255238393,81.73455755678032 A150,100 0 0,0 381.9066664678468,49.72123903134589 L 343.6044443118979,71.1474926875639 A100,66.66666666666667 0 0,1 361.65168368255956,92.48970503785351 Z"></path><path fill="url(#gradient4884)" opacity="0.8" d="M408.9775255238393,81.73455755678032 A150,100 0 0,0 381.9066664678468,49.72123903134589 L 343.6044443118979,71.1474926875639 A100,66.66666666666667 0 0,1 361.65168368255956,92.48970503785351 Z"></path><path opacity="1" fill="url(#gradient4885)" d=" M 117.00000000000017,113.99999999999987 A 150,100 0 0,0 171.76662488851167,191.26032261811574 L 171.76662488851167,211.26032261811574 A 150,100 0 0,1 117.00000000000017,133.9999999999999 Z M 171.76662488851167,191.26032261811574 A 150,100 0 0,0 220.06199390517702,208.97794734414765 L 220.06199390517702,228.97794734414765 A 150,100 0 0,1 171.76662488851167,211.26032261811574 Z M 220.06199390517702,208.97794734414765 A 150,100 0 0,0 417.00000000000017,113.99999999999991 L 417.00000000000017,133.99999999999991 A 150,100 0 0,1 220.06199390517702,228.97794734414765 Z"></path><path opacity="1" fill="url(#gradient4887)" clip-path="url(#clip4886)" d=" M 343.60444431189796,71.14749268756393 A 100,66.66666666666667 0 0,0 167.00000000000017,113.99999999999987 L 167.00000000000017,133.9999999999999 A 100,66.66666666666667 0 0,1 343.60444431189796,91.14749268756393 Z M 367.00000000000017,113.99999999999989 A 100,66.66666666666667 0 0,0 361.6516836825596,92.48970503785354 L 361.6516836825596,112.48970503785354 A 100,66.66666666666667 0 0,1 367.00000000000017,133.9999999999999 Z M 361.65168368255956,92.48970503785351 A 100,66.66666666666667 0 0,0 343.6044443118979,71.1474926875639 L 343.6044443118979,91.1474926875639 A 100,66.66666666666667 0 0,1 361.65168368255956,112.48970503785351 Z"></path><path fill="rgb(78, 148, 44)" opacity="0.7" d="M 417.00000000000017,113.99999999999989 A 150,100 0 0,0 408.9775255238393,81.73455755678037 L 408.9775255238393,101.73455755678037 A 150,100 0 0,1 417.00000000000017,133.9999999999999 Z"></path><path fill="rgb(78, 148, 44)" opacity="0.7" d="M417.00000000000017,133.9999999999999 A150,100 0 0,0 408.9775255238393,101.73455755678037 L 361.6516836825596,112.48970503785354 A100,66.66666666666667 0 0,1 367.00000000000017,133.9999999999999 Z"></path><path fill="rgb(78, 148, 44)" opacity="0.7" d="M 367.00000000000017,113.99999999999989 A 100,66.66666666666667 0 0,0 361.6516836825596,92.48970503785354 L 361.6516836825596,112.48970503785354 A 100,66.66666666666667 0 0,1 367.00000000000017,133.9999999999999 Z"></path><path fill="rgb(78, 148, 44)" opacity="0.7" d="M 408.9775255238393,81.73455755678037 L 361.6516836825596,92.48970503785354 L 361.6516836825596,112.48970503785354 L 408.9775255238393,101.73455755678037 Z"></path><path fill="rgb(78, 148, 44)" opacity="0.7" d="M417.00000000000017,113.99999999999989 A150,100 0 0,0 408.9775255238393,81.73455755678037 L 361.6516836825596,92.48970503785354 A100,66.66666666666667 0 0,1 367.00000000000017,113.99999999999989 Z"></path><path fill="url(#gradient4889)" opacity="0.8" d="M417.00000000000017,113.99999999999989 A150,100 0 0,0 408.9775255238393,81.73455755678037 L 361.6516836825596,92.48970503785354 A100,66.66666666666667 0 0,1 367.00000000000017,113.99999999999989 Z"></path><path opacity="1" fill="url(#gradient4890)" d=" M 117.00000000000017,113.99999999999987 A 150,100 0 0,0 171.76662488851167,191.26032261811574 L 171.76662488851167,211.26032261811574 A 150,100 0 0,1 117.00000000000017,133.9999999999999 Z M 171.76662488851167,191.26032261811574 A 150,100 0 0,0 220.06199390517702,208.97794734414765 L 220.06199390517702,228.97794734414765 A 150,100 0 0,1 171.76662488851167,211.26032261811574 Z M 220.06199390517702,208.97794734414765 A 150,100 0 0,0 417.00000000000017,113.99999999999991 L 417.00000000000017,133.99999999999991 A 150,100 0 0,1 220.06199390517702,228.97794734414765 Z"></path><path opacity="1" fill="url(#gradient4892)" clip-path="url(#clip4891)" d=" M 343.60444431189796,71.14749268756393 A 100,66.66666666666667 0 0,0 167.00000000000017,113.99999999999987 L 167.00000000000017,133.9999999999999 A 100,66.66666666666667 0 0,1 343.60444431189796,91.14749268756393 Z M 367.00000000000017,113.99999999999989 A 100,66.66666666666667 0 0,0 361.6516836825596,92.48970503785354 L 361.6516836825596,112.48970503785354 A 100,66.66666666666667 0 0,1 367.00000000000017,133.9999999999999 Z M 361.65168368255956,92.48970503785351 A 100,66.66666666666667 0 0,0 343.6044443118979,71.1474926875639 L 343.6044443118979,91.1474926875639 A 100,66.66666666666667 0 0,1 361.65168368255956,112.48970503785351 Z"></path><path fill="rgb(78, 148, 44)" opacity="0.7" d="M 235.70799593678476,177.31863156276506 A 100,66.66666666666667 0 0,0 367.00000000000017,113.9999999999999 L 367.00000000000017,133.9999999999999 A 100,66.66666666666667 0 0,1 235.70799593678476,197.31863156276506 Z"></path><path fill="rgb(78, 148, 44)" opacity="0.7" d="M220.06199390517702,228.97794734414765 A150,100 0 0,0 417.00000000000017,133.99999999999991 L 367.00000000000017,133.9999999999999 A100,66.66666666666667 0 0,1 235.70799593678476,197.31863156276506 Z"></path><path fill="rgb(78, 148, 44)" opacity="0.7" d="M 220.06199390517702,208.97794734414765 L 235.70799593678476,177.31863156276506 L 235.70799593678476,197.31863156276506 L 220.06199390517702,228.97794734414765 Z"></path><path fill="rgb(78, 148, 44)" opacity="0.7" d="M 220.06199390517702,208.97794734414765 A 150,100 0 0,0 417.00000000000017,113.99999999999991 L 417.00000000000017,133.99999999999991 A 150,100 0 0,1 220.06199390517702,228.97794734414765 Z"></path><path fill="rgb(78, 148, 44)" opacity="0.7" d="M220.06199390517702,208.97794734414765 A150,100 0 0,0 417.00000000000017,113.99999999999991 L 367.00000000000017,113.9999999999999 A100,66.66666666666667 0 0,1 235.70799593678476,177.31863156276506 Z"></path><path fill="url(#gradient4893)" opacity="0.8" d="M220.06199390517702,208.97794734414765 A150,100 0 0,0 417.00000000000017,113.99999999999991 L 367.00000000000017,113.9999999999999 A100,66.66666666666667 0 0,1 235.70799593678476,177.31863156276506 Z"></path><path opacity="1" fill="url(#gradient4894)" d=" M 117.00000000000017,113.99999999999987 A 150,100 0 0,0 171.76662488851167,191.26032261811574 L 171.76662488851167,211.26032261811574 A 150,100 0 0,1 117.00000000000017,133.9999999999999 Z M 171.76662488851167,191.26032261811574 A 150,100 0 0,0 220.06199390517702,208.97794734414765 L 220.06199390517702,228.97794734414765 A 150,100 0 0,1 171.76662488851167,211.26032261811574 Z M 220.06199390517702,208.97794734414765 A 150,100 0 0,0 417.00000000000017,113.99999999999991 L 417.00000000000017,133.99999999999991 A 150,100 0 0,1 220.06199390517702,228.97794734414765 Z"></path><path opacity="1" fill="url(#gradient4896)" clip-path="url(#clip4895)" d=" M 343.60444431189796,71.14749268756393 A 100,66.66666666666667 0 0,0 167.00000000000017,113.99999999999987 L 167.00000000000017,133.9999999999999 A 100,66.66666666666667 0 0,1 343.60444431189796,91.14749268756393 Z M 367.00000000000017,113.99999999999989 A 100,66.66666666666667 0 0,0 361.6516836825596,92.48970503785354 L 361.6516836825596,112.48970503785354 A 100,66.66666666666667 0 0,1 367.00000000000017,133.9999999999999 Z M 361.65168368255956,92.48970503785351 A 100,66.66666666666667 0 0,0 343.6044443118979,71.1474926875639 L 343.6044443118979,91.1474926875639 A 100,66.66666666666667 0 0,1 361.65168368255956,112.48970503785351 Z"></path></g><g clip-path="url(#clip4897)"><g id="null_reflection4899" opacity="0.3" transform="translate(0,233.36509704589844), scale(1,-1), translate(0,-244.66961002349854)" filter="url(#filter4898)"><path fill="rgb(250, 250, 250)" opacity="0.7" d="M 381.9066664678469,49.72123903134596 A 150,100 0 0,0 117.00000000000017,113.99999999999987 L 117.00000000000017,133.9999999999999 A 150,100 0 0,1 381.9066664678469,69.72123903134596 Z"></path><path fill="rgb(250, 250, 250)" opacity="0.7" d="M381.9066664678469,69.72123903134596 A150,100 0 0,0 117.00000000000017,133.9999999999999 L 167.00000000000017,133.9999999999999 A100,66.66666666666667 0 0,1 343.60444431189796,91.14749268756393 Z"></path><path fill="rgb(250, 250, 250)" opacity="0.7" d="M 343.60444431189796,71.14749268756393 A 100,66.66666666666667 0 0,0 167.00000000000017,113.99999999999987 L 167.00000000000017,133.9999999999999 A 100,66.66666666666667 0 0,1 343.60444431189796,91.14749268756393 Z"></path><path fill="rgb(250, 250, 250)" opacity="0.7" d="M 381.9066664678469,49.72123903134596 L 343.60444431189796,71.14749268756393 L 343.60444431189796,91.14749268756393 L 381.9066664678469,69.72123903134596 Z"></path><path fill="rgb(250, 250, 250)" opacity="0.7" d="M381.9066664678469,49.72123903134596 A150,100 0 0,0 117.00000000000017,113.99999999999987 L 167.00000000000017,113.99999999999987 A100,66.66666666666667 0 0,1 343.60444431189796,71.14749268756393 Z"></path><path fill="url(#gradient4871)" opacity="0.8" d="M381.9066664678469,49.72123903134596 A150,100 0 0,0 117.00000000000017,113.99999999999987 L 167.00000000000017,113.99999999999987 A100,66.66666666666667 0 0,1 343.60444431189796,71.14749268756393 Z"></path><path opacity="1" fill="url(#gradient4872)" d=" M 117.00000000000017,113.99999999999987 A 150,100 0 0,0 171.76662488851167,191.26032261811574 L 171.76662488851167,211.26032261811574 A 150,100 0 0,1 117.00000000000017,133.9999999999999 Z M 171.76662488851167,191.26032261811574 A 150,100 0 0,0 220.06199390517702,208.97794734414765 L 220.06199390517702,228.97794734414765 A 150,100 0 0,1 171.76662488851167,211.26032261811574 Z M 220.06199390517702,208.97794734414765 A 150,100 0 0,0 417.00000000000017,113.99999999999991 L 417.00000000000017,133.99999999999991 A 150,100 0 0,1 220.06199390517702,228.97794734414765 Z"></path><path opacity="1" fill="url(#gradient4874)" clip-path="url(#clip4873)" d=" M 343.60444431189796,71.14749268756393 A 100,66.66666666666667 0 0,0 167.00000000000017,113.99999999999987 L 167.00000000000017,133.9999999999999 A 100,66.66666666666667 0 0,1 343.60444431189796,91.14749268756393 Z M 367.00000000000017,113.99999999999989 A 100,66.66666666666667 0 0,0 361.6516836825596,92.48970503785354 L 361.6516836825596,112.48970503785354 A 100,66.66666666666667 0 0,1 367.00000000000017,133.9999999999999 Z M 361.65168368255956,92.48970503785351 A 100,66.66666666666667 0 0,0 343.6044443118979,71.1474926875639 L 343.6044443118979,91.1474926875639 A 100,66.66666666666667 0 0,1 361.65168368255956,112.48970503785351 Z"></path><path fill="rgb(250, 250, 250)" opacity="0.7" d="M 167.00000000000017,113.99999999999987 A 100,66.66666666666667 0 0,0 203.51108325900785,165.50688174541045 L 203.51108325900785,185.50688174541045 A 100,66.66666666666667 0 0,1 167.00000000000017,133.9999999999999 Z"></path><path fill="rgb(250, 250, 250)" opacity="0.7" d="M117.00000000000017,133.9999999999999 A150,100 0 0,0 171.76662488851167,211.26032261811574 L 203.51108325900785,185.50688174541045 A100,66.66666666666667 0 0,1 167.00000000000017,133.9999999999999 Z"></path><path fill="rgb(250, 250, 250)" opacity="0.7" d="M 171.76662488851167,191.26032261811574 L 203.51108325900785,165.50688174541045 L 203.51108325900785,185.50688174541045 L 171.76662488851167,211.26032261811574 Z"></path><path fill="rgb(250, 250, 250)" opacity="0.7" d="M 117.00000000000017,113.99999999999987 A 150,100 0 0,0 171.76662488851167,191.26032261811574 L 171.76662488851167,211.26032261811574 A 150,100 0 0,1 117.00000000000017,133.9999999999999 Z"></path><path fill="rgb(250, 250, 250)" opacity="0.7" d="M117.00000000000017,113.99999999999987 A150,100 0 0,0 171.76662488851167,191.26032261811574 L 203.51108325900785,165.50688174541045 A100,66.66666666666667 0 0,1 167.00000000000017,113.99999999999987 Z"></path><path fill="url(#gradient4875)" opacity="0.8" d="M117.00000000000017,113.99999999999987 A150,100 0 0,0 171.76662488851167,191.26032261811574 L 203.51108325900785,165.50688174541045 A100,66.66666666666667 0 0,1 167.00000000000017,113.99999999999987 Z"></path><path opacity="1" fill="url(#gradient4876)" d=" M 117.00000000000017,113.99999999999987 A 150,100 0 0,0 171.76662488851167,191.26032261811574 L 171.76662488851167,211.26032261811574 A 150,100 0 0,1 117.00000000000017,133.9999999999999 Z M 171.76662488851167,191.26032261811574 A 150,100 0 0,0 220.06199390517702,208.97794734414765 L 220.06199390517702,228.97794734414765 A 150,100 0 0,1 171.76662488851167,211.26032261811574 Z M 220.06199390517702,208.97794734414765 A 150,100 0 0,0 417.00000000000017,113.99999999999991 L 417.00000000000017,133.99999999999991 A 150,100 0 0,1 220.06199390517702,228.97794734414765 Z"></path><path opacity="1" fill="url(#gradient4878)" clip-path="url(#clip4877)" d=" M 343.60444431189796,71.14749268756393 A 100,66.66666666666667 0 0,0 167.00000000000017,113.99999999999987 L 167.00000000000017,133.9999999999999 A 100,66.66666666666667 0 0,1 343.60444431189796,91.14749268756393 Z M 367.00000000000017,113.99999999999989 A 100,66.66666666666667 0 0,0 361.6516836825596,92.48970503785354 L 361.6516836825596,112.48970503785354 A 100,66.66666666666667 0 0,1 367.00000000000017,133.9999999999999 Z M 361.65168368255956,92.48970503785351 A 100,66.66666666666667 0 0,0 343.6044443118979,71.1474926875639 L 343.6044443118979,91.1474926875639 A 100,66.66666666666667 0 0,1 361.65168368255956,112.48970503785351 Z"></path><path fill="rgb(244, 145, 26)" opacity="0.7" d="M 203.51108325900785,165.50688174541045 A 100,66.66666666666667 0 0,0 235.70799593678476,177.31863156276506 L 235.70799593678476,197.31863156276506 A 100,66.66666666666667 0 0,1 203.51108325900785,185.50688174541045 Z"></path><path fill="rgb(244, 145, 26)" opacity="0.7" d="M171.76662488851167,211.26032261811574 A150,100 0 0,0 220.06199390517702,228.97794734414765 L 235.70799593678476,197.31863156276506 A100,66.66666666666667 0 0,1 203.51108325900785,185.50688174541045 Z"></path><path fill="rgb(244, 145, 26)" opacity="0.7" d="M 171.76662488851167,191.26032261811574 L 203.51108325900785,165.50688174541045 L 203.51108325900785,185.50688174541045 L 171.76662488851167,211.26032261811574 Z"></path><path fill="rgb(244, 145, 26)" opacity="0.7" d="M 220.06199390517702,208.97794734414765 L 235.70799593678476,177.31863156276506 L 235.70799593678476,197.31863156276506 L 220.06199390517702,228.97794734414765 Z"></path><path fill="rgb(244, 145, 26)" opacity="0.7" d="M 171.76662488851167,191.26032261811574 A 150,100 0 0,0 220.06199390517702,208.97794734414765 L 220.06199390517702,228.97794734414765 A 150,100 0 0,1 171.76662488851167,211.26032261811574 Z"></path><path fill="rgb(244, 145, 26)" opacity="0.7" d="M171.76662488851167,191.26032261811574 A150,100 0 0,0 220.06199390517702,208.97794734414765 L 235.70799593678476,177.31863156276506 A100,66.66666666666667 0 0,1 203.51108325900785,165.50688174541045 Z"></path><path fill="url(#gradient4879)" opacity="0.8" d="M171.76662488851167,191.26032261811574 A150,100 0 0,0 220.06199390517702,208.97794734414765 L 235.70799593678476,177.31863156276506 A100,66.66666666666667 0 0,1 203.51108325900785,165.50688174541045 Z"></path><path opacity="1" fill="url(#gradient4880)" d=" M 117.00000000000017,113.99999999999987 A 150,100 0 0,0 171.76662488851167,191.26032261811574 L 171.76662488851167,211.26032261811574 A 150,100 0 0,1 117.00000000000017,133.9999999999999 Z M 171.76662488851167,191.26032261811574 A 150,100 0 0,0 220.06199390517702,208.97794734414765 L 220.06199390517702,228.97794734414765 A 150,100 0 0,1 171.76662488851167,211.26032261811574 Z M 220.06199390517702,208.97794734414765 A 150,100 0 0,0 417.00000000000017,113.99999999999991 L 417.00000000000017,133.99999999999991 A 150,100 0 0,1 220.06199390517702,228.97794734414765 Z"></path><path opacity="1" fill="url(#gradient4882)" clip-path="url(#clip4881)" d=" M 343.60444431189796,71.14749268756393 A 100,66.66666666666667 0 0,0 167.00000000000017,113.99999999999987 L 167.00000000000017,133.9999999999999 A 100,66.66666666666667 0 0,1 343.60444431189796,91.14749268756393 Z M 367.00000000000017,113.99999999999989 A 100,66.66666666666667 0 0,0 361.6516836825596,92.48970503785354 L 361.6516836825596,112.48970503785354 A 100,66.66666666666667 0 0,1 367.00000000000017,133.9999999999999 Z M 361.65168368255956,92.48970503785351 A 100,66.66666666666667 0 0,0 343.6044443118979,71.1474926875639 L 343.6044443118979,91.1474926875639 A 100,66.66666666666667 0 0,1 361.65168368255956,112.48970503785351 Z"></path><path fill="rgb(208, 58, 47)" opacity="0.7" d="M 408.9775255238393,81.73455755678032 A 150,100 0 0,0 381.9066664678468,49.72123903134589 L 381.9066664678468,69.72123903134589 A 150,100 0 0,1 408.9775255238393,101.73455755678032 Z"></path><path fill="rgb(208, 58, 47)" opacity="0.7" d="M408.9775255238393,101.73455755678032 A150,100 0 0,0 381.9066664678468,69.72123903134589 L 343.6044443118979,91.1474926875639 A100,66.66666666666667 0 0,1 361.65168368255956,112.48970503785351 Z"></path><path fill="rgb(208, 58, 47)" opacity="0.7" d="M 361.65168368255956,92.48970503785351 A 100,66.66666666666667 0 0,0 343.6044443118979,71.1474926875639 L 343.6044443118979,91.1474926875639 A 100,66.66666666666667 0 0,1 361.65168368255956,112.48970503785351 Z"></path><path fill="rgb(208, 58, 47)" opacity="0.7" d="M 408.9775255238393,81.73455755678032 L 361.65168368255956,92.48970503785351 L 361.65168368255956,112.48970503785351 L 408.9775255238393,101.73455755678032 Z"></path><path fill="rgb(208, 58, 47)" opacity="0.7" d="M 381.9066664678468,49.72123903134589 L 343.6044443118979,71.1474926875639 L 343.6044443118979,91.1474926875639 L 381.9066664678468,69.72123903134589 Z"></path><path fill="rgb(208, 58, 47)" opacity="0.7" d="M408.9775255238393,81.73455755678032 A150,100 0 0,0 381.9066664678468,49.72123903134589 L 343.6044443118979,71.1474926875639 A100,66.66666666666667 0 0,1 361.65168368255956,92.48970503785351 Z"></path><path fill="url(#gradient4884)" opacity="0.8" d="M408.9775255238393,81.73455755678032 A150,100 0 0,0 381.9066664678468,49.72123903134589 L 343.6044443118979,71.1474926875639 A100,66.66666666666667 0 0,1 361.65168368255956,92.48970503785351 Z"></path><path opacity="1" fill="url(#gradient4885)" d=" M 117.00000000000017,113.99999999999987 A 150,100 0 0,0 171.76662488851167,191.26032261811574 L 171.76662488851167,211.26032261811574 A 150,100 0 0,1 117.00000000000017,133.9999999999999 Z M 171.76662488851167,191.26032261811574 A 150,100 0 0,0 220.06199390517702,208.97794734414765 L 220.06199390517702,228.97794734414765 A 150,100 0 0,1 171.76662488851167,211.26032261811574 Z M 220.06199390517702,208.97794734414765 A 150,100 0 0,0 417.00000000000017,113.99999999999991 L 417.00000000000017,133.99999999999991 A 150,100 0 0,1 220.06199390517702,228.97794734414765 Z"></path><path opacity="1" fill="url(#gradient4887)" clip-path="url(#clip4886)" d=" M 343.60444431189796,71.14749268756393 A 100,66.66666666666667 0 0,0 167.00000000000017,113.99999999999987 L 167.00000000000017,133.9999999999999 A 100,66.66666666666667 0 0,1 343.60444431189796,91.14749268756393 Z M 367.00000000000017,113.99999999999989 A 100,66.66666666666667 0 0,0 361.6516836825596,92.48970503785354 L 361.6516836825596,112.48970503785354 A 100,66.66666666666667 0 0,1 367.00000000000017,133.9999999999999 Z M 361.65168368255956,92.48970503785351 A 100,66.66666666666667 0 0,0 343.6044443118979,71.1474926875639 L 343.6044443118979,91.1474926875639 A 100,66.66666666666667 0 0,1 361.65168368255956,112.48970503785351 Z"></path><path fill="rgb(78, 148, 44)" opacity="0.7" d="M 417.00000000000017,113.99999999999989 A 150,100 0 0,0 408.9775255238393,81.73455755678037 L 408.9775255238393,101.73455755678037 A 150,100 0 0,1 417.00000000000017,133.9999999999999 Z"></path><path fill="rgb(78, 148, 44)" opacity="0.7" d="M417.00000000000017,133.9999999999999 A150,100 0 0,0 408.9775255238393,101.73455755678037 L 361.6516836825596,112.48970503785354 A100,66.66666666666667 0 0,1 367.00000000000017,133.9999999999999 Z"></path><path fill="rgb(78, 148, 44)" opacity="0.7" d="M 367.00000000000017,113.99999999999989 A 100,66.66666666666667 0 0,0 361.6516836825596,92.48970503785354 L 361.6516836825596,112.48970503785354 A 100,66.66666666666667 0 0,1 367.00000000000017,133.9999999999999 Z"></path><path fill="rgb(78, 148, 44)" opacity="0.7" d="M 408.9775255238393,81.73455755678037 L 361.6516836825596,92.48970503785354 L 361.6516836825596,112.48970503785354 L 408.9775255238393,101.73455755678037 Z"></path><path fill="rgb(78, 148, 44)" opacity="0.7" d="M417.00000000000017,113.99999999999989 A150,100 0 0,0 408.9775255238393,81.73455755678037 L 361.6516836825596,92.48970503785354 A100,66.66666666666667 0 0,1 367.00000000000017,113.99999999999989 Z"></path><path fill="url(#gradient4889)" opacity="0.8" d="M417.00000000000017,113.99999999999989 A150,100 0 0,0 408.9775255238393,81.73455755678037 L 361.6516836825596,92.48970503785354 A100,66.66666666666667 0 0,1 367.00000000000017,113.99999999999989 Z"></path><path opacity="1" fill="url(#gradient4890)" d=" M 117.00000000000017,113.99999999999987 A 150,100 0 0,0 171.76662488851167,191.26032261811574 L 171.76662488851167,211.26032261811574 A 150,100 0 0,1 117.00000000000017,133.9999999999999 Z M 171.76662488851167,191.26032261811574 A 150,100 0 0,0 220.06199390517702,208.97794734414765 L 220.06199390517702,228.97794734414765 A 150,100 0 0,1 171.76662488851167,211.26032261811574 Z M 220.06199390517702,208.97794734414765 A 150,100 0 0,0 417.00000000000017,113.99999999999991 L 417.00000000000017,133.99999999999991 A 150,100 0 0,1 220.06199390517702,228.97794734414765 Z"></path><path opacity="1" fill="url(#gradient4892)" clip-path="url(#clip4891)" d=" M 343.60444431189796,71.14749268756393 A 100,66.66666666666667 0 0,0 167.00000000000017,113.99999999999987 L 167.00000000000017,133.9999999999999 A 100,66.66666666666667 0 0,1 343.60444431189796,91.14749268756393 Z M 367.00000000000017,113.99999999999989 A 100,66.66666666666667 0 0,0 361.6516836825596,92.48970503785354 L 361.6516836825596,112.48970503785354 A 100,66.66666666666667 0 0,1 367.00000000000017,133.9999999999999 Z M 361.65168368255956,92.48970503785351 A 100,66.66666666666667 0 0,0 343.6044443118979,71.1474926875639 L 343.6044443118979,91.1474926875639 A 100,66.66666666666667 0 0,1 361.65168368255956,112.48970503785351 Z"></path><path fill="rgb(78, 148, 44)" opacity="0.7" d="M 235.70799593678476,177.31863156276506 A 100,66.66666666666667 0 0,0 367.00000000000017,113.9999999999999 L 367.00000000000017,133.9999999999999 A 100,66.66666666666667 0 0,1 235.70799593678476,197.31863156276506 Z"></path><path fill="rgb(78, 148, 44)" opacity="0.7" d="M220.06199390517702,228.97794734414765 A150,100 0 0,0 417.00000000000017,133.99999999999991 L 367.00000000000017,133.9999999999999 A100,66.66666666666667 0 0,1 235.70799593678476,197.31863156276506 Z"></path><path fill="rgb(78, 148, 44)" opacity="0.7" d="M 220.06199390517702,208.97794734414765 L 235.70799593678476,177.31863156276506 L 235.70799593678476,197.31863156276506 L 220.06199390517702,228.97794734414765 Z"></path><path fill="rgb(78, 148, 44)" opacity="0.7" d="M 220.06199390517702,208.97794734414765 A 150,100 0 0,0 417.00000000000017,113.99999999999991 L 417.00000000000017,133.99999999999991 A 150,100 0 0,1 220.06199390517702,228.97794734414765 Z"></path><path fill="rgb(78, 148, 44)" opacity="0.7" d="M220.06199390517702,208.97794734414765 A150,100 0 0,0 417.00000000000017,113.99999999999991 L 367.00000000000017,113.9999999999999 A100,66.66666666666667 0 0,1 235.70799593678476,177.31863156276506 Z"></path><path fill="url(#gradient4893)" opacity="0.8" d="M220.06199390517702,208.97794734414765 A150,100 0 0,0 417.00000000000017,113.99999999999991 L 367.00000000000017,113.9999999999999 A100,66.66666666666667 0 0,1 235.70799593678476,177.31863156276506 Z"></path><path opacity="1" fill="url(#gradient4894)" d=" M 117.00000000000017,113.99999999999987 A 150,100 0 0,0 171.76662488851167,191.26032261811574 L 171.76662488851167,211.26032261811574 A 150,100 0 0,1 117.00000000000017,133.9999999999999 Z M 171.76662488851167,191.26032261811574 A 150,100 0 0,0 220.06199390517702,208.97794734414765 L 220.06199390517702,228.97794734414765 A 150,100 0 0,1 171.76662488851167,211.26032261811574 Z M 220.06199390517702,208.97794734414765 A 150,100 0 0,0 417.00000000000017,113.99999999999991 L 417.00000000000017,133.99999999999991 A 150,100 0 0,1 220.06199390517702,228.97794734414765 Z"></path><path opacity="1" fill="url(#gradient4896)" clip-path="url(#clip4895)" d=" M 343.60444431189796,71.14749268756393 A 100,66.66666666666667 0 0,0 167.00000000000017,113.99999999999987 L 167.00000000000017,133.9999999999999 A 100,66.66666666666667 0 0,1 343.60444431189796,91.14749268756393 Z M 367.00000000000017,113.99999999999989 A 100,66.66666666666667 0 0,0 361.6516836825596,92.48970503785354 L 361.6516836825596,112.48970503785354 A 100,66.66666666666667 0 0,1 367.00000000000017,133.9999999999999 Z M 361.65168368255956,92.48970503785351 A 100,66.66666666666667 0 0,0 343.6044443118979,71.1474926875639 L 343.6044443118979,91.1474926875639 A 100,66.66666666666667 0 0,1 361.65168368255956,112.48970503785351 Z"></path></g></g><g opacity="1" id="label2843"><rect stroke-width="2" fill-opacity="1" fill="black" stroke="rgb(180,180,180)" ry="8" rx="8" height="18.5" width="72.01666641235352" y="9.049201965332031" x="0.4833335876464844"></rect><text text-anchor="end" fill="hsl(0, 0%, 100%)" font-size="12" y="22.54920233510444" x="62.00000000000017">JenScript</text><path stroke="darkgray" fill="none" d="M 160.39091173403307,43.65323256546492 Q 139.06909408083965,22.54920233510444 72.00000000000017,22.54920233510444"></path></g><g opacity="1" id="label2880"><rect stroke-width="2" fill-opacity="1" fill="black" stroke="rgb(244, 145, 26)" ry="8" rx="8" height="18.5" width="45.183332443237305" y="214.39413452148438" x="27.316665649414062"></rect><text text-anchor="end" fill="hsl(33, 91%, 73%)" font-size="12" y="227.89413963766964" x="62.00000000000017">SVG</text><path stroke="darkgray" fill="none" d="M 194.6829746144478,201.6108766443612 Q 180.21956953733732,227.89413963766964 72.00000000000017,227.89413963766964"></path></g><g opacity="1" id="label2917"><rect stroke-width="2" fill-opacity="1" fill="black" stroke="rgb(78, 148, 44)" ry="8" rx="8" height="18.5" width="39.70000076293945" y="191.95079040527344" x="461.4333190917969"></rect><text text-anchor="start" fill="hsl(100, 54%, 58%)" font-size="12" y="205.4507976648953" x="472.00000000000017">API</text><path stroke="darkgray" fill="none" d="M 373.60908826596733,184.34676743453483 Q 394.93090591916075,205.4507976648953 462.00000000000017,205.4507976648953"></path></g><g opacity="1" id="label2954"><rect stroke-width="2" fill-opacity="1" fill="black" stroke="hsl(4, 63%, 70%)" ry="8" rx="8" height="18.5" width="77.78333282470703" y="36.65925598144531" x="461.5"></rect><text text-anchor="start" fill="hsl(4, 63%, 70%)" font-size="12" y="50.159257829234726" x="472.00000000000017">JavaScript</text><path stroke="darkgray" fill="none" d="M 397.66694911299874,64.89173679171898 Q 423.80033893559846,50.159257829234726 462.00000000000017,50.159257829234726"></path></g></g></g><g transform="translate(0,0) scale(1,1)" id="proj_2722_Device_plugin_TranslatePlugin_2991"><defs id="proj_2722_Device_plugin_TranslatePlugin_2991_definition"></defs><g id="proj_2722_Device_plugin_TranslatePlugin_2991_graphics"></g></g></g></svg></g></svg></g><g id="view_donut3dview_selectors"><g id="view_donut3dview_selectors_definitions"></g><g id="view_donut3dview_selectors_graphics"></g></g><svg height="500" width="540" y="20" x="0" id="view_donut3dview_widgets"><defs id="view_donut3dview_widgets_definitions"></defs><g id="view_donut3dview_widgets_graphics"></g></svg><g id="view_donut3dview_foreground"><g id="foreground2719"><g id="view_donut3dview_foreground_definitions"></g><g id="view_donut3dview_foreground_graphics"><text text-anchor="start" fill-opacity="1" fill="#98e678" font-size="6" y="18" x="0" id="text_foreground2719">JenScript 1.1.2 - www.jensoftapi.com</text></g></g></g><g id="view_donut3dview_dispatcher"><svg height="20px" width="540px" y="520px" x="0px" id="view_donut3dview_South_dispatcher"><rect style="stroke: black;stroke-opacity: 0; fill: #0000ff;fill-opacity :0" height="20" width="540" y="0" x="0" id="view_donut3dview_dispatcher"></rect></svg><svg height="20px" width="540px" y="0px" x="0px" id="view_donut3dview_North_dispatcher"><rect style="stroke: black;stroke-opacity: 0; fill: #0000ff;fill-opacity :0" height="20" width="540" y="0" x="0" id="view_donut3dview_dispatcher"></rect></svg><svg height="500px" width="0px" y="20px" x="540px" id="view_donut3dview_East_dispatcher"><rect style="stroke: black;stroke-opacity: 0; fill: #0000ff;fill-opacity :0" height="500" width="0" y="0" x="0" id="view_donut3dview_dispatcher"></rect></svg><svg height="500px" width="0px" y="20px" x="0px" id="view_donut3dview_West_dispatcher"><rect style="stroke: black;stroke-opacity: 0; fill: #0000ff;fill-opacity :0" height="500" width="0" y="0" x="0" id="view_donut3dview_dispatcher"></rect></svg><svg height="500px" width="540px" y="20px" x="0px" id="view_donut3dview_Device_dispatcher"><rect style="stroke: black;stroke-opacity: 0; fill: #0000ff;fill-opacity :0" height="500" width="540" y="0" x="0" id="view_donut3dview_dispatcher"></rect></svg></g></svg>