<svg height="200" width="200" viewBox="0 0 200 200" id="view_view" version="1.1" xmlns:xlink="http://www.w3.org/1999/xlink" xmlns="http://www.w3.org/2000/svg"><g id="view_view_global_definitions"><pattern id="texture_carbon1" height="10" width="10" patternUnits="userSpaceOnUse"><rect fill="darkgray" stroke="none" height="10" width="10" y="0" x="0"></rect><polygon fill="black" stroke="none" points="5,0 5,10 0,5 "></polygon><polygon fill="black" stroke="none" points="5,0 10,0 10,5 "></polygon><polygon fill="black" stroke="none" points="10,5 10,10 5,10 "></polygon></pattern><linearGradient y2="0" x2="0" y1="-10" x1="0" id="texture_gradient1430" gradientUnits="userSpaceOnUse"><stop stop-opacity="1" stop-color="black" offset="0%"></stop><stop stop-opacity="1" stop-color="darkgray" offset="100%"></stop></linearGradient><linearGradient y2="-2.5" x2="5" y1="-2.5" x1="-5" id="texture_gradient1431" gradientUnits="userSpaceOnUse"><stop stop-opacity="1" stop-color="black" offset="0%"></stop><stop stop-opacity="1" stop-color="darkgray" offset="100%"></stop></linearGradient><linearGradient y2="5" x2="5" y1="-5" x1="5" id="texture_gradient1432" gradientUnits="userSpaceOnUse"><stop stop-opacity="1" stop-color="black" offset="0%"></stop><stop stop-opacity="1" stop-color="darkgray" offset="100%"></stop></linearGradient><linearGradient y2="-1.25" x2="10" y1="-1.25" x1="0" id="texture_gradient1433" gradientUnits="userSpaceOnUse"><stop stop-opacity="1" stop-color="black" offset="0%"></stop><stop stop-opacity="1" stop-color="darkgray" offset="100%"></stop></linearGradient><linearGradient y2="10" x2="10" y1="0" x1="10" id="texture_gradient1434" gradientUnits="userSpaceOnUse"><stop stop-opacity="1" stop-color="black" offset="0%"></stop><stop stop-opacity="1" stop-color="darkgray" offset="100%"></stop></linearGradient><linearGradient y2="0" x2="15" y1="0" x1="5" id="texture_gradient1435" gradientUnits="userSpaceOnUse"><stop stop-opacity="1" stop-color="black" offset="0%"></stop><stop stop-opacity="1" stop-color="darkgray" offset="100%"></stop></linearGradient><linearGradient y2="15" x2="15" y1="5" x1="15" id="texture_gradient1436" gradientUnits="userSpaceOnUse"><stop stop-opacity="1" stop-color="black" offset="0%"></stop><stop stop-opacity="1" stop-color="darkgray" offset="100%"></stop></linearGradient><linearGradient y2="1.25" x2="20" y1="1.25" x1="10" id="texture_gradient1437" gradientUnits="userSpaceOnUse"><stop stop-opacity="1" stop-color="black" offset="0%"></stop><stop stop-opacity="1" stop-color="darkgray" offset="100%"></stop></linearGradient><linearGradient y2="20" x2="20" y1="10" x1="20" id="texture_gradient1438" gradientUnits="userSpaceOnUse"><stop stop-opacity="1" stop-color="black" offset="0%"></stop><stop stop-opacity="1" stop-color="darkgray" offset="100%"></stop></linearGradient><linearGradient y2="2.5" x2="25" y1="2.5" x1="15" id="texture_gradient1439" gradientUnits="userSpaceOnUse"><stop stop-opacity="1" stop-color="black" offset="0%"></stop><stop stop-opacity="1" stop-color="darkgray" offset="100%"></stop></linearGradient><linearGradient y2="20" x2="0" y1="10" x1="0" id="texture_gradient1440" gradientUnits="userSpaceOnUse"><stop stop-opacity="1" stop-color="black" offset="0%"></stop><stop stop-opacity="1" stop-color="darkgray" offset="100%"></stop></linearGradient><linearGradient y2="2.5" x2="5" y1="2.5" x1="-5" id="texture_gradient1441" gradientUnits="userSpaceOnUse"><stop stop-opacity="1" stop-color="black" offset="0%"></stop><stop stop-opacity="1" stop-color="darkgray" offset="100%"></stop></linearGradient><linearGradient y2="25" x2="5" y1="15" x1="5" id="texture_gradient1442" gradientUnits="userSpaceOnUse"><stop stop-opacity="1" stop-color="black" offset="0%"></stop><stop stop-opacity="1" stop-color="darkgray" offset="100%"></stop></linearGradient><linearGradient y2="3.75" x2="10" y1="3.75" x1="0" id="texture_gradient1443" gradientUnits="userSpaceOnUse"><stop stop-opacity="1" stop-color="black" offset="0%"></stop><stop stop-opacity="1" stop-color="darkgray" offset="100%"></stop></linearGradient><linearGradient y2="30" x2="10" y1="20" x1="10" id="texture_gradient1444" gradientUnits="userSpaceOnUse"><stop stop-opacity="1" stop-color="black" offset="0%"></stop><stop stop-opacity="1" stop-color="darkgray" offset="100%"></stop></linearGradient><linearGradient y2="5" x2="15" y1="5" x1="5" id="texture_gradient1445" gradientUnits="userSpaceOnUse"><stop stop-opacity="1" stop-color="black" offset="0%"></stop><stop stop-opacity="1" stop-color="darkgray" offset="100%"></stop></linearGradient><linearGradient y2="35" x2="15" y1="25" x1="15" id="texture_gradient1446" gradientUnits="userSpaceOnUse"><stop stop-opacity="1" stop-color="black" offset="0%"></stop><stop stop-opacity="1" stop-color="darkgray" offset="100%"></stop></linearGradient><linearGradient y2="6.25" x2="20" y1="6.25" x1="10" id="texture_gradient1447" gradientUnits="userSpaceOnUse"><stop stop-opacity="1" stop-color="black" offset="0%"></stop><stop stop-opacity="1" stop-color="darkgray" offset="100%"></stop></linearGradient><linearGradient y2="40" x2="20" y1="30" x1="20" id="texture_gradient1448" gradientUnits="userSpaceOnUse"><stop stop-opacity="1" stop-color="black" offset="0%"></stop><stop stop-opacity="1" stop-color="darkgray" offset="100%"></stop></linearGradient><linearGradient y2="7.5" x2="25" y1="7.5" x1="15" id="texture_gradient1449" gradientUnits="userSpaceOnUse"><stop stop-opacity="1" stop-color="black" offset="0%"></stop><stop stop-opacity="1" stop-color="darkgray" offset="100%"></stop></linearGradient><pattern id="texture_carbon2" height="20" width="20" patternUnits="userSpaceOnUse"><rect fill="rgb(60,60,60)" stroke="none" height="20" width="20" y="0" x="0"></rect><rect fill="url(#texture_gradient1430)" stroke="none" height="10" width="10" y="-10" x="-5"></rect><rect fill="url(#texture_gradient1430)" stroke="none" height="5" width="10" y="-10" x="-5"></rect><rect fill="url(#texture_gradient1432)" stroke="none" height="10" width="10" y="-5" x="0"></rect><rect fill="url(#texture_gradient1432)" stroke="none" height="5" width="10" y="-5" x="0"></rect><rect fill="url(#texture_gradient1434)" stroke="none" height="10" width="10" y="0" x="5"></rect><rect fill="url(#texture_gradient1434)" stroke="none" height="5" width="10" y="0" x="5"></rect><rect fill="url(#texture_gradient1436)" stroke="none" height="10" width="10" y="5" x="10"></rect><rect fill="url(#texture_gradient1436)" stroke="none" height="5" width="10" y="5" x="10"></rect><rect fill="url(#texture_gradient1438)" stroke="none" height="10" width="10" y="10" x="15"></rect><rect fill="url(#texture_gradient1438)" stroke="none" height="5" width="10" y="10" x="15"></rect><rect fill="url(#texture_gradient1440)" stroke="none" height="10" width="10" y="10" x="-5"></rect><rect fill="url(#texture_gradient1440)" stroke="none" height="5" width="10" y="10" x="-5"></rect><rect fill="url(#texture_gradient1442)" stroke="none" height="10" width="10" y="15" x="0"></rect><rect fill="url(#texture_gradient1442)" stroke="none" height="5" width="10" y="15" x="0"></rect><rect fill="url(#texture_gradient1444)" stroke="none" height="10" width="10" y="20" x="5"></rect><rect fill="url(#texture_gradient1444)" stroke="none" height="5" width="10" y="20" x="5"></rect><rect fill="url(#texture_gradient1446)" stroke="none" height="10" width="10" y="25" x="10"></rect><rect fill="url(#texture_gradient1446)" stroke="none" height="5" width="10" y="25" x="10"></rect><rect fill="url(#texture_gradient1448)" stroke="none" height="10" width="10" y="30" x="15"></rect><rect fill="url(#texture_gradient1448)" stroke="none" height="5" width="10" y="30" x="15"></rect></pattern></g><g id="view_view_background"></g><g id="view_view_projections"><svg viewBox="0 0 300 300" version="1.1" xmlns:xlink="http://www.w3.org/1999/xlink" xmlns="http://www.w3.org/2000/svg" id="proj_1453"><defs id="proj_1453_definitions"></defs><g id="proj_1453_parts" xmlns="http://www.w3.org/2000/svg"><svg height="20" width="300" y="280" x="0" id="proj_1453_South"><g id="proj_1453_South_plugins"><g transform="translate(0,0) scale(1,1)" id="proj_1453_South_plugin_Donut2DPlugin_1454"><defs id="proj_1453_South_plugin_Donut2DPlugin_1454_definition"></defs><g id="proj_1453_South_plugin_Donut2DPlugin_1454_graphics"></g></g></g></svg><svg height="20" width="300" y="0" x="0" id="proj_1453_North"><g id="proj_1453_North_plugins"><g transform="translate(0,0) scale(1,1)" id="proj_1453_North_plugin_Donut2DPlugin_1454"><defs id="proj_1453_North_plugin_Donut2DPlugin_1454_definition"></defs><g id="proj_1453_North_plugin_Donut2DPlugin_1454_graphics"></g></g></g></svg><svg height="260" width="20" y="20" x="280" id="proj_1453_East"><g id="proj_1453_East_plugins"><g transform="translate(0,0) scale(1,1)" id="proj_1453_East_plugin_Donut2DPlugin_1454"><defs id="proj_1453_East_plugin_Donut2DPlugin_1454_definition"></defs><g id="proj_1453_East_plugin_Donut2DPlugin_1454_graphics"></g></g></g></svg><svg height="260" width="20" y="20" x="0" id="proj_1453_West"><g id="proj_1453_West_plugins"><g transform="translate(0,0) scale(1,1)" id="proj_1453_West_plugin_Donut2DPlugin_1454"><defs id="proj_1453_West_plugin_Donut2DPlugin_1454_definition"></defs><g id="proj_1453_West_plugin_Donut2DPlugin_1454_graphics"></g></g></g></svg><svg height="260" width="260" y="20" x="20" id="proj_1453_Device"><g id="proj_1453_Device_plugins"><g transform="translate(0,0) scale(1,1)" id="proj_1453_Device_plugin_Donut2DPlugin_1454"><defs id="proj_1453_Device_plugin_Donut2DPlugin_1454_definition"><radialGradient r="120" fy="130" fx="130" cy="130" cx="130" id="gradient1488" gradientUnits="userSpaceOnUse"><stop style="stop-color:#d6d6d6" offset="66.66666666666666%"></stop><stop style="stop-color:#f0f0f0" offset="83.33333333333334%"></stop><stop style="stop-color:#d6d6d6" offset="100%"></stop></radialGradient><radialGradient r="120" fy="130" fx="130" cy="130" cx="130" id="gradient1489" gradientUnits="userSpaceOnUse"><stop style="stop-color:#0d0d0e" offset="66.66666666666666%"></stop><stop style="stop-color:#252629" offset="83.33333333333334%"></stop><stop style="stop-color:#0d0d0e" offset="100%"></stop></radialGradient><radialGradient r="120" fy="130" fx="130" cy="130" cx="130" id="gradient1490" gradientUnits="userSpaceOnUse"><stop style="stop-color:#396d20" offset="66.66666666666666%"></stop><stop style="stop-color:#4e942c" offset="83.33333333333334%"></stop><stop style="stop-color:#396d20" offset="100%"></stop></radialGradient><radialGradient r="120" fy="130" fx="130" cy="130" cx="130" id="gradient1491" gradientUnits="userSpaceOnUse"><stop style="stop-color:#1162ac" offset="66.66666666666666%"></stop><stop style="stop-color:#167dda" offset="83.33333333333334%"></stop><stop style="stop-color:#1162ac" offset="100%"></stop></radialGradient><radialGradient r="120" fy="130" fx="130" cy="130" cx="130" id="gradient1492" gradientUnits="userSpaceOnUse"><stop style="stop-color:#281d45" offset="66.66666666666666%"></stop><stop style="stop-color:#3d2c69" offset="83.33333333333334%"></stop><stop style="stop-color:#281d45" offset="100%"></stop></radialGradient><linearGradient y2="231.32497224277932" x2="188.5" y1="28.67502775722066" x1="71.50000000000003" id="gradient1493" gradientUnits="userSpaceOnUse"><stop stop-opacity="0.6" stop-color="rgb(60, 60, 60)" offset="0%"></stop><stop stop-opacity="0" stop-color="rgb(255,255,255)" offset="49%"></stop><stop stop-opacity="0" stop-color="rgb(255,255,255)" offset="51%"></stop><stop stop-opacity="0.6" stop-color="rgb(255, 255, 255)" offset="100%"></stop></linearGradient><linearGradient y2="231.32497224277932" x2="188.5" y1="28.67502775722066" x1="71.50000000000003" id="gradient1494" gradientUnits="userSpaceOnUse"><stop stop-opacity="0.6" stop-color="rgb(60, 60, 60)" offset="0%"></stop><stop stop-opacity="0" stop-color="rgb(255,255,255)" offset="49%"></stop><stop stop-opacity="0" stop-color="rgb(255,255,255)" offset="51%"></stop><stop stop-opacity="0.6" stop-color="rgb(255, 255, 255)" offset="100%"></stop></linearGradient><linearGradient y2="231.32497224277932" x2="188.5" y1="28.67502775722066" x1="71.50000000000003" id="gradient1495" gradientUnits="userSpaceOnUse"><stop stop-opacity="0.6" stop-color="rgb(60, 60, 60)" offset="0%"></stop><stop stop-opacity="0" stop-color="rgb(255,255,255)" offset="49%"></stop><stop stop-opacity="0" stop-color="rgb(255,255,255)" offset="51%"></stop><stop stop-opacity="0.6" stop-color="rgb(255, 255, 255)" offset="100%"></stop></linearGradient><linearGradient y2="231.32497224277932" x2="188.5" y1="28.67502775722066" x1="71.50000000000003" id="gradient1496" gradientUnits="userSpaceOnUse"><stop stop-opacity="0.6" stop-color="rgb(60, 60, 60)" offset="0%"></stop><stop stop-opacity="0" stop-color="rgb(255,255,255)" offset="49%"></stop><stop stop-opacity="0" stop-color="rgb(255,255,255)" offset="51%"></stop><stop stop-opacity="0.6" stop-color="rgb(255, 255, 255)" offset="100%"></stop></linearGradient><linearGradient y2="231.32497224277932" x2="188.5" y1="28.67502775722066" x1="71.50000000000003" id="gradient1497" gradientUnits="userSpaceOnUse"><stop stop-opacity="0.6" stop-color="rgb(60, 60, 60)" offset="0%"></stop><stop stop-opacity="0" stop-color="rgb(255,255,255)" offset="49%"></stop><stop stop-opacity="0" stop-color="rgb(255,255,255)" offset="51%"></stop><stop stop-opacity="0.6" stop-color="rgb(255, 255, 255)" offset="100%"></stop></linearGradient><clipPath id="clip1498" clipPathUnits="userSpaceOnUse"><rect height="129.29464721679688" width="254.99380493164062" y="256.8753741979599" x="-1.7139164209365845"></rect></clipPath><filter height="258.58929443359375" width="254.99380493164062" y="-1.71392023563385" x="-1.7139164209365845" id="filter1499" filterUnits="userSpaceOnUse"><feGaussianBlur stdDeviation="3" in="SourceGraphic"></feGaussianBlur></filter></defs><g id="proj_1453_Device_plugin_Donut2DPlugin_1454_graphics"><g id="donut2d1455"><path fill-opacity="1" fill="url(#gradient1488)" stroke="none" d="M214.85281374238573,45.14718625761434 A120,120 0 0,0 45.14718625761428,214.8528137423857 L 73.43145750507618,186.5685424949238 A80,80 0 0,1 186.56854249492383,73.43145750507622 Z"></path><path fill-opacity="1" fill="url(#gradient1489)" stroke="none" d="M45.14718625761428,214.8528137423857 A120,120 0 0,0 79.28580859111601,238.75693444439798 L 96.190539060744,202.504622962932 A80,80 0 0,1 73.43145750507618,186.5685424949238 Z"></path><path fill-opacity="1" fill="url(#gradient1490)" stroke="none" d="M79.28580859111601,238.75693444439798 A120,120 0 0,0 249.54336377100947,119.54131087028095 L 209.69557584733963,123.0275405801873 A80,80 0 0,1 96.190539060744,202.504622962932 Z"></path><path fill-opacity="1" fill="url(#gradient1491)" stroke="none" d="M249.54336377100947,119.54131087028102 A120,120 0 0,0 238.75693444439798,79.28580859111607 L 202.504622962932,96.19053906074404 A80,80 0 0,1 209.69557584733963,123.02754058018735 Z"></path><path fill-opacity="1" fill="url(#gradient1492)" stroke="none" d="M238.75693444439798,79.28580859111607 A120,120 0 0,0 214.8528137423857,45.14718625761431 L 186.5685424949238,73.4314575050762 A80,80 0 0,1 202.504622962932,96.19053906074404 Z"></path><path fill="url(#gradient1493)" fill-opacity="1" stroke="none" d="M212.7314933988261,47.26850660117397 A117,117 0 0,0 47.268506601173925,212.73149339882605 L 71.31013716151654,188.68986283848344 A83,83 0 0,1 188.68986283848346,71.31013716151658 Z"></path><path fill="url(#gradient1494)" fill-opacity="1" stroke="none" d="M47.268506601173925,212.73149339882605 A117,117 0 0,0 80.55366337633811,236.038011083288 L 94.9226842755219,205.22354632404193 A83,83 0 0,1 71.31013716151654,188.68986283848344 Z"></path><path fill="url(#gradient1495)" fill-opacity="1" stroke="none" d="M80.55366337633811,236.038011083288 A117,117 0 0,0 246.5547796767342,119.80277809852393 L 212.68415994161487,122.76607335194433 A83,83 0 0,1 94.9226842755219,205.22354632404193 Z"></path><path fill="url(#gradient1496)" fill-opacity="1" stroke="none" d="M246.55477967673423,119.80277809852399 A117,117 0 0,0 236.03801108328804,80.55366337633816 L 205.22354632404193,94.92268427552195 A83,83 0 0,1 212.6841599416149,122.76607335194437 Z"></path><path fill="url(#gradient1497)" fill-opacity="1" stroke="none" d="M236.03801108328804,80.55366337633816 A117,117 0 0,0 212.73149339882605,47.268506601173954 L 188.68986283848346,71.31013716151656 A83,83 0 0,1 205.22354632404193,94.92268427552195 Z"></path></g><g clip-path="url(#clip1498)"><g id="null_reflection1500" opacity="0.3" transform="translate(0,258.58929443359375), scale(1,-1), translate(0,-255.16145396232605)" filter="url(#filter1499)"><path fill-opacity="1" fill="url(#gradient1488)" stroke="none" d="M214.85281374238573,45.14718625761434 A120,120 0 0,0 45.14718625761428,214.8528137423857 L 73.43145750507618,186.5685424949238 A80,80 0 0,1 186.56854249492383,73.43145750507622 Z"></path><path fill-opacity="1" fill="url(#gradient1489)" stroke="none" d="M45.14718625761428,214.8528137423857 A120,120 0 0,0 79.28580859111601,238.75693444439798 L 96.190539060744,202.504622962932 A80,80 0 0,1 73.43145750507618,186.5685424949238 Z"></path><path fill-opacity="1" fill="url(#gradient1490)" stroke="none" d="M79.28580859111601,238.75693444439798 A120,120 0 0,0 249.54336377100947,119.54131087028095 L 209.69557584733963,123.0275405801873 A80,80 0 0,1 96.190539060744,202.504622962932 Z"></path><path fill-opacity="1" fill="url(#gradient1491)" stroke="none" d="M249.54336377100947,119.54131087028102 A120,120 0 0,0 238.75693444439798,79.28580859111607 L 202.504622962932,96.19053906074404 A80,80 0 0,1 209.69557584733963,123.02754058018735 Z"></path><path fill-opacity="1" fill="url(#gradient1492)" stroke="none" d="M238.75693444439798,79.28580859111607 A120,120 0 0,0 214.8528137423857,45.14718625761431 L 186.5685424949238,73.4314575050762 A80,80 0 0,1 202.504622962932,96.19053906074404 Z"></path><path fill="url(#gradient1493)" fill-opacity="1" stroke="none" d="M212.7314933988261,47.26850660117397 A117,117 0 0,0 47.268506601173925,212.73149339882605 L 71.31013716151654,188.68986283848344 A83,83 0 0,1 188.68986283848346,71.31013716151658 Z"></path><path fill="url(#gradient1494)" fill-opacity="1" stroke="none" d="M47.268506601173925,212.73149339882605 A117,117 0 0,0 80.55366337633811,236.038011083288 L 94.9226842755219,205.22354632404193 A83,83 0 0,1 71.31013716151654,188.68986283848344 Z"></path><path fill="url(#gradient1495)" fill-opacity="1" stroke="none" d="M80.55366337633811,236.038011083288 A117,117 0 0,0 246.5547796767342,119.80277809852393 L 212.68415994161487,122.76607335194433 A83,83 0 0,1 94.9226842755219,205.22354632404193 Z"></path><path fill="url(#gradient1496)" fill-opacity="1" stroke="none" d="M246.55477967673423,119.80277809852399 A117,117 0 0,0 236.03801108328804,80.55366337633816 L 205.22354632404193,94.92268427552195 A83,83 0 0,1 212.6841599416149,122.76607335194437 Z"></path><path fill="url(#gradient1497)" fill-opacity="1" stroke="none" d="M236.03801108328804,80.55366337633816 A117,117 0 0,0 212.73149339882605,47.268506601173954 L 188.68986283848346,71.31013716151656 A83,83 0 0,1 205.22354632404193,94.92268427552195 Z"></path></g></g></g></g></g></svg></g></svg></g><g id="view_view_selectors"><g id="view_view_selectors_definitions"></g><g id="view_view_selectors_graphics"></g></g><svg height="260" width="260" y="20" x="20" id="view_view_widgets"><defs id="view_view_widgets_definitions"></defs><g id="view_view_widgets_graphics"></g></svg><g id="view_view_foreground"><g id="foreground1451"><g id="view_view_foreground_definitions"></g><g id="view_view_foreground_graphics"><text text-anchor="start" fill-opacity="1" fill="#dfe7bb" font-size="6" y="18" x="20" id="text_foreground1451">JenScript 1.1.0 - www.jensoftapi.com</text></g></g></g><g id="view_view_dispatcher"><svg height="20px" width="300px" y="280px" x="0px" id="view_view_South_dispatcher"><rect style="stroke: black;stroke-opacity: 0; fill: #0000ff;fill-opacity :0" height="20" width="300" y="0" x="0" id="view_view_dispatcher"></rect></svg><svg height="20px" width="300px" y="0px" x="0px" id="view_view_North_dispatcher"><rect style="stroke: black;stroke-opacity: 0; fill: #0000ff;fill-opacity :0" height="20" width="300" y="0" x="0" id="view_view_dispatcher"></rect></svg><svg height="260px" width="20px" y="20px" x="280px" id="view_view_East_dispatcher"><rect style="stroke: black;stroke-opacity: 0; fill: #0000ff;fill-opacity :0" height="260" width="20" y="0" x="0" id="view_view_dispatcher"></rect></svg><svg height="260px" width="20px" y="20px" x="0px" id="view_view_West_dispatcher"><rect style="stroke: black;stroke-opacity: 0; fill: #0000ff;fill-opacity :0" height="260" width="20" y="0" x="0" id="view_view_dispatcher"></rect></svg><svg height="260px" width="260px" y="20px" x="20px" id="view_view_Device_dispatcher"><rect style="stroke: black;stroke-opacity: 0; fill: #0000ff;fill-opacity :0" height="260" width="260" y="0" x="0" id="view_view_dispatcher"></rect></svg></g></svg>