<svg xmlns="http://www.w3.org/2000/svg" xmlns:xlink="http://www.w3.org/1999/xlink" version="1.1" id="view_view" viewBox="0 0 400 400" width="120" height="120"><g id="view_view_global_definitions"><pattern patternUnits="userSpaceOnUse" width="10" height="10" id="texture_carbon1"><rect x="0" y="0" width="10" height="10" stroke="none" fill="darkgray"></rect><polygon points="5,0 5,10 0,5 " stroke="none" fill="black"></polygon><polygon points="5,0 10,0 10,5 " stroke="none" fill="black"></polygon><polygon points="10,5 10,10 5,10 " stroke="none" fill="black"></polygon></pattern><linearGradient gradientUnits="userSpaceOnUse" id="texture_gradient8" x1="0" y1="-10" x2="0" y2="0"><stop offset="0%" stop-color="black" stop-opacity="1"></stop><stop offset="100%" stop-color="darkgray" stop-opacity="1"></stop></linearGradient><linearGradient gradientUnits="userSpaceOnUse" id="texture_gradient9" x1="-5" y1="-2.5" x2="5" y2="-2.5"><stop offset="0%" stop-color="black" stop-opacity="1"></stop><stop offset="100%" stop-color="darkgray" stop-opacity="1"></stop></linearGradient><linearGradient gradientUnits="userSpaceOnUse" id="texture_gradient10" x1="5" y1="-5" x2="5" y2="5"><stop offset="0%" stop-color="black" stop-opacity="1"></stop><stop offset="100%" stop-color="darkgray" stop-opacity="1"></stop></linearGradient><linearGradient gradientUnits="userSpaceOnUse" id="texture_gradient11" x1="0" y1="-1.25" x2="10" y2="-1.25"><stop offset="0%" stop-color="black" stop-opacity="1"></stop><stop offset="100%" stop-color="darkgray" stop-opacity="1"></stop></linearGradient><linearGradient gradientUnits="userSpaceOnUse" id="texture_gradient12" x1="10" y1="0" x2="10" y2="10"><stop offset="0%" stop-color="black" stop-opacity="1"></stop><stop offset="100%" stop-color="darkgray" stop-opacity="1"></stop></linearGradient><linearGradient gradientUnits="userSpaceOnUse" id="texture_gradient13" x1="5" y1="0" x2="15" y2="0"><stop offset="0%" stop-color="black" stop-opacity="1"></stop><stop offset="100%" stop-color="darkgray" stop-opacity="1"></stop></linearGradient><linearGradient gradientUnits="userSpaceOnUse" id="texture_gradient14" x1="15" y1="5" x2="15" y2="15"><stop offset="0%" stop-color="black" stop-opacity="1"></stop><stop offset="100%" stop-color="darkgray" stop-opacity="1"></stop></linearGradient><linearGradient gradientUnits="userSpaceOnUse" id="texture_gradient15" x1="10" y1="1.25" x2="20" y2="1.25"><stop offset="0%" stop-color="black" stop-opacity="1"></stop><stop offset="100%" stop-color="darkgray" stop-opacity="1"></stop></linearGradient><linearGradient gradientUnits="userSpaceOnUse" id="texture_gradient16" x1="20" y1="10" x2="20" y2="20"><stop offset="0%" stop-color="black" stop-opacity="1"></stop><stop offset="100%" stop-color="darkgray" stop-opacity="1"></stop></linearGradient><linearGradient gradientUnits="userSpaceOnUse" id="texture_gradient17" x1="15" y1="2.5" x2="25" y2="2.5"><stop offset="0%" stop-color="black" stop-opacity="1"></stop><stop offset="100%" stop-color="darkgray" stop-opacity="1"></stop></linearGradient><linearGradient gradientUnits="userSpaceOnUse" id="texture_gradient18" x1="0" y1="10" x2="0" y2="20"><stop offset="0%" stop-color="black" stop-opacity="1"></stop><stop offset="100%" stop-color="darkgray" stop-opacity="1"></stop></linearGradient><linearGradient gradientUnits="userSpaceOnUse" id="texture_gradient19" x1="-5" y1="2.5" x2="5" y2="2.5"><stop offset="0%" stop-color="black" stop-opacity="1"></stop><stop offset="100%" stop-color="darkgray" stop-opacity="1"></stop></linearGradient><linearGradient gradientUnits="userSpaceOnUse" id="texture_gradient20" x1="5" y1="15" x2="5" y2="25"><stop offset="0%" stop-color="black" stop-opacity="1"></stop><stop offset="100%" stop-color="darkgray" stop-opacity="1"></stop></linearGradient><linearGradient gradientUnits="userSpaceOnUse" id="texture_gradient21" x1="0" y1="3.75" x2="10" y2="3.75"><stop offset="0%" stop-color="black" stop-opacity="1"></stop><stop offset="100%" stop-color="darkgray" stop-opacity="1"></stop></linearGradient><linearGradient gradientUnits="userSpaceOnUse" id="texture_gradient22" x1="10" y1="20" x2="10" y2="30"><stop offset="0%" stop-color="black" stop-opacity="1"></stop><stop offset="100%" stop-color="darkgray" stop-opacity="1"></stop></linearGradient><linearGradient gradientUnits="userSpaceOnUse" id="texture_gradient23" x1="5" y1="5" x2="15" y2="5"><stop offset="0%" stop-color="black" stop-opacity="1"></stop><stop offset="100%" stop-color="darkgray" stop-opacity="1"></stop></linearGradient><linearGradient gradientUnits="userSpaceOnUse" id="texture_gradient24" x1="15" y1="25" x2="15" y2="35"><stop offset="0%" stop-color="black" stop-opacity="1"></stop><stop offset="100%" stop-color="darkgray" stop-opacity="1"></stop></linearGradient><linearGradient gradientUnits="userSpaceOnUse" id="texture_gradient25" x1="10" y1="6.25" x2="20" y2="6.25"><stop offset="0%" stop-color="black" stop-opacity="1"></stop><stop offset="100%" stop-color="darkgray" stop-opacity="1"></stop></linearGradient><linearGradient gradientUnits="userSpaceOnUse" id="texture_gradient26" x1="20" y1="30" x2="20" y2="40"><stop offset="0%" stop-color="black" stop-opacity="1"></stop><stop offset="100%" stop-color="darkgray" stop-opacity="1"></stop></linearGradient><linearGradient gradientUnits="userSpaceOnUse" id="texture_gradient27" x1="15" y1="7.5" x2="25" y2="7.5"><stop offset="0%" stop-color="black" stop-opacity="1"></stop><stop offset="100%" stop-color="darkgray" stop-opacity="1"></stop></linearGradient><pattern patternUnits="userSpaceOnUse" width="20" height="20" id="texture_carbon2"><rect x="0" y="0" width="20" height="20" stroke="none" fill="rgb(60,60,60)"></rect><rect x="-5" y="-10" width="10" height="10" stroke="none" fill="url(#texture_gradient8)"></rect><rect x="-5" y="-10" width="10" height="5" stroke="none" fill="url(#texture_gradient8)"></rect><rect x="0" y="-5" width="10" height="10" stroke="none" fill="url(#texture_gradient10)"></rect><rect x="0" y="-5" width="10" height="5" stroke="none" fill="url(#texture_gradient10)"></rect><rect x="5" y="0" width="10" height="10" stroke="none" fill="url(#texture_gradient12)"></rect><rect x="5" y="0" width="10" height="5" stroke="none" fill="url(#texture_gradient12)"></rect><rect x="10" y="5" width="10" height="10" stroke="none" fill="url(#texture_gradient14)"></rect><rect x="10" y="5" width="10" height="5" stroke="none" fill="url(#texture_gradient14)"></rect><rect x="15" y="10" width="10" height="10" stroke="none" fill="url(#texture_gradient16)"></rect><rect x="15" y="10" width="10" height="5" stroke="none" fill="url(#texture_gradient16)"></rect><rect x="-5" y="10" width="10" height="10" stroke="none" fill="url(#texture_gradient18)"></rect><rect x="-5" y="10" width="10" height="5" stroke="none" fill="url(#texture_gradient18)"></rect><rect x="0" y="15" width="10" height="10" stroke="none" fill="url(#texture_gradient20)"></rect><rect x="0" y="15" width="10" height="5" stroke="none" fill="url(#texture_gradient20)"></rect><rect x="5" y="20" width="10" height="10" stroke="none" fill="url(#texture_gradient22)"></rect><rect x="5" y="20" width="10" height="5" stroke="none" fill="url(#texture_gradient22)"></rect><rect x="10" y="25" width="10" height="10" stroke="none" fill="url(#texture_gradient24)"></rect><rect x="10" y="25" width="10" height="5" stroke="none" fill="url(#texture_gradient24)"></rect><rect x="15" y="30" width="10" height="10" stroke="none" fill="url(#texture_gradient26)"></rect><rect x="15" y="30" width="10" height="5" stroke="none" fill="url(#texture_gradient26)"></rect></pattern></g><g id="view_view_background"></g><g id="view_view_projections"><g xmlns="http://www.w3.org/2000/svg" id="proj_32_group"><svg id="proj_32" xmlns="http://www.w3.org/2000/svg" xmlns:xlink="http://www.w3.org/1999/xlink" version="1.1" viewBox="0 0 400 400"><defs id="proj_32_definitions"></defs><g xmlns="http://www.w3.org/2000/svg" id="proj_32_parts"><svg id="proj_32_South" x="0" y="400" width="400" height="0"><g id="proj_32_South_plugins"><g id="proj_32_South_plugin_Donut3DPlugin_33" transform="translate(0,0) scale(1,1)"><defs id="proj_32_South_plugin_Donut3DPlugin_33_definition"></defs><g id="proj_32_South_plugin_Donut3DPlugin_33_graphics"></g></g></g></svg><svg id="proj_32_North" x="0" y="0" width="400" height="0"><g id="proj_32_North_plugins"><g id="proj_32_North_plugin_Donut3DPlugin_33" transform="translate(0,0) scale(1,1)"><defs id="proj_32_North_plugin_Donut3DPlugin_33_definition"></defs><g id="proj_32_North_plugin_Donut3DPlugin_33_graphics"></g></g></g></svg><svg id="proj_32_East" x="400" y="0" width="0" height="400"><g id="proj_32_East_plugins"><g id="proj_32_East_plugin_Donut3DPlugin_33" transform="translate(0,0) scale(1,1)"><defs id="proj_32_East_plugin_Donut3DPlugin_33_definition"></defs><g id="proj_32_East_plugin_Donut3DPlugin_33_graphics"></g></g></g></svg><svg id="proj_32_West" x="0" y="0" width="0" height="400"><g id="proj_32_West_plugins"><g id="proj_32_West_plugin_Donut3DPlugin_33" transform="translate(0,0) scale(1,1)"><defs id="proj_32_West_plugin_Donut3DPlugin_33_definition"></defs><g id="proj_32_West_plugin_Donut3DPlugin_33_graphics"></g></g></g></svg><svg id="proj_32_Device" x="0" y="0" width="400" height="400"><g id="proj_32_Device_plugins"><g id="proj_32_Device_plugin_Donut3DPlugin_33" transform="translate(0,0) scale(1,1)"><defs id="proj_32_Device_plugin_Donut3DPlugin_33_definition"><clipPath id="clip122"><path d="M345.5484441926058,58.580236106371686 A190,126.66666666666667 0 0,0 10,139.99999999999997 L 80,140 A120,80 0 0,1 291.92533317427734,88.57699122507685 ZM10,139.99999999999997 A190,126.66666666666667 0 0,0 79.37105819211457,237.86307531628006 L 123.8132999108092,201.8082580944927 A120,80 0 0,1 80,140 ZM79.37105819211457,237.86307531628006 A190,126.66666666666667 0 0,0 140.5451922798907,260.30539996925387 L 162.4495951241415,215.98235787531823 A120,80 0 0,1 123.8132999108092,201.8082580944927 ZM140.5451922798907,260.30539996925387 A190,126.66666666666667 0 0,0 390,140.00000000000003 L 320,140.00000000000003 A120,80 0 0,1 162.4495951241415,215.98235787531823 ZM390,140 A190,126.66666666666667 0 0,0 379.83819899686296,99.13043957192195 L 313.58202041907134,114.18764604542439 A120,80 0 0,1 320,140 ZM379.8381989968629,99.1304395719219 A190,126.66666666666667 0 0,0 345.54844419260576,58.5802361063716 L 291.9253331742773,88.57699122507681 A120,80 0 0,1 313.5820204190713,114.18764604542434 Z"></path></clipPath><linearGradient gradientUnits="userSpaceOnUse" id="gradient123" x1="200" y1="13.333333333333329" x2="199.99999999999997" y2="266.6666666666667"><stop offset="0%" stop-color="rgb(40, 40, 40)" stop-opacity="0.5"></stop><stop offset="45%" stop-color="rgb(40, 40, 40)" stop-opacity="0"></stop><stop offset="55%" stop-color="rgb(255, 255, 255)" stop-opacity="0"></stop><stop offset="100%" stop-color="rgb(255, 255, 255)" stop-opacity="0.8"></stop></linearGradient><linearGradient gradientUnits="userSpaceOnUse" id="gradient124" x1="10" y1="140" x2="390" y2="140"><stop offset="0%" stop-color="rgb(40, 40, 40)" stop-opacity="0.3"></stop><stop offset="40%" stop-color="rgb(40, 40, 40)" stop-opacity="0.05"></stop><stop offset="80%" stop-color="rgb(255, 255, 255)" stop-opacity="0.05"></stop><stop offset="100%" stop-color="rgb(255, 255, 255)" stop-opacity="0.5"></stop></linearGradient><clipPath id="clip125"><ellipse cx="200" cy="140" rx="120" ry="80"></ellipse></clipPath><linearGradient gradientUnits="userSpaceOnUse" id="gradient126" x1="320" y1="140" x2="80" y2="140"><stop offset="0%" stop-color="rgb(40, 40, 40)" stop-opacity="0.2"></stop><stop offset="40%" stop-color="rgb(40, 40, 40)" stop-opacity="0.3"></stop><stop offset="80%" stop-color="rgb(240, 240, 240)" stop-opacity="0"></stop><stop offset="100%" stop-color="rgb(240, 240, 240)" stop-opacity="0.6"></stop></linearGradient><linearGradient gradientUnits="userSpaceOnUse" id="gradient127" x1="200" y1="13.333333333333329" x2="199.99999999999997" y2="266.6666666666667"><stop offset="0%" stop-color="rgb(40, 40, 40)" stop-opacity="0.5"></stop><stop offset="45%" stop-color="rgb(40, 40, 40)" stop-opacity="0"></stop><stop offset="55%" stop-color="rgb(255, 255, 255)" stop-opacity="0"></stop><stop offset="100%" stop-color="rgb(255, 255, 255)" stop-opacity="0.8"></stop></linearGradient><linearGradient gradientUnits="userSpaceOnUse" id="gradient128" x1="10" y1="140" x2="390" y2="140"><stop offset="0%" stop-color="rgb(40, 40, 40)" stop-opacity="0.3"></stop><stop offset="40%" stop-color="rgb(40, 40, 40)" stop-opacity="0.05"></stop><stop offset="80%" stop-color="rgb(255, 255, 255)" stop-opacity="0.05"></stop><stop offset="100%" stop-color="rgb(255, 255, 255)" stop-opacity="0.5"></stop></linearGradient><clipPath id="clip129"><ellipse cx="200" cy="140" rx="120" ry="80"></ellipse></clipPath><linearGradient gradientUnits="userSpaceOnUse" id="gradient130" x1="320" y1="140" x2="80" y2="140"><stop offset="0%" stop-color="rgb(40, 40, 40)" stop-opacity="0.2"></stop><stop offset="40%" stop-color="rgb(40, 40, 40)" stop-opacity="0.3"></stop><stop offset="80%" stop-color="rgb(240, 240, 240)" stop-opacity="0"></stop><stop offset="100%" stop-color="rgb(240, 240, 240)" stop-opacity="0.6"></stop></linearGradient><linearGradient gradientUnits="userSpaceOnUse" id="gradient131" x1="200" y1="13.333333333333329" x2="199.99999999999997" y2="266.6666666666667"><stop offset="0%" stop-color="rgb(40, 40, 40)" stop-opacity="0.5"></stop><stop offset="45%" stop-color="rgb(40, 40, 40)" stop-opacity="0"></stop><stop offset="55%" stop-color="rgb(255, 255, 255)" stop-opacity="0"></stop><stop offset="100%" stop-color="rgb(255, 255, 255)" stop-opacity="0.8"></stop></linearGradient><linearGradient gradientUnits="userSpaceOnUse" id="gradient132" x1="10" y1="140" x2="390" y2="140"><stop offset="0%" stop-color="rgb(40, 40, 40)" stop-opacity="0.3"></stop><stop offset="40%" stop-color="rgb(40, 40, 40)" stop-opacity="0.05"></stop><stop offset="80%" stop-color="rgb(255, 255, 255)" stop-opacity="0.05"></stop><stop offset="100%" stop-color="rgb(255, 255, 255)" stop-opacity="0.5"></stop></linearGradient><clipPath id="clip133"><ellipse cx="200" cy="140" rx="120" ry="80"></ellipse></clipPath><linearGradient gradientUnits="userSpaceOnUse" id="gradient134" x1="320" y1="140" x2="80" y2="140"><stop offset="0%" stop-color="rgb(40, 40, 40)" stop-opacity="0.2"></stop><stop offset="40%" stop-color="rgb(40, 40, 40)" stop-opacity="0.3"></stop><stop offset="80%" stop-color="rgb(240, 240, 240)" stop-opacity="0"></stop><stop offset="100%" stop-color="rgb(240, 240, 240)" stop-opacity="0.6"></stop></linearGradient><clipPath id="clip135"><path d="M345.5484441926058,58.580236106371686 A190,126.66666666666667 0 0,0 10,139.99999999999997 L 80,140 A120,80 0 0,1 291.92533317427734,88.57699122507685 ZM10,139.99999999999997 A190,126.66666666666667 0 0,0 79.37105819211457,237.86307531628006 L 123.8132999108092,201.8082580944927 A120,80 0 0,1 80,140 ZM79.37105819211457,237.86307531628006 A190,126.66666666666667 0 0,0 140.5451922798907,260.30539996925387 L 162.4495951241415,215.98235787531823 A120,80 0 0,1 123.8132999108092,201.8082580944927 ZM140.5451922798907,260.30539996925387 A190,126.66666666666667 0 0,0 390,140.00000000000003 L 320,140.00000000000003 A120,80 0 0,1 162.4495951241415,215.98235787531823 ZM390,140 A190,126.66666666666667 0 0,0 379.83819899686296,99.13043957192195 L 313.58202041907134,114.18764604542439 A120,80 0 0,1 320,140 ZM379.8381989968629,99.1304395719219 A190,126.66666666666667 0 0,0 345.54844419260576,58.5802361063716 L 291.9253331742773,88.57699122507681 A120,80 0 0,1 313.5820204190713,114.18764604542434 Z"></path></clipPath><linearGradient gradientUnits="userSpaceOnUse" id="gradient136" x1="200" y1="13.333333333333329" x2="199.99999999999997" y2="266.6666666666667"><stop offset="0%" stop-color="rgb(40, 40, 40)" stop-opacity="0.5"></stop><stop offset="45%" stop-color="rgb(40, 40, 40)" stop-opacity="0"></stop><stop offset="55%" stop-color="rgb(255, 255, 255)" stop-opacity="0"></stop><stop offset="100%" stop-color="rgb(255, 255, 255)" stop-opacity="0.8"></stop></linearGradient><linearGradient gradientUnits="userSpaceOnUse" id="gradient137" x1="10" y1="140" x2="390" y2="140"><stop offset="0%" stop-color="rgb(40, 40, 40)" stop-opacity="0.3"></stop><stop offset="40%" stop-color="rgb(40, 40, 40)" stop-opacity="0.05"></stop><stop offset="80%" stop-color="rgb(255, 255, 255)" stop-opacity="0.05"></stop><stop offset="100%" stop-color="rgb(255, 255, 255)" stop-opacity="0.5"></stop></linearGradient><clipPath id="clip138"><ellipse cx="200" cy="140" rx="120" ry="80"></ellipse></clipPath><linearGradient gradientUnits="userSpaceOnUse" id="gradient139" x1="320" y1="140" x2="80" y2="140"><stop offset="0%" stop-color="rgb(40, 40, 40)" stop-opacity="0.2"></stop><stop offset="40%" stop-color="rgb(40, 40, 40)" stop-opacity="0.3"></stop><stop offset="80%" stop-color="rgb(240, 240, 240)" stop-opacity="0"></stop><stop offset="100%" stop-color="rgb(240, 240, 240)" stop-opacity="0.6"></stop></linearGradient><clipPath id="clip140"><path d="M345.5484441926058,58.580236106371686 A190,126.66666666666667 0 0,0 10,139.99999999999997 L 80,140 A120,80 0 0,1 291.92533317427734,88.57699122507685 ZM10,139.99999999999997 A190,126.66666666666667 0 0,0 79.37105819211457,237.86307531628006 L 123.8132999108092,201.8082580944927 A120,80 0 0,1 80,140 ZM79.37105819211457,237.86307531628006 A190,126.66666666666667 0 0,0 140.5451922798907,260.30539996925387 L 162.4495951241415,215.98235787531823 A120,80 0 0,1 123.8132999108092,201.8082580944927 ZM140.5451922798907,260.30539996925387 A190,126.66666666666667 0 0,0 390,140.00000000000003 L 320,140.00000000000003 A120,80 0 0,1 162.4495951241415,215.98235787531823 ZM390,140 A190,126.66666666666667 0 0,0 379.83819899686296,99.13043957192195 L 313.58202041907134,114.18764604542439 A120,80 0 0,1 320,140 ZM379.8381989968629,99.1304395719219 A190,126.66666666666667 0 0,0 345.54844419260576,58.5802361063716 L 291.9253331742773,88.57699122507681 A120,80 0 0,1 313.5820204190713,114.18764604542434 Z"></path></clipPath><linearGradient gradientUnits="userSpaceOnUse" id="gradient141" x1="200" y1="13.333333333333329" x2="199.99999999999997" y2="266.6666666666667"><stop offset="0%" stop-color="rgb(40, 40, 40)" stop-opacity="0.5"></stop><stop offset="45%" stop-color="rgb(40, 40, 40)" stop-opacity="0"></stop><stop offset="55%" stop-color="rgb(255, 255, 255)" stop-opacity="0"></stop><stop offset="100%" stop-color="rgb(255, 255, 255)" stop-opacity="0.8"></stop></linearGradient><linearGradient gradientUnits="userSpaceOnUse" id="gradient142" x1="10" y1="140" x2="390" y2="140"><stop offset="0%" stop-color="rgb(40, 40, 40)" stop-opacity="0.3"></stop><stop offset="40%" stop-color="rgb(40, 40, 40)" stop-opacity="0.05"></stop><stop offset="80%" stop-color="rgb(255, 255, 255)" stop-opacity="0.05"></stop><stop offset="100%" stop-color="rgb(255, 255, 255)" stop-opacity="0.5"></stop></linearGradient><clipPath id="clip143"><ellipse cx="200" cy="140" rx="120" ry="80"></ellipse></clipPath><linearGradient gradientUnits="userSpaceOnUse" id="gradient144" x1="320" y1="140" x2="80" y2="140"><stop offset="0%" stop-color="rgb(40, 40, 40)" stop-opacity="0.2"></stop><stop offset="40%" stop-color="rgb(40, 40, 40)" stop-opacity="0.3"></stop><stop offset="80%" stop-color="rgb(240, 240, 240)" stop-opacity="0"></stop><stop offset="100%" stop-color="rgb(240, 240, 240)" stop-opacity="0.6"></stop></linearGradient><linearGradient gradientUnits="userSpaceOnUse" id="gradient145" x1="200" y1="13.333333333333329" x2="199.99999999999997" y2="266.6666666666667"><stop offset="0%" stop-color="rgb(40, 40, 40)" stop-opacity="0.5"></stop><stop offset="45%" stop-color="rgb(40, 40, 40)" stop-opacity="0"></stop><stop offset="55%" stop-color="rgb(255, 255, 255)" stop-opacity="0"></stop><stop offset="100%" stop-color="rgb(255, 255, 255)" stop-opacity="0.8"></stop></linearGradient><linearGradient gradientUnits="userSpaceOnUse" id="gradient146" x1="10" y1="140" x2="390" y2="140"><stop offset="0%" stop-color="rgb(40, 40, 40)" stop-opacity="0.3"></stop><stop offset="40%" stop-color="rgb(40, 40, 40)" stop-opacity="0.05"></stop><stop offset="80%" stop-color="rgb(255, 255, 255)" stop-opacity="0.05"></stop><stop offset="100%" stop-color="rgb(255, 255, 255)" stop-opacity="0.5"></stop></linearGradient><clipPath id="clip147"><ellipse cx="200" cy="140" rx="120" ry="80"></ellipse></clipPath><linearGradient gradientUnits="userSpaceOnUse" id="gradient148" x1="320" y1="140" x2="80" y2="140"><stop offset="0%" stop-color="rgb(40, 40, 40)" stop-opacity="0.2"></stop><stop offset="40%" stop-color="rgb(40, 40, 40)" stop-opacity="0.3"></stop><stop offset="80%" stop-color="rgb(240, 240, 240)" stop-opacity="0"></stop><stop offset="100%" stop-color="rgb(240, 240, 240)" stop-opacity="0.6"></stop></linearGradient><clipPath clipPathUnits="userSpaceOnUse" id="clip149"><rect x="9.999996185302734" y="307.2191734313965" width="380" height="158.29083251953125"></rect></clipPath><filter filterUnits="userSpaceOnUse" id="filter150" x="9.999996185302734" y="-9.362491607666016" width="380" height="316.5816650390625"><feGaussianBlur in="SourceGraphic" stdDeviation="3"></feGaussianBlur></filter></defs><g id="proj_32_Device_plugin_Donut3DPlugin_33_graphics"><g id="donut3d34"><path d="M 345.5484441926058,58.580236106371686 A 190,126.66666666666667 0 0,0 10,139.99999999999997 L 10,166.66666666666663 A 190,126.66666666666667 0 0,1 345.5484441926058,85.24690277303836 Z" opacity="0.7" fill="rgb(250, 250, 250)"></path><path d="M345.5484441926058,85.24690277303836 A190,126.66666666666667 0 0,0 10,166.66666666666663 L 80,166.66666666666666 A120,80 0 0,1 291.92533317427734,115.24365789174351 Z" opacity="0.7" fill="rgb(250, 250, 250)"></path><path d="M 291.92533317427734,88.57699122507685 A 120,80 0 0,0 80,140 L 80,166.66666666666666 A 120,80 0 0,1 291.92533317427734,115.24365789174351 Z" opacity="0.7" fill="rgb(250, 250, 250)"></path><path d="M 345.5484441926058,58.580236106371686 L 291.92533317427734,88.57699122507685 L 291.92533317427734,115.24365789174351 L 345.5484441926058,85.24690277303836 Z" opacity="0.7" fill="rgb(250, 250, 250)"></path><path d="M345.5484441926058,58.580236106371686 A190,126.66666666666667 0 0,0 10,139.99999999999997 L 80,140 A120,80 0 0,1 291.92533317427734,88.57699122507685 Z" opacity="0.7" fill="rgb(250, 250, 250)"></path><path d="M345.5484441926058,58.580236106371686 A190,126.66666666666667 0 0,0 10,139.99999999999997 L 80,140 A120,80 0 0,1 291.92533317427734,88.57699122507685 Z" opacity="0.8" fill="url(#gradient123)"></path><path d=" M 10,139.99999999999997 A 190,126.66666666666667 0 0,0 79.37105819211457,237.86307531628006 L 79.37105819211457,264.52974198294675 A 190,126.66666666666667 0 0,1 10,166.66666666666663 Z M 79.37105819211457,237.86307531628006 A 190,126.66666666666667 0 0,0 140.5451922798907,260.30539996925387 L 140.5451922798907,286.97206663592056 A 190,126.66666666666667 0 0,1 79.37105819211457,264.52974198294675 Z M 140.5451922798907,260.30539996925387 A 190,126.66666666666667 0 0,0 390,140.00000000000003 L 390,166.66666666666669 A 190,126.66666666666667 0 0,1 140.5451922798907,286.97206663592056 Z" fill="url(#gradient124)" opacity="1"></path><path d=" M 291.92533317427734,88.57699122507685 A 120,80 0 0,0 80,140 L 80,166.66666666666666 A 120,80 0 0,1 291.92533317427734,115.24365789174351 Z M 320,140 A 120,80 0 0,0 313.58202041907134,114.18764604542439 L 313.58202041907134,140.85431271209106 A 120,80 0 0,1 320,166.66666666666666 Z M 313.5820204190713,114.18764604542434 A 120,80 0 0,0 291.9253331742773,88.57699122507681 L 291.9253331742773,115.24365789174348 A 120,80 0 0,1 313.5820204190713,140.854312712091 Z" clip-path="url(#clip125)" fill="url(#gradient126)" opacity="1"></path><path d="M 80,140 A 120,80 0 0,0 123.8132999108092,201.8082580944927 L 123.8132999108092,228.47492476115934 A 120,80 0 0,1 80,166.66666666666666 Z" opacity="0.7" fill="rgb(250, 250, 250)"></path><path d="M10,166.66666666666663 A190,126.66666666666667 0 0,0 79.37105819211457,264.52974198294675 L 123.8132999108092,228.47492476115934 A120,80 0 0,1 80,166.66666666666666 Z" opacity="0.7" fill="rgb(250, 250, 250)"></path><path d="M 79.37105819211457,237.86307531628006 L 123.8132999108092,201.8082580944927 L 123.8132999108092,228.47492476115934 L 79.37105819211457,264.52974198294675 Z" opacity="0.7" fill="rgb(250, 250, 250)"></path><path d="M 10,139.99999999999997 A 190,126.66666666666667 0 0,0 79.37105819211457,237.86307531628006 L 79.37105819211457,264.52974198294675 A 190,126.66666666666667 0 0,1 10,166.66666666666663 Z" opacity="0.7" fill="rgb(250, 250, 250)"></path><path d="M10,139.99999999999997 A190,126.66666666666667 0 0,0 79.37105819211457,237.86307531628006 L 123.8132999108092,201.8082580944927 A120,80 0 0,1 80,140 Z" opacity="0.7" fill="rgb(250, 250, 250)"></path><path d="M10,139.99999999999997 A190,126.66666666666667 0 0,0 79.37105819211457,237.86307531628006 L 123.8132999108092,201.8082580944927 A120,80 0 0,1 80,140 Z" opacity="0.8" fill="url(#gradient127)"></path><path d=" M 10,139.99999999999997 A 190,126.66666666666667 0 0,0 79.37105819211457,237.86307531628006 L 79.37105819211457,264.52974198294675 A 190,126.66666666666667 0 0,1 10,166.66666666666663 Z M 79.37105819211457,237.86307531628006 A 190,126.66666666666667 0 0,0 140.5451922798907,260.30539996925387 L 140.5451922798907,286.97206663592056 A 190,126.66666666666667 0 0,1 79.37105819211457,264.52974198294675 Z M 140.5451922798907,260.30539996925387 A 190,126.66666666666667 0 0,0 390,140.00000000000003 L 390,166.66666666666669 A 190,126.66666666666667 0 0,1 140.5451922798907,286.97206663592056 Z" fill="url(#gradient128)" opacity="1"></path><path d=" M 291.92533317427734,88.57699122507685 A 120,80 0 0,0 80,140 L 80,166.66666666666666 A 120,80 0 0,1 291.92533317427734,115.24365789174351 Z M 320,140 A 120,80 0 0,0 313.58202041907134,114.18764604542439 L 313.58202041907134,140.85431271209106 A 120,80 0 0,1 320,166.66666666666666 Z M 313.5820204190713,114.18764604542434 A 120,80 0 0,0 291.9253331742773,88.57699122507681 L 291.9253331742773,115.24365789174348 A 120,80 0 0,1 313.5820204190713,140.854312712091 Z" clip-path="url(#clip129)" fill="url(#gradient130)" opacity="1"></path><path d="M 123.8132999108092,201.8082580944927 A 120,80 0 0,0 162.4495951241415,215.98235787531823 L 162.4495951241415,242.6490245419849 A 120,80 0 0,1 123.8132999108092,228.47492476115934 Z" opacity="0.7" fill="rgb(244, 145, 26)"></path><path d="M79.37105819211457,264.52974198294675 A190,126.66666666666667 0 0,0 140.5451922798907,286.97206663592056 L 162.4495951241415,242.6490245419849 A120,80 0 0,1 123.8132999108092,228.47492476115934 Z" opacity="0.7" fill="rgb(244, 145, 26)"></path><path d="M 79.37105819211457,237.86307531628006 L 123.8132999108092,201.8082580944927 L 123.8132999108092,228.47492476115934 L 79.37105819211457,264.52974198294675 Z" opacity="0.7" fill="rgb(244, 145, 26)"></path><path d="M 140.5451922798907,260.30539996925387 L 162.4495951241415,215.98235787531823 L 162.4495951241415,242.6490245419849 L 140.5451922798907,286.97206663592056 Z" opacity="0.7" fill="rgb(244, 145, 26)"></path><path d="M 79.37105819211457,237.86307531628006 A 190,126.66666666666667 0 0,0 140.5451922798907,260.30539996925387 L 140.5451922798907,286.97206663592056 A 190,126.66666666666667 0 0,1 79.37105819211457,264.52974198294675 Z" opacity="0.7" fill="rgb(244, 145, 26)"></path><path d="M79.37105819211457,237.86307531628006 A190,126.66666666666667 0 0,0 140.5451922798907,260.30539996925387 L 162.4495951241415,215.98235787531823 A120,80 0 0,1 123.8132999108092,201.8082580944927 Z" opacity="0.7" fill="rgb(244, 145, 26)"></path><path d="M79.37105819211457,237.86307531628006 A190,126.66666666666667 0 0,0 140.5451922798907,260.30539996925387 L 162.4495951241415,215.98235787531823 A120,80 0 0,1 123.8132999108092,201.8082580944927 Z" opacity="0.8" fill="url(#gradient131)"></path><path d=" M 10,139.99999999999997 A 190,126.66666666666667 0 0,0 79.37105819211457,237.86307531628006 L 79.37105819211457,264.52974198294675 A 190,126.66666666666667 0 0,1 10,166.66666666666663 Z M 79.37105819211457,237.86307531628006 A 190,126.66666666666667 0 0,0 140.5451922798907,260.30539996925387 L 140.5451922798907,286.97206663592056 A 190,126.66666666666667 0 0,1 79.37105819211457,264.52974198294675 Z M 140.5451922798907,260.30539996925387 A 190,126.66666666666667 0 0,0 390,140.00000000000003 L 390,166.66666666666669 A 190,126.66666666666667 0 0,1 140.5451922798907,286.97206663592056 Z" fill="url(#gradient132)" opacity="1"></path><path d=" M 291.92533317427734,88.57699122507685 A 120,80 0 0,0 80,140 L 80,166.66666666666666 A 120,80 0 0,1 291.92533317427734,115.24365789174351 Z M 320,140 A 120,80 0 0,0 313.58202041907134,114.18764604542439 L 313.58202041907134,140.85431271209106 A 120,80 0 0,1 320,166.66666666666666 Z M 313.5820204190713,114.18764604542434 A 120,80 0 0,0 291.9253331742773,88.57699122507681 L 291.9253331742773,115.24365789174348 A 120,80 0 0,1 313.5820204190713,140.854312712091 Z" clip-path="url(#clip133)" fill="url(#gradient134)" opacity="1"></path><path d="M 379.8381989968629,99.1304395719219 A 190,126.66666666666667 0 0,0 345.54844419260576,58.5802361063716 L 345.54844419260576,85.24690277303827 A 190,126.66666666666667 0 0,1 379.8381989968629,125.79710623858855 Z" opacity="0.7" fill="rgb(142, 68, 173)"></path><path d="M379.8381989968629,125.79710623858855 A190,126.66666666666667 0 0,0 345.54844419260576,85.24690277303827 L 291.9253331742773,115.24365789174348 A120,80 0 0,1 313.5820204190713,140.854312712091 Z" opacity="0.7" fill="rgb(142, 68, 173)"></path><path d="M 313.5820204190713,114.18764604542434 A 120,80 0 0,0 291.9253331742773,88.57699122507681 L 291.9253331742773,115.24365789174348 A 120,80 0 0,1 313.5820204190713,140.854312712091 Z" opacity="0.7" fill="rgb(142, 68, 173)"></path><path d="M 379.8381989968629,99.1304395719219 L 313.5820204190713,114.18764604542434 L 313.5820204190713,140.854312712091 L 379.8381989968629,125.79710623858855 Z" opacity="0.7" fill="rgb(142, 68, 173)"></path><path d="M 345.54844419260576,58.5802361063716 L 291.9253331742773,88.57699122507681 L 291.9253331742773,115.24365789174348 L 345.54844419260576,85.24690277303827 Z" opacity="0.7" fill="rgb(142, 68, 173)"></path><path d="M379.8381989968629,99.1304395719219 A190,126.66666666666667 0 0,0 345.54844419260576,58.5802361063716 L 291.9253331742773,88.57699122507681 A120,80 0 0,1 313.5820204190713,114.18764604542434 Z" opacity="0.7" fill="rgb(142, 68, 173)"></path><path d="M379.8381989968629,99.1304395719219 A190,126.66666666666667 0 0,0 345.54844419260576,58.5802361063716 L 291.9253331742773,88.57699122507681 A120,80 0 0,1 313.5820204190713,114.18764604542434 Z" opacity="0.8" fill="url(#gradient136)"></path><path d=" M 10,139.99999999999997 A 190,126.66666666666667 0 0,0 79.37105819211457,237.86307531628006 L 79.37105819211457,264.52974198294675 A 190,126.66666666666667 0 0,1 10,166.66666666666663 Z M 79.37105819211457,237.86307531628006 A 190,126.66666666666667 0 0,0 140.5451922798907,260.30539996925387 L 140.5451922798907,286.97206663592056 A 190,126.66666666666667 0 0,1 79.37105819211457,264.52974198294675 Z M 140.5451922798907,260.30539996925387 A 190,126.66666666666667 0 0,0 390,140.00000000000003 L 390,166.66666666666669 A 190,126.66666666666667 0 0,1 140.5451922798907,286.97206663592056 Z" fill="url(#gradient137)" opacity="1"></path><path d=" M 291.92533317427734,88.57699122507685 A 120,80 0 0,0 80,140 L 80,166.66666666666666 A 120,80 0 0,1 291.92533317427734,115.24365789174351 Z M 320,140 A 120,80 0 0,0 313.58202041907134,114.18764604542439 L 313.58202041907134,140.85431271209106 A 120,80 0 0,1 320,166.66666666666666 Z M 313.5820204190713,114.18764604542434 A 120,80 0 0,0 291.9253331742773,88.57699122507681 L 291.9253331742773,115.24365789174348 A 120,80 0 0,1 313.5820204190713,140.854312712091 Z" clip-path="url(#clip138)" fill="url(#gradient139)" opacity="1"></path><path d="M 390,140 A 190,126.66666666666667 0 0,0 379.83819899686296,99.13043957192195 L 379.83819899686296,125.79710623858861 A 190,126.66666666666667 0 0,1 390,166.66666666666666 Z" opacity="0.7" fill="rgb(41, 128, 185)"></path><path d="M390,166.66666666666666 A190,126.66666666666667 0 0,0 379.83819899686296,125.79710623858861 L 313.58202041907134,140.85431271209106 A120,80 0 0,1 320,166.66666666666666 Z" opacity="0.7" fill="rgb(41, 128, 185)"></path><path d="M 320,140 A 120,80 0 0,0 313.58202041907134,114.18764604542439 L 313.58202041907134,140.85431271209106 A 120,80 0 0,1 320,166.66666666666666 Z" opacity="0.7" fill="rgb(41, 128, 185)"></path><path d="M 379.83819899686296,99.13043957192195 L 313.58202041907134,114.18764604542439 L 313.58202041907134,140.85431271209106 L 379.83819899686296,125.79710623858861 Z" opacity="0.7" fill="rgb(41, 128, 185)"></path><path d="M390,140 A190,126.66666666666667 0 0,0 379.83819899686296,99.13043957192195 L 313.58202041907134,114.18764604542439 A120,80 0 0,1 320,140 Z" opacity="0.7" fill="rgb(41, 128, 185)"></path><path d="M390,140 A190,126.66666666666667 0 0,0 379.83819899686296,99.13043957192195 L 313.58202041907134,114.18764604542439 A120,80 0 0,1 320,140 Z" opacity="0.8" fill="url(#gradient141)"></path><path d=" M 10,139.99999999999997 A 190,126.66666666666667 0 0,0 79.37105819211457,237.86307531628006 L 79.37105819211457,264.52974198294675 A 190,126.66666666666667 0 0,1 10,166.66666666666663 Z M 79.37105819211457,237.86307531628006 A 190,126.66666666666667 0 0,0 140.5451922798907,260.30539996925387 L 140.5451922798907,286.97206663592056 A 190,126.66666666666667 0 0,1 79.37105819211457,264.52974198294675 Z M 140.5451922798907,260.30539996925387 A 190,126.66666666666667 0 0,0 390,140.00000000000003 L 390,166.66666666666669 A 190,126.66666666666667 0 0,1 140.5451922798907,286.97206663592056 Z" fill="url(#gradient142)" opacity="1"></path><path d=" M 291.92533317427734,88.57699122507685 A 120,80 0 0,0 80,140 L 80,166.66666666666666 A 120,80 0 0,1 291.92533317427734,115.24365789174351 Z M 320,140 A 120,80 0 0,0 313.58202041907134,114.18764604542439 L 313.58202041907134,140.85431271209106 A 120,80 0 0,1 320,166.66666666666666 Z M 313.5820204190713,114.18764604542434 A 120,80 0 0,0 291.9253331742773,88.57699122507681 L 291.9253331742773,115.24365789174348 A 120,80 0 0,1 313.5820204190713,140.854312712091 Z" clip-path="url(#clip143)" fill="url(#gradient144)" opacity="1"></path><path d="M 162.4495951241415,215.98235787531823 A 120,80 0 0,0 320,140.00000000000003 L 320,166.66666666666669 A 120,80 0 0,1 162.4495951241415,242.6490245419849 Z" opacity="0.7" fill="rgb(41, 128, 185)"></path><path d="M140.5451922798907,286.97206663592056 A190,126.66666666666667 0 0,0 390,166.66666666666669 L 320,166.66666666666669 A120,80 0 0,1 162.4495951241415,242.6490245419849 Z" opacity="0.7" fill="rgb(41, 128, 185)"></path><path d="M 140.5451922798907,260.30539996925387 L 162.4495951241415,215.98235787531823 L 162.4495951241415,242.6490245419849 L 140.5451922798907,286.97206663592056 Z" opacity="0.7" fill="rgb(41, 128, 185)"></path><path d="M 140.5451922798907,260.30539996925387 A 190,126.66666666666667 0 0,0 390,140.00000000000003 L 390,166.66666666666669 A 190,126.66666666666667 0 0,1 140.5451922798907,286.97206663592056 Z" opacity="0.7" fill="rgb(41, 128, 185)"></path><path d="M140.5451922798907,260.30539996925387 A190,126.66666666666667 0 0,0 390,140.00000000000003 L 320,140.00000000000003 A120,80 0 0,1 162.4495951241415,215.98235787531823 Z" opacity="0.7" fill="rgb(41, 128, 185)"></path><path d="M140.5451922798907,260.30539996925387 A190,126.66666666666667 0 0,0 390,140.00000000000003 L 320,140.00000000000003 A120,80 0 0,1 162.4495951241415,215.98235787531823 Z" opacity="0.8" fill="url(#gradient145)"></path><path d=" M 10,139.99999999999997 A 190,126.66666666666667 0 0,0 79.37105819211457,237.86307531628006 L 79.37105819211457,264.52974198294675 A 190,126.66666666666667 0 0,1 10,166.66666666666663 Z M 79.37105819211457,237.86307531628006 A 190,126.66666666666667 0 0,0 140.5451922798907,260.30539996925387 L 140.5451922798907,286.97206663592056 A 190,126.66666666666667 0 0,1 79.37105819211457,264.52974198294675 Z M 140.5451922798907,260.30539996925387 A 190,126.66666666666667 0 0,0 390,140.00000000000003 L 390,166.66666666666669 A 190,126.66666666666667 0 0,1 140.5451922798907,286.97206663592056 Z" fill="url(#gradient146)" opacity="1"></path><path d=" M 291.92533317427734,88.57699122507685 A 120,80 0 0,0 80,140 L 80,166.66666666666666 A 120,80 0 0,1 291.92533317427734,115.24365789174351 Z M 320,140 A 120,80 0 0,0 313.58202041907134,114.18764604542439 L 313.58202041907134,140.85431271209106 A 120,80 0 0,1 320,166.66666666666666 Z M 313.5820204190713,114.18764604542434 A 120,80 0 0,0 291.9253331742773,88.57699122507681 L 291.9253331742773,115.24365789174348 A 120,80 0 0,1 313.5820204190713,140.854312712091 Z" clip-path="url(#clip147)" fill="url(#gradient148)" opacity="1"></path></g><g clip-path="url(#clip149)"><g filter="url(#filter150)" transform="translate(0,316.5816650390625), scale(1,-1), translate(0,-297.85668182373047)" opacity="0.3" id="null_reflection151"><path d="M 345.5484441926058,58.580236106371686 A 190,126.66666666666667 0 0,0 10,139.99999999999997 L 10,166.66666666666663 A 190,126.66666666666667 0 0,1 345.5484441926058,85.24690277303836 Z" opacity="0.7" fill="rgb(250, 250, 250)"></path><path d="M345.5484441926058,85.24690277303836 A190,126.66666666666667 0 0,0 10,166.66666666666663 L 80,166.66666666666666 A120,80 0 0,1 291.92533317427734,115.24365789174351 Z" opacity="0.7" fill="rgb(250, 250, 250)"></path><path d="M 291.92533317427734,88.57699122507685 A 120,80 0 0,0 80,140 L 80,166.66666666666666 A 120,80 0 0,1 291.92533317427734,115.24365789174351 Z" opacity="0.7" fill="rgb(250, 250, 250)"></path><path d="M 345.5484441926058,58.580236106371686 L 291.92533317427734,88.57699122507685 L 291.92533317427734,115.24365789174351 L 345.5484441926058,85.24690277303836 Z" opacity="0.7" fill="rgb(250, 250, 250)"></path><path d="M345.5484441926058,58.580236106371686 A190,126.66666666666667 0 0,0 10,139.99999999999997 L 80,140 A120,80 0 0,1 291.92533317427734,88.57699122507685 Z" opacity="0.7" fill="rgb(250, 250, 250)"></path><path d="M345.5484441926058,58.580236106371686 A190,126.66666666666667 0 0,0 10,139.99999999999997 L 80,140 A120,80 0 0,1 291.92533317427734,88.57699122507685 Z" opacity="0.8" fill="url(#gradient123)"></path><path d=" M 10,139.99999999999997 A 190,126.66666666666667 0 0,0 79.37105819211457,237.86307531628006 L 79.37105819211457,264.52974198294675 A 190,126.66666666666667 0 0,1 10,166.66666666666663 Z M 79.37105819211457,237.86307531628006 A 190,126.66666666666667 0 0,0 140.5451922798907,260.30539996925387 L 140.5451922798907,286.97206663592056 A 190,126.66666666666667 0 0,1 79.37105819211457,264.52974198294675 Z M 140.5451922798907,260.30539996925387 A 190,126.66666666666667 0 0,0 390,140.00000000000003 L 390,166.66666666666669 A 190,126.66666666666667 0 0,1 140.5451922798907,286.97206663592056 Z" fill="url(#gradient124)" opacity="1"></path><path d=" M 291.92533317427734,88.57699122507685 A 120,80 0 0,0 80,140 L 80,166.66666666666666 A 120,80 0 0,1 291.92533317427734,115.24365789174351 Z M 320,140 A 120,80 0 0,0 313.58202041907134,114.18764604542439 L 313.58202041907134,140.85431271209106 A 120,80 0 0,1 320,166.66666666666666 Z M 313.5820204190713,114.18764604542434 A 120,80 0 0,0 291.9253331742773,88.57699122507681 L 291.9253331742773,115.24365789174348 A 120,80 0 0,1 313.5820204190713,140.854312712091 Z" clip-path="url(#clip125)" fill="url(#gradient126)" opacity="1"></path><path d="M 80,140 A 120,80 0 0,0 123.8132999108092,201.8082580944927 L 123.8132999108092,228.47492476115934 A 120,80 0 0,1 80,166.66666666666666 Z" opacity="0.7" fill="rgb(250, 250, 250)"></path><path d="M10,166.66666666666663 A190,126.66666666666667 0 0,0 79.37105819211457,264.52974198294675 L 123.8132999108092,228.47492476115934 A120,80 0 0,1 80,166.66666666666666 Z" opacity="0.7" fill="rgb(250, 250, 250)"></path><path d="M 79.37105819211457,237.86307531628006 L 123.8132999108092,201.8082580944927 L 123.8132999108092,228.47492476115934 L 79.37105819211457,264.52974198294675 Z" opacity="0.7" fill="rgb(250, 250, 250)"></path><path d="M 10,139.99999999999997 A 190,126.66666666666667 0 0,0 79.37105819211457,237.86307531628006 L 79.37105819211457,264.52974198294675 A 190,126.66666666666667 0 0,1 10,166.66666666666663 Z" opacity="0.7" fill="rgb(250, 250, 250)"></path><path d="M10,139.99999999999997 A190,126.66666666666667 0 0,0 79.37105819211457,237.86307531628006 L 123.8132999108092,201.8082580944927 A120,80 0 0,1 80,140 Z" opacity="0.7" fill="rgb(250, 250, 250)"></path><path d="M10,139.99999999999997 A190,126.66666666666667 0 0,0 79.37105819211457,237.86307531628006 L 123.8132999108092,201.8082580944927 A120,80 0 0,1 80,140 Z" opacity="0.8" fill="url(#gradient127)"></path><path d=" M 10,139.99999999999997 A 190,126.66666666666667 0 0,0 79.37105819211457,237.86307531628006 L 79.37105819211457,264.52974198294675 A 190,126.66666666666667 0 0,1 10,166.66666666666663 Z M 79.37105819211457,237.86307531628006 A 190,126.66666666666667 0 0,0 140.5451922798907,260.30539996925387 L 140.5451922798907,286.97206663592056 A 190,126.66666666666667 0 0,1 79.37105819211457,264.52974198294675 Z M 140.5451922798907,260.30539996925387 A 190,126.66666666666667 0 0,0 390,140.00000000000003 L 390,166.66666666666669 A 190,126.66666666666667 0 0,1 140.5451922798907,286.97206663592056 Z" fill="url(#gradient128)" opacity="1"></path><path d=" M 291.92533317427734,88.57699122507685 A 120,80 0 0,0 80,140 L 80,166.66666666666666 A 120,80 0 0,1 291.92533317427734,115.24365789174351 Z M 320,140 A 120,80 0 0,0 313.58202041907134,114.18764604542439 L 313.58202041907134,140.85431271209106 A 120,80 0 0,1 320,166.66666666666666 Z M 313.5820204190713,114.18764604542434 A 120,80 0 0,0 291.9253331742773,88.57699122507681 L 291.9253331742773,115.24365789174348 A 120,80 0 0,1 313.5820204190713,140.854312712091 Z" clip-path="url(#clip129)" fill="url(#gradient130)" opacity="1"></path><path d="M 123.8132999108092,201.8082580944927 A 120,80 0 0,0 162.4495951241415,215.98235787531823 L 162.4495951241415,242.6490245419849 A 120,80 0 0,1 123.8132999108092,228.47492476115934 Z" opacity="0.7" fill="rgb(244, 145, 26)"></path><path d="M79.37105819211457,264.52974198294675 A190,126.66666666666667 0 0,0 140.5451922798907,286.97206663592056 L 162.4495951241415,242.6490245419849 A120,80 0 0,1 123.8132999108092,228.47492476115934 Z" opacity="0.7" fill="rgb(244, 145, 26)"></path><path d="M 79.37105819211457,237.86307531628006 L 123.8132999108092,201.8082580944927 L 123.8132999108092,228.47492476115934 L 79.37105819211457,264.52974198294675 Z" opacity="0.7" fill="rgb(244, 145, 26)"></path><path d="M 140.5451922798907,260.30539996925387 L 162.4495951241415,215.98235787531823 L 162.4495951241415,242.6490245419849 L 140.5451922798907,286.97206663592056 Z" opacity="0.7" fill="rgb(244, 145, 26)"></path><path d="M 79.37105819211457,237.86307531628006 A 190,126.66666666666667 0 0,0 140.5451922798907,260.30539996925387 L 140.5451922798907,286.97206663592056 A 190,126.66666666666667 0 0,1 79.37105819211457,264.52974198294675 Z" opacity="0.7" fill="rgb(244, 145, 26)"></path><path d="M79.37105819211457,237.86307531628006 A190,126.66666666666667 0 0,0 140.5451922798907,260.30539996925387 L 162.4495951241415,215.98235787531823 A120,80 0 0,1 123.8132999108092,201.8082580944927 Z" opacity="0.7" fill="rgb(244, 145, 26)"></path><path d="M79.37105819211457,237.86307531628006 A190,126.66666666666667 0 0,0 140.5451922798907,260.30539996925387 L 162.4495951241415,215.98235787531823 A120,80 0 0,1 123.8132999108092,201.8082580944927 Z" opacity="0.8" fill="url(#gradient131)"></path><path d=" M 10,139.99999999999997 A 190,126.66666666666667 0 0,0 79.37105819211457,237.86307531628006 L 79.37105819211457,264.52974198294675 A 190,126.66666666666667 0 0,1 10,166.66666666666663 Z M 79.37105819211457,237.86307531628006 A 190,126.66666666666667 0 0,0 140.5451922798907,260.30539996925387 L 140.5451922798907,286.97206663592056 A 190,126.66666666666667 0 0,1 79.37105819211457,264.52974198294675 Z M 140.5451922798907,260.30539996925387 A 190,126.66666666666667 0 0,0 390,140.00000000000003 L 390,166.66666666666669 A 190,126.66666666666667 0 0,1 140.5451922798907,286.97206663592056 Z" fill="url(#gradient132)" opacity="1"></path><path d=" M 291.92533317427734,88.57699122507685 A 120,80 0 0,0 80,140 L 80,166.66666666666666 A 120,80 0 0,1 291.92533317427734,115.24365789174351 Z M 320,140 A 120,80 0 0,0 313.58202041907134,114.18764604542439 L 313.58202041907134,140.85431271209106 A 120,80 0 0,1 320,166.66666666666666 Z M 313.5820204190713,114.18764604542434 A 120,80 0 0,0 291.9253331742773,88.57699122507681 L 291.9253331742773,115.24365789174348 A 120,80 0 0,1 313.5820204190713,140.854312712091 Z" clip-path="url(#clip133)" fill="url(#gradient134)" opacity="1"></path><path d="M 379.8381989968629,99.1304395719219 A 190,126.66666666666667 0 0,0 345.54844419260576,58.5802361063716 L 345.54844419260576,85.24690277303827 A 190,126.66666666666667 0 0,1 379.8381989968629,125.79710623858855 Z" opacity="0.7" fill="rgb(142, 68, 173)"></path><path d="M379.8381989968629,125.79710623858855 A190,126.66666666666667 0 0,0 345.54844419260576,85.24690277303827 L 291.9253331742773,115.24365789174348 A120,80 0 0,1 313.5820204190713,140.854312712091 Z" opacity="0.7" fill="rgb(142, 68, 173)"></path><path d="M 313.5820204190713,114.18764604542434 A 120,80 0 0,0 291.9253331742773,88.57699122507681 L 291.9253331742773,115.24365789174348 A 120,80 0 0,1 313.5820204190713,140.854312712091 Z" opacity="0.7" fill="rgb(142, 68, 173)"></path><path d="M 379.8381989968629,99.1304395719219 L 313.5820204190713,114.18764604542434 L 313.5820204190713,140.854312712091 L 379.8381989968629,125.79710623858855 Z" opacity="0.7" fill="rgb(142, 68, 173)"></path><path d="M 345.54844419260576,58.5802361063716 L 291.9253331742773,88.57699122507681 L 291.9253331742773,115.24365789174348 L 345.54844419260576,85.24690277303827 Z" opacity="0.7" fill="rgb(142, 68, 173)"></path><path d="M379.8381989968629,99.1304395719219 A190,126.66666666666667 0 0,0 345.54844419260576,58.5802361063716 L 291.9253331742773,88.57699122507681 A120,80 0 0,1 313.5820204190713,114.18764604542434 Z" opacity="0.7" fill="rgb(142, 68, 173)"></path><path d="M379.8381989968629,99.1304395719219 A190,126.66666666666667 0 0,0 345.54844419260576,58.5802361063716 L 291.9253331742773,88.57699122507681 A120,80 0 0,1 313.5820204190713,114.18764604542434 Z" opacity="0.8" fill="url(#gradient136)"></path><path d=" M 10,139.99999999999997 A 190,126.66666666666667 0 0,0 79.37105819211457,237.86307531628006 L 79.37105819211457,264.52974198294675 A 190,126.66666666666667 0 0,1 10,166.66666666666663 Z M 79.37105819211457,237.86307531628006 A 190,126.66666666666667 0 0,0 140.5451922798907,260.30539996925387 L 140.5451922798907,286.97206663592056 A 190,126.66666666666667 0 0,1 79.37105819211457,264.52974198294675 Z M 140.5451922798907,260.30539996925387 A 190,126.66666666666667 0 0,0 390,140.00000000000003 L 390,166.66666666666669 A 190,126.66666666666667 0 0,1 140.5451922798907,286.97206663592056 Z" fill="url(#gradient137)" opacity="1"></path><path d=" M 291.92533317427734,88.57699122507685 A 120,80 0 0,0 80,140 L 80,166.66666666666666 A 120,80 0 0,1 291.92533317427734,115.24365789174351 Z M 320,140 A 120,80 0 0,0 313.58202041907134,114.18764604542439 L 313.58202041907134,140.85431271209106 A 120,80 0 0,1 320,166.66666666666666 Z M 313.5820204190713,114.18764604542434 A 120,80 0 0,0 291.9253331742773,88.57699122507681 L 291.9253331742773,115.24365789174348 A 120,80 0 0,1 313.5820204190713,140.854312712091 Z" clip-path="url(#clip138)" fill="url(#gradient139)" opacity="1"></path><path d="M 390,140 A 190,126.66666666666667 0 0,0 379.83819899686296,99.13043957192195 L 379.83819899686296,125.79710623858861 A 190,126.66666666666667 0 0,1 390,166.66666666666666 Z" opacity="0.7" fill="rgb(41, 128, 185)"></path><path d="M390,166.66666666666666 A190,126.66666666666667 0 0,0 379.83819899686296,125.79710623858861 L 313.58202041907134,140.85431271209106 A120,80 0 0,1 320,166.66666666666666 Z" opacity="0.7" fill="rgb(41, 128, 185)"></path><path d="M 320,140 A 120,80 0 0,0 313.58202041907134,114.18764604542439 L 313.58202041907134,140.85431271209106 A 120,80 0 0,1 320,166.66666666666666 Z" opacity="0.7" fill="rgb(41, 128, 185)"></path><path d="M 379.83819899686296,99.13043957192195 L 313.58202041907134,114.18764604542439 L 313.58202041907134,140.85431271209106 L 379.83819899686296,125.79710623858861 Z" opacity="0.7" fill="rgb(41, 128, 185)"></path><path d="M390,140 A190,126.66666666666667 0 0,0 379.83819899686296,99.13043957192195 L 313.58202041907134,114.18764604542439 A120,80 0 0,1 320,140 Z" opacity="0.7" fill="rgb(41, 128, 185)"></path><path d="M390,140 A190,126.66666666666667 0 0,0 379.83819899686296,99.13043957192195 L 313.58202041907134,114.18764604542439 A120,80 0 0,1 320,140 Z" opacity="0.8" fill="url(#gradient141)"></path><path d=" M 10,139.99999999999997 A 190,126.66666666666667 0 0,0 79.37105819211457,237.86307531628006 L 79.37105819211457,264.52974198294675 A 190,126.66666666666667 0 0,1 10,166.66666666666663 Z M 79.37105819211457,237.86307531628006 A 190,126.66666666666667 0 0,0 140.5451922798907,260.30539996925387 L 140.5451922798907,286.97206663592056 A 190,126.66666666666667 0 0,1 79.37105819211457,264.52974198294675 Z M 140.5451922798907,260.30539996925387 A 190,126.66666666666667 0 0,0 390,140.00000000000003 L 390,166.66666666666669 A 190,126.66666666666667 0 0,1 140.5451922798907,286.97206663592056 Z" fill="url(#gradient142)" opacity="1"></path><path d=" M 291.92533317427734,88.57699122507685 A 120,80 0 0,0 80,140 L 80,166.66666666666666 A 120,80 0 0,1 291.92533317427734,115.24365789174351 Z M 320,140 A 120,80 0 0,0 313.58202041907134,114.18764604542439 L 313.58202041907134,140.85431271209106 A 120,80 0 0,1 320,166.66666666666666 Z M 313.5820204190713,114.18764604542434 A 120,80 0 0,0 291.9253331742773,88.57699122507681 L 291.9253331742773,115.24365789174348 A 120,80 0 0,1 313.5820204190713,140.854312712091 Z" clip-path="url(#clip143)" fill="url(#gradient144)" opacity="1"></path><path d="M 162.4495951241415,215.98235787531823 A 120,80 0 0,0 320,140.00000000000003 L 320,166.66666666666669 A 120,80 0 0,1 162.4495951241415,242.6490245419849 Z" opacity="0.7" fill="rgb(41, 128, 185)"></path><path d="M140.5451922798907,286.97206663592056 A190,126.66666666666667 0 0,0 390,166.66666666666669 L 320,166.66666666666669 A120,80 0 0,1 162.4495951241415,242.6490245419849 Z" opacity="0.7" fill="rgb(41, 128, 185)"></path><path d="M 140.5451922798907,260.30539996925387 L 162.4495951241415,215.98235787531823 L 162.4495951241415,242.6490245419849 L 140.5451922798907,286.97206663592056 Z" opacity="0.7" fill="rgb(41, 128, 185)"></path><path d="M 140.5451922798907,260.30539996925387 A 190,126.66666666666667 0 0,0 390,140.00000000000003 L 390,166.66666666666669 A 190,126.66666666666667 0 0,1 140.5451922798907,286.97206663592056 Z" opacity="0.7" fill="rgb(41, 128, 185)"></path><path d="M140.5451922798907,260.30539996925387 A190,126.66666666666667 0 0,0 390,140.00000000000003 L 320,140.00000000000003 A120,80 0 0,1 162.4495951241415,215.98235787531823 Z" opacity="0.7" fill="rgb(41, 128, 185)"></path><path d="M140.5451922798907,260.30539996925387 A190,126.66666666666667 0 0,0 390,140.00000000000003 L 320,140.00000000000003 A120,80 0 0,1 162.4495951241415,215.98235787531823 Z" opacity="0.8" fill="url(#gradient145)"></path><path d=" M 10,139.99999999999997 A 190,126.66666666666667 0 0,0 79.37105819211457,237.86307531628006 L 79.37105819211457,264.52974198294675 A 190,126.66666666666667 0 0,1 10,166.66666666666663 Z M 79.37105819211457,237.86307531628006 A 190,126.66666666666667 0 0,0 140.5451922798907,260.30539996925387 L 140.5451922798907,286.97206663592056 A 190,126.66666666666667 0 0,1 79.37105819211457,264.52974198294675 Z M 140.5451922798907,260.30539996925387 A 190,126.66666666666667 0 0,0 390,140.00000000000003 L 390,166.66666666666669 A 190,126.66666666666667 0 0,1 140.5451922798907,286.97206663592056 Z" fill="url(#gradient146)" opacity="1"></path><path d=" M 291.92533317427734,88.57699122507685 A 120,80 0 0,0 80,140 L 80,166.66666666666666 A 120,80 0 0,1 291.92533317427734,115.24365789174351 Z M 320,140 A 120,80 0 0,0 313.58202041907134,114.18764604542439 L 313.58202041907134,140.85431271209106 A 120,80 0 0,1 320,166.66666666666666 Z M 313.5820204190713,114.18764604542434 A 120,80 0 0,0 291.9253331742773,88.57699122507681 L 291.9253331742773,115.24365789174348 A 120,80 0 0,1 313.5820204190713,140.854312712091 Z" clip-path="url(#clip147)" fill="url(#gradient148)" opacity="1"></path></g></g></g></g></g></svg></g></svg></g></g><g id="view_view_selectors"><g id="view_view_selectors_definitions"></g><g id="view_view_selectors_graphics"></g></g><svg id="view_view_widgets" x="0" y="0" width="400" height="400"><defs id="view_view_widgets_definitions"></defs><g id="view_view_widgets_graphics"></g></svg><g id="view_view_foreground"><g id="foreground29"><g id="view_view_foreground_definitions"></g><g id="view_view_foreground_graphics"><text id="text_foreground29" x="0" y="-2" font-size="6" fill="#9b39e4" fill-opacity="1" text-anchor="start">JenScript 1.2.0 - www.jenscript.io</text></g></g></g><g id="view_view_dispatcher"><svg id="view_view_South_dispatcher" x="0px" y="400px" width="400px" height="0px"><rect id="view_view_dispatcher" x="0" y="0" width="400" height="0" style="stroke: black;stroke-opacity: 0; fill: #0000ff;fill-opacity :0"></rect></svg><svg id="view_view_North_dispatcher" x="0px" y="0px" width="400px" height="0px"><rect id="view_view_dispatcher" x="0" y="0" width="400" height="0" style="stroke: black;stroke-opacity: 0; fill: #0000ff;fill-opacity :0"></rect></svg><svg id="view_view_East_dispatcher" x="400px" y="0px" width="0px" height="400px"><rect id="view_view_dispatcher" x="0" y="0" width="0" height="400" style="stroke: black;stroke-opacity: 0; fill: #0000ff;fill-opacity :0"></rect></svg><svg id="view_view_West_dispatcher" x="0px" y="0px" width="0px" height="400px"><rect id="view_view_dispatcher" x="0" y="0" width="0" height="400" style="stroke: black;stroke-opacity: 0; fill: #0000ff;fill-opacity :0"></rect></svg><svg id="view_view_Device_dispatcher" x="0px" y="0px" width="400px" height="400px"><rect id="view_view_dispatcher" x="0" y="0" width="400" height="400" style="stroke: black;stroke-opacity: 0; fill: #0000ff;fill-opacity :0"></rect></svg></g></svg>