<svg height="300" width="505" viewBox="0 0 505 300" id="view_macd" version="1.1" xmlns:xlink="http://www.w3.org/1999/xlink" xmlns="http://www.w3.org/2000/svg"><g id="view_macd_global_definitions"><pattern id="texture_carbon1" height="10" width="10" patternUnits="userSpaceOnUse"><rect fill="darkgray" stroke="none" height="10" width="10" y="0" x="0"></rect><polygon fill="black" stroke="none" points="5,0 5,10 0,5 "></polygon><polygon fill="black" stroke="none" points="5,0 10,0 10,5 "></polygon><polygon fill="black" stroke="none" points="10,5 10,10 5,10 "></polygon></pattern><linearGradient y2="0" x2="0" y1="-10" x1="0" id="texture_gradient442" gradientUnits="userSpaceOnUse"><stop stop-opacity="1" stop-color="black" offset="0%"></stop><stop stop-opacity="1" stop-color="darkgray" offset="100%"></stop></linearGradient><linearGradient y2="-2.5" x2="5" y1="-2.5" x1="-5" id="texture_gradient443" gradientUnits="userSpaceOnUse"><stop stop-opacity="1" stop-color="black" offset="0%"></stop><stop stop-opacity="1" stop-color="darkgray" offset="100%"></stop></linearGradient><linearGradient y2="5" x2="5" y1="-5" x1="5" id="texture_gradient444" gradientUnits="userSpaceOnUse"><stop stop-opacity="1" stop-color="black" offset="0%"></stop><stop stop-opacity="1" stop-color="darkgray" offset="100%"></stop></linearGradient><linearGradient y2="-1.25" x2="10" y1="-1.25" x1="0" id="texture_gradient445" gradientUnits="userSpaceOnUse"><stop stop-opacity="1" stop-color="black" offset="0%"></stop><stop stop-opacity="1" stop-color="darkgray" offset="100%"></stop></linearGradient><linearGradient y2="10" x2="10" y1="0" x1="10" id="texture_gradient446" gradientUnits="userSpaceOnUse"><stop stop-opacity="1" stop-color="black" offset="0%"></stop><stop stop-opacity="1" stop-color="darkgray" offset="100%"></stop></linearGradient><linearGradient y2="0" x2="15" y1="0" x1="5" id="texture_gradient447" gradientUnits="userSpaceOnUse"><stop stop-opacity="1" stop-color="black" offset="0%"></stop><stop stop-opacity="1" stop-color="darkgray" offset="100%"></stop></linearGradient><linearGradient y2="15" x2="15" y1="5" x1="15" id="texture_gradient448" gradientUnits="userSpaceOnUse"><stop stop-opacity="1" stop-color="black" offset="0%"></stop><stop stop-opacity="1" stop-color="darkgray" offset="100%"></stop></linearGradient><linearGradient y2="1.25" x2="20" y1="1.25" x1="10" id="texture_gradient449" gradientUnits="userSpaceOnUse"><stop stop-opacity="1" stop-color="black" offset="0%"></stop><stop stop-opacity="1" stop-color="darkgray" offset="100%"></stop></linearGradient><linearGradient y2="20" x2="20" y1="10" x1="20" id="texture_gradient450" gradientUnits="userSpaceOnUse"><stop stop-opacity="1" stop-color="black" offset="0%"></stop><stop stop-opacity="1" stop-color="darkgray" offset="100%"></stop></linearGradient><linearGradient y2="2.5" x2="25" y1="2.5" x1="15" id="texture_gradient451" gradientUnits="userSpaceOnUse"><stop stop-opacity="1" stop-color="black" offset="0%"></stop><stop stop-opacity="1" stop-color="darkgray" offset="100%"></stop></linearGradient><linearGradient y2="20" x2="0" y1="10" x1="0" id="texture_gradient452" gradientUnits="userSpaceOnUse"><stop stop-opacity="1" stop-color="black" offset="0%"></stop><stop stop-opacity="1" stop-color="darkgray" offset="100%"></stop></linearGradient><linearGradient y2="2.5" x2="5" y1="2.5" x1="-5" id="texture_gradient453" gradientUnits="userSpaceOnUse"><stop stop-opacity="1" stop-color="black" offset="0%"></stop><stop stop-opacity="1" stop-color="darkgray" offset="100%"></stop></linearGradient><linearGradient y2="25" x2="5" y1="15" x1="5" id="texture_gradient454" gradientUnits="userSpaceOnUse"><stop stop-opacity="1" stop-color="black" offset="0%"></stop><stop stop-opacity="1" stop-color="darkgray" offset="100%"></stop></linearGradient><linearGradient y2="3.75" x2="10" y1="3.75" x1="0" id="texture_gradient455" gradientUnits="userSpaceOnUse"><stop stop-opacity="1" stop-color="black" offset="0%"></stop><stop stop-opacity="1" stop-color="darkgray" offset="100%"></stop></linearGradient><linearGradient y2="30" x2="10" y1="20" x1="10" id="texture_gradient456" gradientUnits="userSpaceOnUse"><stop stop-opacity="1" stop-color="black" offset="0%"></stop><stop stop-opacity="1" stop-color="darkgray" offset="100%"></stop></linearGradient><linearGradient y2="5" x2="15" y1="5" x1="5" id="texture_gradient457" gradientUnits="userSpaceOnUse"><stop stop-opacity="1" stop-color="black" offset="0%"></stop><stop stop-opacity="1" stop-color="darkgray" offset="100%"></stop></linearGradient><linearGradient y2="35" x2="15" y1="25" x1="15" id="texture_gradient458" gradientUnits="userSpaceOnUse"><stop stop-opacity="1" stop-color="black" offset="0%"></stop><stop stop-opacity="1" stop-color="darkgray" offset="100%"></stop></linearGradient><linearGradient y2="6.25" x2="20" y1="6.25" x1="10" id="texture_gradient459" gradientUnits="userSpaceOnUse"><stop stop-opacity="1" stop-color="black" offset="0%"></stop><stop stop-opacity="1" stop-color="darkgray" offset="100%"></stop></linearGradient><linearGradient y2="40" x2="20" y1="30" x1="20" id="texture_gradient460" gradientUnits="userSpaceOnUse"><stop stop-opacity="1" stop-color="black" offset="0%"></stop><stop stop-opacity="1" stop-color="darkgray" offset="100%"></stop></linearGradient><linearGradient y2="7.5" x2="25" y1="7.5" x1="15" id="texture_gradient461" gradientUnits="userSpaceOnUse"><stop stop-opacity="1" stop-color="black" offset="0%"></stop><stop stop-opacity="1" stop-color="darkgray" offset="100%"></stop></linearGradient><pattern id="texture_carbon2" height="20" width="20" patternUnits="userSpaceOnUse"><rect fill="rgb(60,60,60)" stroke="none" height="20" width="20" y="0" x="0"></rect><rect fill="url(#texture_gradient442)" stroke="none" height="10" width="10" y="-10" x="-5"></rect><rect fill="url(#texture_gradient442)" stroke="none" height="5" width="10" y="-10" x="-5"></rect><rect fill="url(#texture_gradient444)" stroke="none" height="10" width="10" y="-5" x="0"></rect><rect fill="url(#texture_gradient444)" stroke="none" height="5" width="10" y="-5" x="0"></rect><rect fill="url(#texture_gradient446)" stroke="none" height="10" width="10" y="0" x="5"></rect><rect fill="url(#texture_gradient446)" stroke="none" height="5" width="10" y="0" x="5"></rect><rect fill="url(#texture_gradient448)" stroke="none" height="10" width="10" y="5" x="10"></rect><rect fill="url(#texture_gradient448)" stroke="none" height="5" width="10" y="5" x="10"></rect><rect fill="url(#texture_gradient450)" stroke="none" height="10" width="10" y="10" x="15"></rect><rect fill="url(#texture_gradient450)" stroke="none" height="5" width="10" y="10" x="15"></rect><rect fill="url(#texture_gradient452)" stroke="none" height="10" width="10" y="10" x="-5"></rect><rect fill="url(#texture_gradient452)" stroke="none" height="5" width="10" y="10" x="-5"></rect><rect fill="url(#texture_gradient454)" stroke="none" height="10" width="10" y="15" x="0"></rect><rect fill="url(#texture_gradient454)" stroke="none" height="5" width="10" y="15" x="0"></rect><rect fill="url(#texture_gradient456)" stroke="none" height="10" width="10" y="20" x="5"></rect><rect fill="url(#texture_gradient456)" stroke="none" height="5" width="10" y="20" x="5"></rect><rect fill="url(#texture_gradient458)" stroke="none" height="10" width="10" y="25" x="10"></rect><rect fill="url(#texture_gradient458)" stroke="none" height="5" width="10" y="25" x="10"></rect><rect fill="url(#texture_gradient460)" stroke="none" height="10" width="10" y="30" x="15"></rect><rect fill="url(#texture_gradient460)" stroke="none" height="5" width="10" y="30" x="15"></rect></pattern></g><g id="view_macd_background"></g><g id="view_macd_projections"><svg viewBox="0 0 505 300" version="1.1" xmlns:xlink="http://www.w3.org/1999/xlink" xmlns="http://www.w3.org/2000/svg" id="proj_465"><defs id="proj_465_definitions"></defs><g id="proj_465_parts" xmlns="http://www.w3.org/2000/svg"><svg height="80" width="505" y="220" x="0" id="proj_465_South"><g id="proj_465_South_plugins"><g transform="translate(0,0) scale(1,1)" id="proj_465_South_plugin_DeviceOutlinePlugin_466"><defs id="proj_465_South_plugin_DeviceOutlinePlugin_466_definition"></defs><g id="proj_465_South_plugin_DeviceOutlinePlugin_466_graphics"></g></g><g transform="translate(0,0) scale(1,1)" id="proj_465_South_plugin_AxisMetricsTiming_467"><defs id="proj_465_South_plugin_AxisMetricsTiming_467_definition"></defs><g id="proj_465_South_plugin_AxisMetricsTiming_467_graphics"><line stroke-width="1" stroke="rgb(22, 125, 218)" y2="4" x2="12.014563106796116" y1="2" x1="12.014563106796116" id="southtick715"></line><line stroke-width="1" stroke="rgb(22, 125, 218)" y2="4" x2="16.04368932038835" y1="2" x1="16.04368932038835" id="southtick716"></line><line stroke-width="1" stroke="rgb(22, 125, 218)" y2="4" x2="20.07281553398058" y1="2" x1="20.07281553398058" id="southtick717"></line><line stroke-width="1" stroke="rgb(22, 125, 218)" y2="4" x2="24.101941747572816" y1="2" x1="24.101941747572816" id="southtick718"></line><line stroke-width="1" stroke="rgb(22, 125, 218)" y2="4" x2="28.131067961165048" y1="2" x1="28.131067961165048" id="southtick719"></line><line stroke-width="1" stroke="rgb(22, 125, 218)" y2="4" x2="32.16019417475728" y1="2" x1="32.16019417475728" id="southtick720"></line><line stroke-width="1" stroke="rgb(22, 125, 218)" y2="4" x2="36.189320388349515" y1="2" x1="36.189320388349515" id="southtick721"></line><line stroke-width="rgb(61, 44, 105)" stroke="rgb(61, 44, 105)" y2="10" x2="38.20388349514563" y1="2" x1="38.20388349514563" id="southtick722"></line><text text-anchor="middle" fill="rgb(61, 44, 105)" font-size="12" y="38px" x="38.20388349514563px" id="southmetrics723">Jun. 2013</text><line stroke-width="1" stroke="rgb(22, 125, 218)" y2="4" x2="40.21844660194175" y1="2" x1="40.21844660194175" id="southtick724"></line><line stroke-width="1" stroke="rgb(22, 125, 218)" y2="4" x2="44.24757281553398" y1="2" x1="44.24757281553398" id="southtick725"></line><line stroke-width="1" stroke="rgb(22, 125, 218)" y2="4" x2="48.27669902912621" y1="2" x1="48.27669902912621" id="southtick726"></line><line stroke-width="1" stroke="rgb(22, 125, 218)" y2="4" x2="52.30582524271844" y1="2" x1="52.30582524271844" id="southtick727"></line><line stroke-width="1" stroke="rgb(22, 125, 218)" y2="4" x2="56.33495145631068" y1="2" x1="56.33495145631068" id="southtick728"></line><line stroke-width="1" stroke="rgb(22, 125, 218)" y2="4" x2="60.36407766990291" y1="2" x1="60.36407766990291" id="southtick729"></line><line stroke-width="1" stroke="rgb(22, 125, 218)" y2="4" x2="64.39320388349515" y1="2" x1="64.39320388349515" id="southtick730"></line><line stroke-width="1" stroke="rgb(22, 125, 218)" y2="4" x2="68.42233009708738" y1="2" x1="68.42233009708738" id="southtick731"></line><line stroke-width="1" stroke="rgb(22, 125, 218)" y2="4" x2="72.45145631067962" y1="2" x1="72.45145631067962" id="southtick732"></line><line stroke-width="1" stroke="rgb(22, 125, 218)" y2="4" x2="76.48058252427184" y1="2" x1="76.48058252427184" id="southtick733"></line><line stroke-width="1" stroke="rgb(22, 125, 218)" y2="4" x2="80.50970873786407" y1="2" x1="80.50970873786407" id="southtick734"></line><line stroke-width="1" stroke="rgb(22, 125, 218)" y2="4" x2="84.53883495145631" y1="2" x1="84.53883495145631" id="southtick735"></line><line stroke-width="1" stroke="rgb(22, 125, 218)" y2="4" x2="88.56796116504854" y1="2" x1="88.56796116504854" id="southtick736"></line><line stroke-width="1" stroke="rgb(22, 125, 218)" y2="4" x2="92.59708737864077" y1="2" x1="92.59708737864077" id="southtick737"></line><line stroke-width="1" stroke="rgb(22, 125, 218)" y2="4" x2="96.626213592233" y1="2" x1="96.626213592233" id="southtick738"></line><line stroke-width="1" stroke="rgb(22, 125, 218)" y2="4" x2="100.65533980582524" y1="2" x1="100.65533980582524" id="southtick739"></line><line stroke-width="1" stroke="rgb(22, 125, 218)" y2="4" x2="104.68446601941747" y1="2" x1="104.68446601941747" id="southtick740"></line><line stroke-width="1" stroke="rgb(22, 125, 218)" y2="4" x2="108.7135922330097" y1="2" x1="108.7135922330097" id="southtick741"></line><line stroke-width="1" stroke="rgb(22, 125, 218)" y2="4" x2="112.74271844660194" y1="2" x1="112.74271844660194" id="southtick742"></line><line stroke-width="1" stroke="rgb(22, 125, 218)" y2="4" x2="116.77184466019416" y1="2" x1="116.77184466019416" id="southtick743"></line><line stroke-width="1" stroke="rgb(22, 125, 218)" y2="4" x2="120.8009708737864" y1="2" x1="120.8009708737864" id="southtick744"></line><line stroke-width="1" stroke="rgb(22, 125, 218)" y2="4" x2="124.83009708737863" y1="2" x1="124.83009708737863" id="southtick745"></line><line stroke-width="1" stroke="rgb(22, 125, 218)" y2="4" x2="128.85922330097088" y1="2" x1="128.85922330097088" id="southtick746"></line><line stroke-width="1" stroke="rgb(22, 125, 218)" y2="4" x2="132.88834951456312" y1="2" x1="132.88834951456312" id="southtick747"></line><line stroke-width="1" stroke="rgb(22, 125, 218)" y2="4" x2="136.91747572815532" y1="2" x1="136.91747572815532" id="southtick748"></line><line stroke-width="1" stroke="rgb(22, 125, 218)" y2="4" x2="140.94660194174756" y1="2" x1="140.94660194174756" id="southtick749"></line><line stroke-width="1" stroke="rgb(22, 125, 218)" y2="4" x2="144.9757281553398" y1="2" x1="144.9757281553398" id="southtick750"></line><line stroke-width="1" stroke="rgb(22, 125, 218)" y2="4" x2="149.00485436893203" y1="2" x1="149.00485436893203" id="southtick751"></line><line stroke-width="1" stroke="rgb(22, 125, 218)" y2="4" x2="153.03398058252426" y1="2" x1="153.03398058252426" id="southtick752"></line><line stroke-width="1" stroke="rgb(22, 125, 218)" y2="4" x2="157.0631067961165" y1="2" x1="157.0631067961165" id="southtick753"></line><line stroke-width="rgb(61, 44, 105)" stroke="rgb(61, 44, 105)" y2="10" x2="159.07766990291262" y1="2" x1="159.07766990291262" id="southtick754"></line><text text-anchor="middle" fill="rgb(61, 44, 105)" font-size="12" y="38px" x="159.07766990291262px" id="southmetrics755">Jul. 2013</text><line stroke-width="1" stroke="rgb(22, 125, 218)" y2="4" x2="161.09223300970874" y1="2" x1="161.09223300970874" id="southtick756"></line><line stroke-width="1" stroke="rgb(22, 125, 218)" y2="4" x2="165.12135922330097" y1="2" x1="165.12135922330097" id="southtick757"></line><line stroke-width="1" stroke="rgb(22, 125, 218)" y2="4" x2="169.1504854368932" y1="2" x1="169.1504854368932" id="southtick758"></line><line stroke-width="1" stroke="rgb(22, 125, 218)" y2="4" x2="173.1796116504854" y1="2" x1="173.1796116504854" id="southtick759"></line><line stroke-width="1" stroke="rgb(22, 125, 218)" y2="4" x2="177.20873786407765" y1="2" x1="177.20873786407765" id="southtick760"></line><line stroke-width="1" stroke="rgb(22, 125, 218)" y2="4" x2="181.23786407766988" y1="2" x1="181.23786407766988" id="southtick761"></line><line stroke-width="1" stroke="rgb(22, 125, 218)" y2="4" x2="185.26699029126212" y1="2" x1="185.26699029126212" id="southtick762"></line><line stroke-width="1" stroke="rgb(22, 125, 218)" y2="4" x2="189.29611650485435" y1="2" x1="189.29611650485435" id="southtick763"></line><line stroke-width="1" stroke="rgb(22, 125, 218)" y2="4" x2="193.3252427184466" y1="2" x1="193.3252427184466" id="southtick764"></line><line stroke-width="1" stroke="rgb(22, 125, 218)" y2="4" x2="197.35436893203882" y1="2" x1="197.35436893203882" id="southtick765"></line><line stroke-width="1" stroke="rgb(22, 125, 218)" y2="4" x2="201.38349514563106" y1="2" x1="201.38349514563106" id="southtick766"></line><line stroke-width="1" stroke="rgb(22, 125, 218)" y2="4" x2="205.4126213592233" y1="2" x1="205.4126213592233" id="southtick767"></line><line stroke-width="1" stroke="rgb(22, 125, 218)" y2="4" x2="209.44174757281553" y1="2" x1="209.44174757281553" id="southtick768"></line><line stroke-width="1" stroke="rgb(22, 125, 218)" y2="4" x2="213.47087378640776" y1="2" x1="213.47087378640776" id="southtick769"></line><line stroke-width="1" stroke="rgb(22, 125, 218)" y2="4" x2="217.49999999999997" y1="2" x1="217.49999999999997" id="southtick770"></line><line stroke-width="1" stroke="rgb(22, 125, 218)" y2="4" x2="221.5291262135922" y1="2" x1="221.5291262135922" id="southtick771"></line><line stroke-width="1" stroke="rgb(22, 125, 218)" y2="4" x2="225.55825242718444" y1="2" x1="225.55825242718444" id="southtick772"></line><line stroke-width="1" stroke="rgb(22, 125, 218)" y2="4" x2="229.58737864077668" y1="2" x1="229.58737864077668" id="southtick773"></line><line stroke-width="1" stroke="rgb(22, 125, 218)" y2="4" x2="233.6165048543689" y1="2" x1="233.6165048543689" id="southtick774"></line><line stroke-width="1" stroke="rgb(22, 125, 218)" y2="4" x2="237.64563106796115" y1="2" x1="237.64563106796115" id="southtick775"></line><line stroke-width="1" stroke="rgb(22, 125, 218)" y2="4" x2="241.67475728155338" y1="2" x1="241.67475728155338" id="southtick776"></line><line stroke-width="1" stroke="rgb(22, 125, 218)" y2="4" x2="245.70388349514562" y1="2" x1="245.70388349514562" id="southtick777"></line><line stroke-width="1" stroke="rgb(22, 125, 218)" y2="4" x2="249.73300970873785" y1="2" x1="249.73300970873785" id="southtick778"></line><line stroke-width="1" stroke="rgb(22, 125, 218)" y2="4" x2="253.7621359223301" y1="2" x1="253.7621359223301" id="southtick779"></line><line stroke-width="1" stroke="rgb(22, 125, 218)" y2="4" x2="257.79126213592235" y1="2" x1="257.79126213592235" id="southtick780"></line><line stroke-width="1" stroke="rgb(22, 125, 218)" y2="4" x2="261.8203883495146" y1="2" x1="261.8203883495146" id="southtick781"></line><line stroke-width="1" stroke="rgb(22, 125, 218)" y2="4" x2="265.84951456310677" y1="2" x1="265.84951456310677" id="southtick782"></line><line stroke-width="1" stroke="rgb(22, 125, 218)" y2="4" x2="269.878640776699" y1="2" x1="269.878640776699" id="southtick783"></line><line stroke-width="1" stroke="rgb(22, 125, 218)" y2="4" x2="273.90776699029124" y1="2" x1="273.90776699029124" id="southtick784"></line><line stroke-width="1" stroke="rgb(22, 125, 218)" y2="4" x2="277.93689320388347" y1="2" x1="277.93689320388347" id="southtick785"></line><line stroke-width="1" stroke="rgb(22, 125, 218)" y2="4" x2="281.9660194174757" y1="2" x1="281.9660194174757" id="southtick786"></line><line stroke-width="rgb(61, 44, 105)" stroke="rgb(61, 44, 105)" y2="10" x2="283.9805825242718" y1="2" x1="283.9805825242718" id="southtick787"></line><text text-anchor="middle" fill="rgb(61, 44, 105)" font-size="12" y="38px" x="283.9805825242718px" id="southmetrics788">Aug. 2013</text><line stroke-width="1" stroke="rgb(22, 125, 218)" y2="4" x2="285.99514563106794" y1="2" x1="285.99514563106794" id="southtick789"></line><line stroke-width="1" stroke="rgb(22, 125, 218)" y2="4" x2="290.0242718446602" y1="2" x1="290.0242718446602" id="southtick790"></line><line stroke-width="1" stroke="rgb(22, 125, 218)" y2="4" x2="294.0533980582524" y1="2" x1="294.0533980582524" id="southtick791"></line><line stroke-width="1" stroke="rgb(22, 125, 218)" y2="4" x2="298.08252427184465" y1="2" x1="298.08252427184465" id="southtick792"></line><line stroke-width="1" stroke="rgb(22, 125, 218)" y2="4" x2="302.1116504854369" y1="2" x1="302.1116504854369" id="southtick793"></line><line stroke-width="1" stroke="rgb(22, 125, 218)" y2="4" x2="306.1407766990291" y1="2" x1="306.1407766990291" id="southtick794"></line><line stroke-width="1" stroke="rgb(22, 125, 218)" y2="4" x2="310.16990291262135" y1="2" x1="310.16990291262135" id="southtick795"></line><line stroke-width="1" stroke="rgb(22, 125, 218)" y2="4" x2="314.1990291262136" y1="2" x1="314.1990291262136" id="southtick796"></line><line stroke-width="1" stroke="rgb(22, 125, 218)" y2="4" x2="318.2281553398058" y1="2" x1="318.2281553398058" id="southtick797"></line><line stroke-width="1" stroke="rgb(22, 125, 218)" y2="4" x2="322.25728155339806" y1="2" x1="322.25728155339806" id="southtick798"></line><line stroke-width="1" stroke="rgb(22, 125, 218)" y2="4" x2="326.2864077669903" y1="2" x1="326.2864077669903" id="southtick799"></line><line stroke-width="1" stroke="rgb(22, 125, 218)" y2="4" x2="330.31553398058253" y1="2" x1="330.31553398058253" id="southtick800"></line><line stroke-width="1" stroke="rgb(22, 125, 218)" y2="4" x2="334.3446601941747" y1="2" x1="334.3446601941747" id="southtick801"></line><line stroke-width="1" stroke="rgb(22, 125, 218)" y2="4" x2="338.37378640776694" y1="2" x1="338.37378640776694" id="southtick802"></line><line stroke-width="1" stroke="rgb(22, 125, 218)" y2="4" x2="342.4029126213592" y1="2" x1="342.4029126213592" id="southtick803"></line><line stroke-width="1" stroke="rgb(22, 125, 218)" y2="4" x2="346.4320388349514" y1="2" x1="346.4320388349514" id="southtick804"></line><line stroke-width="1" stroke="rgb(22, 125, 218)" y2="4" x2="350.46116504854365" y1="2" x1="350.46116504854365" id="southtick805"></line><line stroke-width="1" stroke="rgb(22, 125, 218)" y2="4" x2="354.4902912621359" y1="2" x1="354.4902912621359" id="southtick806"></line><line stroke-width="1" stroke="rgb(22, 125, 218)" y2="4" x2="358.5194174757281" y1="2" x1="358.5194174757281" id="southtick807"></line><line stroke-width="1" stroke="rgb(22, 125, 218)" y2="4" x2="362.54854368932035" y1="2" x1="362.54854368932035" id="southtick808"></line><line stroke-width="1" stroke="rgb(22, 125, 218)" y2="4" x2="366.5776699029126" y1="2" x1="366.5776699029126" id="southtick809"></line><line stroke-width="1" stroke="rgb(22, 125, 218)" y2="4" x2="370.6067961165048" y1="2" x1="370.6067961165048" id="southtick810"></line><line stroke-width="1" stroke="rgb(22, 125, 218)" y2="4" x2="374.63592233009706" y1="2" x1="374.63592233009706" id="southtick811"></line><line stroke-width="1" stroke="rgb(22, 125, 218)" y2="4" x2="378.6650485436893" y1="2" x1="378.6650485436893" id="southtick812"></line><line stroke-width="1" stroke="rgb(22, 125, 218)" y2="4" x2="382.69417475728153" y1="2" x1="382.69417475728153" id="southtick813"></line><line stroke-width="1" stroke="rgb(22, 125, 218)" y2="4" x2="386.72330097087377" y1="2" x1="386.72330097087377" id="southtick814"></line><line stroke-width="1" stroke="rgb(22, 125, 218)" y2="4" x2="390.752427184466" y1="2" x1="390.752427184466" id="southtick815"></line><line stroke-width="1" stroke="rgb(22, 125, 218)" y2="4" x2="394.78155339805824" y1="2" x1="394.78155339805824" id="southtick816"></line><line stroke-width="1" stroke="rgb(22, 125, 218)" y2="4" x2="398.81067961165047" y1="2" x1="398.81067961165047" id="southtick817"></line><line stroke-width="1" stroke="rgb(22, 125, 218)" y2="4" x2="402.8398058252427" y1="2" x1="402.8398058252427" id="southtick818"></line><line stroke-width="1" stroke="rgb(22, 125, 218)" y2="4" x2="406.86893203883494" y1="2" x1="406.86893203883494" id="southtick819"></line><line stroke-width="rgb(61, 44, 105)" stroke="rgb(61, 44, 105)" y2="10" x2="408.88349514563106" y1="2" x1="408.88349514563106" id="southtick820"></line><text text-anchor="middle" fill="rgb(61, 44, 105)" font-size="12" y="38px" x="408.88349514563106px" id="southmetrics821">Sep. 2013</text><line stroke-width="1" stroke="rgb(22, 125, 218)" y2="4" x2="410.8980582524272" y1="2" x1="410.8980582524272" id="southtick822"></line><line stroke-width="1" stroke="rgb(22, 125, 218)" y2="4" x2="414.9271844660194" y1="2" x1="414.9271844660194" id="southtick823"></line><line stroke-width="1" stroke="rgb(22, 125, 218)" y2="4" x2="418.95631067961165" y1="2" x1="418.95631067961165" id="southtick824"></line><line stroke-width="1" stroke="rgb(22, 125, 218)" y2="4" x2="422.9854368932039" y1="2" x1="422.9854368932039" id="southtick825"></line></g></g><g transform="translate(0,0) scale(1,1)" id="proj_465_South_plugin_AxisMetricsModeled_826"><defs id="proj_465_South_plugin_AxisMetricsModeled_826_definition"></defs><g id="proj_465_South_plugin_AxisMetricsModeled_826_graphics"></g></g><g transform="translate(0,0) scale(1,1)" id="proj_465_South_plugin_StockPlugin_854"><defs id="proj_465_South_plugin_StockPlugin_854_definition"></defs><g id="proj_465_South_plugin_StockPlugin_854_graphics"></g></g><g transform="translate(0,0) scale(1,1)" id="proj_465_South_plugin_AnonymousPlugin_858"><defs id="proj_465_South_plugin_AnonymousPlugin_858_definition"></defs><g id="proj_465_South_plugin_AnonymousPlugin_858_graphics"></g></g><g transform="translate(0,0) scale(1,1)" id="proj_465_South_plugin_AnonymousPlugin_860"><defs id="proj_465_South_plugin_AnonymousPlugin_860_definition"></defs><g id="proj_465_South_plugin_AnonymousPlugin_860_graphics"></g></g><g transform="translate(0,0) scale(1,1)" id="proj_465_South_plugin_AnonymousPlugin_862"><defs id="proj_465_South_plugin_AnonymousPlugin_862_definition"></defs><g id="proj_465_South_plugin_AnonymousPlugin_862_graphics"></g></g><g transform="translate(0,0) scale(1,1)" id="proj_465_South_plugin_TranslatePlugin_864"><defs id="proj_465_South_plugin_TranslatePlugin_864_definition"></defs><g id="proj_465_South_plugin_TranslatePlugin_864_graphics"></g></g></g></svg><svg height="40" width="505" y="0" x="0" id="proj_465_North"><g id="proj_465_North_plugins"><g transform="translate(0,0) scale(1,1)" id="proj_465_North_plugin_DeviceOutlinePlugin_466"><defs id="proj_465_North_plugin_DeviceOutlinePlugin_466_definition"></defs><g id="proj_465_North_plugin_DeviceOutlinePlugin_466_graphics"></g></g><g transform="translate(0,0) scale(1,1)" id="proj_465_North_plugin_AxisMetricsTiming_467"><defs id="proj_465_North_plugin_AxisMetricsTiming_467_definition"></defs><g id="proj_465_North_plugin_AxisMetricsTiming_467_graphics"></g></g><g transform="translate(0,0) scale(1,1)" id="proj_465_North_plugin_AxisMetricsModeled_826"><defs id="proj_465_North_plugin_AxisMetricsModeled_826_definition"></defs><g id="proj_465_North_plugin_AxisMetricsModeled_826_graphics"></g></g><g transform="translate(0,0) scale(1,1)" id="proj_465_North_plugin_StockPlugin_854"><defs id="proj_465_North_plugin_StockPlugin_854_definition"></defs><g id="proj_465_North_plugin_StockPlugin_854_graphics"></g></g><g transform="translate(0,0) scale(1,1)" id="proj_465_North_plugin_AnonymousPlugin_858"><defs id="proj_465_North_plugin_AnonymousPlugin_858_definition"></defs><g id="proj_465_North_plugin_AnonymousPlugin_858_graphics"></g></g><g transform="translate(0,0) scale(1,1)" id="proj_465_North_plugin_AnonymousPlugin_860"><defs id="proj_465_North_plugin_AnonymousPlugin_860_definition"></defs><g id="proj_465_North_plugin_AnonymousPlugin_860_graphics"></g></g><g transform="translate(0,0) scale(1,1)" id="proj_465_North_plugin_AnonymousPlugin_862"><defs id="proj_465_North_plugin_AnonymousPlugin_862_definition"></defs><g id="proj_465_North_plugin_AnonymousPlugin_862_graphics"></g></g><g transform="translate(0,0) scale(1,1)" id="proj_465_North_plugin_TranslatePlugin_864"><defs id="proj_465_North_plugin_TranslatePlugin_864_definition"></defs><g id="proj_465_North_plugin_TranslatePlugin_864_graphics"></g></g></g></svg><svg height="180" width="80" y="40" x="425" id="proj_465_East"><g id="proj_465_East_plugins"><g transform="translate(0,0) scale(1,1)" id="proj_465_East_plugin_DeviceOutlinePlugin_466"><defs id="proj_465_East_plugin_DeviceOutlinePlugin_466_definition"></defs><g id="proj_465_East_plugin_DeviceOutlinePlugin_466_graphics"></g></g><g transform="translate(0,0) scale(1,1)" id="proj_465_East_plugin_AxisMetricsTiming_467"><defs id="proj_465_East_plugin_AxisMetricsTiming_467_definition"></defs><g id="proj_465_East_plugin_AxisMetricsTiming_467_graphics"></g></g><g transform="translate(0,0) scale(1,1)" id="proj_465_East_plugin_AxisMetricsModeled_826"><defs id="proj_465_East_plugin_AxisMetricsModeled_826_definition"></defs><g id="proj_465_East_plugin_AxisMetricsModeled_826_graphics"><line stroke-width="1.2" stroke="rgb(62, 142, 78)" y2="180" x2="6" y1="180" x1="2" id="easttick840"></line><line stroke-width="rgb(61, 44, 105)" stroke="rgb(61, 44, 105)" y2="150" x2="10" y1="150" x1="2" id="easttick842"></line><text transform="translate(24,6)" text-anchor="start" fill="rgb(61, 44, 105)" font-size="12" y="150px" x="0px" id="metrics843">-1</text><line stroke-width="1.2" stroke="rgb(62, 142, 78)" y2="120" x2="6" y1="120" x1="2" id="easttick844"></line><text transform="translate(12,5)" text-anchor="start" fill="rgb(62, 142, 78)" font-size="10" y="120px" x="0px" id="metrics845">-0.5</text><line stroke-width="rgb(61, 44, 105)" stroke="rgb(61, 44, 105)" y2="90" x2="10" y1="90" x1="2" id="easttick846"></line><text transform="translate(24,6)" text-anchor="start" fill="rgb(61, 44, 105)" font-size="12" y="90px" x="0px" id="metrics847">0</text><line stroke-width="1.2" stroke="rgb(62, 142, 78)" y2="60" x2="6" y1="60" x1="2" id="easttick848"></line><text transform="translate(12,5)" text-anchor="start" fill="rgb(62, 142, 78)" font-size="10" y="60px" x="0px" id="metrics849">0.5</text><line stroke-width="rgb(61, 44, 105)" stroke="rgb(61, 44, 105)" y2="30" x2="10" y1="30" x1="2" id="easttick850"></line><text transform="translate(24,6)" text-anchor="start" fill="rgb(61, 44, 105)" font-size="12" y="30px" x="0px" id="metrics851">1</text><line stroke-width="1.2" stroke="rgb(62, 142, 78)" y2="0" x2="6" y1="0" x1="2" id="easttick852"></line></g></g><g transform="translate(0,0) scale(1,1)" id="proj_465_East_plugin_StockPlugin_854"><defs id="proj_465_East_plugin_StockPlugin_854_definition"></defs><g id="proj_465_East_plugin_StockPlugin_854_graphics"></g></g><g transform="translate(0,0) scale(1,1)" id="proj_465_East_plugin_AnonymousPlugin_858"><defs id="proj_465_East_plugin_AnonymousPlugin_858_definition"></defs><g id="proj_465_East_plugin_AnonymousPlugin_858_graphics"></g></g><g transform="translate(0,0) scale(1,1)" id="proj_465_East_plugin_AnonymousPlugin_860"><defs id="proj_465_East_plugin_AnonymousPlugin_860_definition"></defs><g id="proj_465_East_plugin_AnonymousPlugin_860_graphics"></g></g><g transform="translate(0,0) scale(1,1)" id="proj_465_East_plugin_AnonymousPlugin_862"><defs id="proj_465_East_plugin_AnonymousPlugin_862_definition"></defs><g id="proj_465_East_plugin_AnonymousPlugin_862_graphics"></g></g><g transform="translate(0,0) scale(1,1)" id="proj_465_East_plugin_TranslatePlugin_864"><defs id="proj_465_East_plugin_TranslatePlugin_864_definition"></defs><g id="proj_465_East_plugin_TranslatePlugin_864_graphics"></g></g></g></svg><svg height="180" width="10" y="40" x="0" id="proj_465_West"><g id="proj_465_West_plugins"><g transform="translate(0,0) scale(1,1)" id="proj_465_West_plugin_DeviceOutlinePlugin_466"><defs id="proj_465_West_plugin_DeviceOutlinePlugin_466_definition"></defs><g id="proj_465_West_plugin_DeviceOutlinePlugin_466_graphics"></g></g><g transform="translate(0,0) scale(1,1)" id="proj_465_West_plugin_AxisMetricsTiming_467"><defs id="proj_465_West_plugin_AxisMetricsTiming_467_definition"></defs><g id="proj_465_West_plugin_AxisMetricsTiming_467_graphics"></g></g><g transform="translate(0,0) scale(1,1)" id="proj_465_West_plugin_AxisMetricsModeled_826"><defs id="proj_465_West_plugin_AxisMetricsModeled_826_definition"></defs><g id="proj_465_West_plugin_AxisMetricsModeled_826_graphics"></g></g><g transform="translate(0,0) scale(1,1)" id="proj_465_West_plugin_StockPlugin_854"><defs id="proj_465_West_plugin_StockPlugin_854_definition"></defs><g id="proj_465_West_plugin_StockPlugin_854_graphics"></g></g><g transform="translate(0,0) scale(1,1)" id="proj_465_West_plugin_AnonymousPlugin_858"><defs id="proj_465_West_plugin_AnonymousPlugin_858_definition"></defs><g id="proj_465_West_plugin_AnonymousPlugin_858_graphics"></g></g><g transform="translate(0,0) scale(1,1)" id="proj_465_West_plugin_AnonymousPlugin_860"><defs id="proj_465_West_plugin_AnonymousPlugin_860_definition"></defs><g id="proj_465_West_plugin_AnonymousPlugin_860_graphics"></g></g><g transform="translate(0,0) scale(1,1)" id="proj_465_West_plugin_AnonymousPlugin_862"><defs id="proj_465_West_plugin_AnonymousPlugin_862_definition"></defs><g id="proj_465_West_plugin_AnonymousPlugin_862_graphics"></g></g><g transform="translate(0,0) scale(1,1)" id="proj_465_West_plugin_TranslatePlugin_864"><defs id="proj_465_West_plugin_TranslatePlugin_864_definition"></defs><g id="proj_465_West_plugin_TranslatePlugin_864_graphics"></g></g></g></svg><svg height="180" width="415" y="40" x="10" id="proj_465_Device"><g id="proj_465_Device_plugins"><g transform="translate(0,0) scale(1,1)" id="proj_465_Device_plugin_DeviceOutlinePlugin_466"><defs id="proj_465_Device_plugin_DeviceOutlinePlugin_466_definition"></defs><g id="proj_465_Device_plugin_DeviceOutlinePlugin_466_graphics"><rect fill="none" stroke-width="1" stroke="darkslategrey" height="179" width="414" y="0.5" x="0.5"></rect></g></g><g transform="translate(0,0) scale(1,1)" id="proj_465_Device_plugin_AxisMetricsTiming_467"><defs id="proj_465_Device_plugin_AxisMetricsTiming_467_definition"></defs><g id="proj_465_Device_plugin_AxisMetricsTiming_467_graphics"></g></g><g transform="translate(0,0) scale(1,1)" id="proj_465_Device_plugin_AxisMetricsModeled_826"><defs id="proj_465_Device_plugin_AxisMetricsModeled_826_definition"></defs><g id="proj_465_Device_plugin_AxisMetricsModeled_826_graphics"></g></g><g transform="translate(0,0) scale(1,1)" id="proj_465_Device_plugin_StockPlugin_854"><defs id="proj_465_Device_plugin_StockPlugin_854_definition"></defs><g id="proj_465_Device_plugin_StockPlugin_854_graphics"><g name="StockMACDLayer" id="layer857"><path fill="none" stroke-opacity="1" stroke-width="1" stroke="rgb(208, 58, 47)" d="M12.087378640776699,116.66620186439758 L16.11650485436893,116.32197425465627 L20.145631067961165,114.387699488423 L24.174757281553397,115.13607170018084 L36.262135922330096,110.5414596755486 L40.29126213592233,108.21727456790313 L44.32038834951456,104.9143294374057 L48.349514563106794,102.41889605191979 L52.37864077669902,105.5799366459069 L64.46601941747572,105.81828526839928 L68.49514563106796,107.38941062762855 L72.52427184466019,107.35131075482307 L76.55339805825243,106.78568175252856 L80.58252427184466,104.6246823567698 L92.66990291262135,104.43340170663504 L96.69902912621359,104.39193465819898 L100.72815533980582,106.46269095598868 L104.75728155339804,116.72651923741469 L108.78640776699028,122.60971827010202 L120.87378640776699,129.24848431506342 L124.90291262135922,133.17529308281706 L128.93203883495144,141.17046413654379 L132.96116504854368,146.81897602544595 L136.9902912621359,144.7833834023031 L149.07766990291262,142.50371828804612 L153.10679611650485,142.0261086257367 L157.1359223300971,138.8622099713765 L165.19417475728153,139.81651311174681 L177.28155339805824,138.15558030836337 L181.31067961165047,133.3568537684782 L185.3398058252427,129.5683559848717 L189.36893203883494,119.83073257315404 L193.39805825242718,113.0173227052235 L205.48543689320388,105.15048495291374 L209.5145631067961,98.8526920522149 L213.54368932038832,98.54845169889977 L217.57281553398056,97.76293840207494 L221.6019417475728,95.52415945307587 L233.6893203883495,89.01409940687238 L237.71844660194174,82.3437629323525 L241.74757281553397,79.00279750498626 L245.7766990291262,76.41660172574753 L249.80582524271844,75.35901644593856 L261.8932038834951,78.0536286872146 L265.92233009708735,80.26805200261649 L269.9514563106796,81.87828179560704 L273.9805825242718,84.31887856661639 L278.00970873786406,85.2584709707034 L290.09708737864077,86.829943426373 L294.126213592233,88.65523888110594 L298.15533980582524,91.39774883017687 L302.18446601941747,89.53802122923449 L306.2135922330097,86.64685199618319 L318.3009708737864,80.32207288574433 L322.33009708737865,74.71330703226144 L326.3592233009708,68.1262894284361 L330.38834951456306,57.32083903505746 L334.4174757281553,47.69351198104388 L346.504854368932,40.53830406851908 L350.53398058252424,36.47694446992297 L354.5631067961165,33.97137262696063 L358.5922330097087,32.103526715674064 L362.62135922330094,26.412843248950182 L374.70873786407765,21.974181066079268 L378.7378640776699,18.2433398483402 L382.7669902912621,18.259128329882515 L386.79611650485435,21.897558850023984 L390.8252427184466,28.393383335455482 L406.94174757281553,31.636222440659765 L410.97087378640776,39.4131758162667 L414.99999999999994,48.21752413067017 " id="macdlayer855"></path><path fill="none" stroke-opacity="1" stroke-width="1" stroke="rgb(91, 151, 168)" d="M12.087378640776699,112.5988187560611 L16.11650485436893,113.7474606081138 L20.145631067961165,114.1690301298636 L24.174757281553397,114.5884377926638 L36.262135922330096,113.9236795063938 L40.29126213592233,112.72206537590083 L44.32038834951456,110.89524996874077 L48.349514563106794,108.84576099781012 L52.37864077669902,107.8855342142321 L64.46601941747572,107.13574519379785 L68.49514563106796,106.90952449344945 L72.52427184466019,106.77971878727807 L76.55339805825243,106.5220078654528 L80.58252427184466,105.95909331355041 L92.66990291262135,105.53663616157797 L96.69902912621359,105.29149903113289 L100.72815533980582,105.65111511950015 L104.75728155339804,108.21179530190119 L108.78640776699028,111.61199762132283 L120.87378640776699,115.81703468780519 L124.90291262135922,120.08935793241234 L128.93203883495144,125.37167801092814 L132.96116504854368,130.96937004453096 L136.9902912621359,134.98322232594256 L149.07766990291262,137.6689758844221 L153.10679611650485,139.64304481147204 L157.1359223300971,140.17319407193375 L165.19417475728153,140.63535388333676 L177.28155339805824,140.41556333246547 L181.31067961165047,139.0094507016507 L185.3398058252427,136.76150884723774 L189.36893203883494,132.53858415603375 L193.39805825242718,127.64942639202248 L205.48543689320388,121.99150256046548 L209.5145631067961,116.02515036061209 L213.54368932038832,111.27988412423674 L217.57281553398056,107.27262553494461 L221.6019417475728,103.60114677648747 L233.6893203883495,99.3088919318159 L237.71844660194174,94.4516694648809 L241.74757281553397,90.09602653735843 L245.7766990291262,86.22533764755937 L249.80582524271844,83.12839008728159 L261.8932038834951,81.46856365826775 L265.92233009708735,80.66167824702217 L269.9514563106796,80.41249579775085 L273.9805825242718,80.84635305435859 L278.00970873786406,81.61233352433756 L290.09708737864077,82.79494935611548 L294.126213592233,84.26628082978188 L298.15533980582524,86.15706431195223 L302.18446601941747,87.27287518609631 L306.2135922330097,87.41410310189238 L318.3009708737864,85.99737197403871 L322.33009708737865,83.51840922239646 L326.3592233009708,79.93793466847184 L330.38834951456306,74.54831035247719 L334.4174757281553,67.96392714654775 L346.504854368932,60.98693884240727 L350.53398058252424,54.382122569227114 L354.5631067961165,48.5771308065381 L358.5922330097087,43.591296313837454 L362.62135922330094,38.48415213705204 L374.70873786407765,33.54698337775274 L378.7378640776699,28.939635764298263 L382.7669902912621,25.592427459408622 L386.79611650485435,24.05365121608665 L390.8252427184466,24.545044845972996 L406.94174757281553,25.813193967057376 L410.97087378640776,28.701913232692565 L414.99999999999994,33.10464927410637 " id="signallayer856"></path></g></g></g><g transform="translate(0,0) scale(1,1)" id="proj_465_Device_plugin_AnonymousPlugin_858"><defs id="proj_465_Device_plugin_AnonymousPlugin_858_definition"></defs><g id="proj_465_Device_plugin_AnonymousPlugin_858_graphics"><text text-anchor="end" fill="rgb(255, 136, 83)" font-weight="normal" font-size="14" y="19" x="410" id="859">MACD (12-26-9)</text></g></g><g transform="translate(0,0) scale(1,1)" id="proj_465_Device_plugin_AnonymousPlugin_860"><defs id="proj_465_Device_plugin_AnonymousPlugin_860_definition"></defs><g id="proj_465_Device_plugin_AnonymousPlugin_860_graphics"><text text-anchor="end" fill="rgb(91, 151, 168)" font-weight="normal" font-size="14" y="175" x="410" id="861">Signal MME 9</text></g></g><g transform="translate(0,0) scale(1,1)" id="proj_465_Device_plugin_AnonymousPlugin_862"><defs id="proj_465_Device_plugin_AnonymousPlugin_862_definition"></defs><g id="proj_465_Device_plugin_AnonymousPlugin_862_graphics"><text text-anchor="end" fill="rgb(208, 58, 47)" font-weight="normal" font-size="14" y="155" x="410" id="863">MACD (12/26)</text></g></g><g transform="translate(0,0) scale(1,1)" id="proj_465_Device_plugin_TranslatePlugin_864"><defs id="proj_465_Device_plugin_TranslatePlugin_864_definition"></defs><g id="proj_465_Device_plugin_TranslatePlugin_864_graphics"></g></g></g></svg></g></svg></g><g id="view_macd_selectors"><g id="view_macd_selectors_definitions"></g><g id="view_macd_selectors_graphics"></g></g><svg height="180" width="415" y="40" x="10" id="view_macd_widgets"><defs id="view_macd_widgets_definitions"></defs><g id="view_macd_widgets_graphics"></g></svg><g id="view_macd_foreground"><g id="foreground463"><g id="view_macd_foreground_definitions"></g><g id="view_macd_foreground_graphics"><text text-anchor="start" fill-opacity="1" fill="#cb4bf7" font-size="6" y="38" x="10" id="text_foreground463">JenScript 1.1.0 - www.jensoftapi.com</text></g></g></g><g id="view_macd_dispatcher"><svg height="80px" width="505px" y="220px" x="0px" id="view_macd_South_dispatcher"><rect style="stroke: black;stroke-opacity: 0; fill: #0000ff;fill-opacity :0" height="80" width="505" y="0" x="0" id="view_macd_dispatcher"></rect></svg><svg height="40px" width="505px" y="0px" x="0px" id="view_macd_North_dispatcher"><rect style="stroke: black;stroke-opacity: 0; fill: #0000ff;fill-opacity :0" height="40" width="505" y="0" x="0" id="view_macd_dispatcher"></rect></svg><svg height="180px" width="80px" y="40px" x="425px" id="view_macd_East_dispatcher"><rect style="stroke: black;stroke-opacity: 0; fill: #0000ff;fill-opacity :0" height="180" width="80" y="0" x="0" id="view_macd_dispatcher"></rect></svg><svg height="180px" width="10px" y="40px" x="0px" id="view_macd_West_dispatcher"><rect style="stroke: black;stroke-opacity: 0; fill: #0000ff;fill-opacity :0" height="180" width="10" y="0" x="0" id="view_macd_dispatcher"></rect></svg><svg height="180px" width="415px" y="40px" x="10px" id="view_macd_Device_dispatcher"><rect style="stroke: black;stroke-opacity: 0; fill: #0000ff;fill-opacity :0" height="180" width="415" y="0" x="0" id="view_macd_dispatcher"></rect></svg></g></svg>