<svg height="400" width="800" viewBox="0 0 800 400" id="view_piebuilder" version="1.1" xmlns:xlink="http://www.w3.org/1999/xlink" xmlns="http://www.w3.org/2000/svg"><g id="view_piebuilder_global_definitions"><pattern id="texture_carbon1" height="10" width="10" patternUnits="userSpaceOnUse"><rect fill="darkgray" stroke="none" height="10" width="10" y="0" x="0"></rect><polygon fill="black" stroke="none" points="5,0 5,10 0,5 "></polygon><polygon fill="black" stroke="none" points="5,0 10,0 10,5 "></polygon><polygon fill="black" stroke="none" points="10,5 10,10 5,10 "></polygon></pattern><linearGradient y2="0" x2="0" y1="-10" x1="0" id="texture_gradient8" gradientUnits="userSpaceOnUse"><stop stop-opacity="1" stop-color="black" offset="0%"></stop><stop stop-opacity="1" stop-color="darkgray" offset="100%"></stop></linearGradient><linearGradient y2="-2.5" x2="5" y1="-2.5" x1="-5" id="texture_gradient9" gradientUnits="userSpaceOnUse"><stop stop-opacity="1" stop-color="black" offset="0%"></stop><stop stop-opacity="1" stop-color="darkgray" offset="100%"></stop></linearGradient><linearGradient y2="5" x2="5" y1="-5" x1="5" id="texture_gradient10" gradientUnits="userSpaceOnUse"><stop stop-opacity="1" stop-color="black" offset="0%"></stop><stop stop-opacity="1" stop-color="darkgray" offset="100%"></stop></linearGradient><linearGradient y2="-1.25" x2="10" y1="-1.25" x1="0" id="texture_gradient11" gradientUnits="userSpaceOnUse"><stop stop-opacity="1" stop-color="black" offset="0%"></stop><stop stop-opacity="1" stop-color="darkgray" offset="100%"></stop></linearGradient><linearGradient y2="10" x2="10" y1="0" x1="10" id="texture_gradient12" gradientUnits="userSpaceOnUse"><stop stop-opacity="1" stop-color="black" offset="0%"></stop><stop stop-opacity="1" stop-color="darkgray" offset="100%"></stop></linearGradient><linearGradient y2="0" x2="15" y1="0" x1="5" id="texture_gradient13" gradientUnits="userSpaceOnUse"><stop stop-opacity="1" stop-color="black" offset="0%"></stop><stop stop-opacity="1" stop-color="darkgray" offset="100%"></stop></linearGradient><linearGradient y2="15" x2="15" y1="5" x1="15" id="texture_gradient14" gradientUnits="userSpaceOnUse"><stop stop-opacity="1" stop-color="black" offset="0%"></stop><stop stop-opacity="1" stop-color="darkgray" offset="100%"></stop></linearGradient><linearGradient y2="1.25" x2="20" y1="1.25" x1="10" id="texture_gradient15" gradientUnits="userSpaceOnUse"><stop stop-opacity="1" stop-color="black" offset="0%"></stop><stop stop-opacity="1" stop-color="darkgray" offset="100%"></stop></linearGradient><linearGradient y2="20" x2="20" y1="10" x1="20" id="texture_gradient16" gradientUnits="userSpaceOnUse"><stop stop-opacity="1" stop-color="black" offset="0%"></stop><stop stop-opacity="1" stop-color="darkgray" offset="100%"></stop></linearGradient><linearGradient y2="2.5" x2="25" y1="2.5" x1="15" id="texture_gradient17" gradientUnits="userSpaceOnUse"><stop stop-opacity="1" stop-color="black" offset="0%"></stop><stop stop-opacity="1" stop-color="darkgray" offset="100%"></stop></linearGradient><linearGradient y2="20" x2="0" y1="10" x1="0" id="texture_gradient18" gradientUnits="userSpaceOnUse"><stop stop-opacity="1" stop-color="black" offset="0%"></stop><stop stop-opacity="1" stop-color="darkgray" offset="100%"></stop></linearGradient><linearGradient y2="2.5" x2="5" y1="2.5" x1="-5" id="texture_gradient19" gradientUnits="userSpaceOnUse"><stop stop-opacity="1" stop-color="black" offset="0%"></stop><stop stop-opacity="1" stop-color="darkgray" offset="100%"></stop></linearGradient><linearGradient y2="25" x2="5" y1="15" x1="5" id="texture_gradient20" gradientUnits="userSpaceOnUse"><stop stop-opacity="1" stop-color="black" offset="0%"></stop><stop stop-opacity="1" stop-color="darkgray" offset="100%"></stop></linearGradient><linearGradient y2="3.75" x2="10" y1="3.75" x1="0" id="texture_gradient21" gradientUnits="userSpaceOnUse"><stop stop-opacity="1" stop-color="black" offset="0%"></stop><stop stop-opacity="1" stop-color="darkgray" offset="100%"></stop></linearGradient><linearGradient y2="30" x2="10" y1="20" x1="10" id="texture_gradient22" gradientUnits="userSpaceOnUse"><stop stop-opacity="1" stop-color="black" offset="0%"></stop><stop stop-opacity="1" stop-color="darkgray" offset="100%"></stop></linearGradient><linearGradient y2="5" x2="15" y1="5" x1="5" id="texture_gradient23" gradientUnits="userSpaceOnUse"><stop stop-opacity="1" stop-color="black" offset="0%"></stop><stop stop-opacity="1" stop-color="darkgray" offset="100%"></stop></linearGradient><linearGradient y2="35" x2="15" y1="25" x1="15" id="texture_gradient24" gradientUnits="userSpaceOnUse"><stop stop-opacity="1" stop-color="black" offset="0%"></stop><stop stop-opacity="1" stop-color="darkgray" offset="100%"></stop></linearGradient><linearGradient y2="6.25" x2="20" y1="6.25" x1="10" id="texture_gradient25" gradientUnits="userSpaceOnUse"><stop stop-opacity="1" stop-color="black" offset="0%"></stop><stop stop-opacity="1" stop-color="darkgray" offset="100%"></stop></linearGradient><linearGradient y2="40" x2="20" y1="30" x1="20" id="texture_gradient26" gradientUnits="userSpaceOnUse"><stop stop-opacity="1" stop-color="black" offset="0%"></stop><stop stop-opacity="1" stop-color="darkgray" offset="100%"></stop></linearGradient><linearGradient y2="7.5" x2="25" y1="7.5" x1="15" id="texture_gradient27" gradientUnits="userSpaceOnUse"><stop stop-opacity="1" stop-color="black" offset="0%"></stop><stop stop-opacity="1" stop-color="darkgray" offset="100%"></stop></linearGradient><pattern id="texture_carbon2" height="20" width="20" patternUnits="userSpaceOnUse"><rect fill="rgb(60,60,60)" stroke="none" height="20" width="20" y="0" x="0"></rect><rect fill="url(#texture_gradient8)" stroke="none" height="10" width="10" y="-10" x="-5"></rect><rect fill="url(#texture_gradient8)" stroke="none" height="5" width="10" y="-10" x="-5"></rect><rect fill="url(#texture_gradient10)" stroke="none" height="10" width="10" y="-5" x="0"></rect><rect fill="url(#texture_gradient10)" stroke="none" height="5" width="10" y="-5" x="0"></rect><rect fill="url(#texture_gradient12)" stroke="none" height="10" width="10" y="0" x="5"></rect><rect fill="url(#texture_gradient12)" stroke="none" height="5" width="10" y="0" x="5"></rect><rect fill="url(#texture_gradient14)" stroke="none" height="10" width="10" y="5" x="10"></rect><rect fill="url(#texture_gradient14)" stroke="none" height="5" width="10" y="5" x="10"></rect><rect fill="url(#texture_gradient16)" stroke="none" height="10" width="10" y="10" x="15"></rect><rect fill="url(#texture_gradient16)" stroke="none" height="5" width="10" y="10" x="15"></rect><rect fill="url(#texture_gradient18)" stroke="none" height="10" width="10" y="10" x="-5"></rect><rect fill="url(#texture_gradient18)" stroke="none" height="5" width="10" y="10" x="-5"></rect><rect fill="url(#texture_gradient20)" stroke="none" height="10" width="10" y="15" x="0"></rect><rect fill="url(#texture_gradient20)" stroke="none" height="5" width="10" y="15" x="0"></rect><rect fill="url(#texture_gradient22)" stroke="none" height="10" width="10" y="20" x="5"></rect><rect fill="url(#texture_gradient22)" stroke="none" height="5" width="10" y="20" x="5"></rect><rect fill="url(#texture_gradient24)" stroke="none" height="10" width="10" y="25" x="10"></rect><rect fill="url(#texture_gradient24)" stroke="none" height="5" width="10" y="25" x="10"></rect><rect fill="url(#texture_gradient26)" stroke="none" height="10" width="10" y="30" x="15"></rect><rect fill="url(#texture_gradient26)" stroke="none" height="5" width="10" y="30" x="15"></rect></pattern></g><g id="view_piebuilder_background"></g><g id="view_piebuilder_projections"><svg viewBox="0 0 1140 400" version="1.1" xmlns:xlink="http://www.w3.org/1999/xlink" xmlns="http://www.w3.org/2000/svg" id="proj_31"><defs id="proj_31_definitions"></defs><g id="proj_31_parts" xmlns="http://www.w3.org/2000/svg"><svg height="20" width="1140" y="380" x="0" id="proj_31_South"><g id="proj_31_South_plugins"><g transform="translate(0,0) scale(1,1)" id="proj_31_South_plugin_PiePlugin_32"><defs id="proj_31_South_plugin_PiePlugin_32_definition"></defs><g id="proj_31_South_plugin_PiePlugin_32_graphics"></g></g></g></svg><svg height="20" width="1140" y="0" x="0" id="proj_31_North"><g id="proj_31_North_plugins"><g transform="translate(0,0) scale(1,1)" id="proj_31_North_plugin_PiePlugin_32"><defs id="proj_31_North_plugin_PiePlugin_32_definition"></defs><g id="proj_31_North_plugin_PiePlugin_32_graphics"></g></g></g></svg><svg height="360" width="0" y="20" x="1140" id="proj_31_East"><g id="proj_31_East_plugins"><g transform="translate(0,0) scale(1,1)" id="proj_31_East_plugin_PiePlugin_32"><defs id="proj_31_East_plugin_PiePlugin_32_definition"></defs><g id="proj_31_East_plugin_PiePlugin_32_graphics"></g></g></g></svg><svg height="360" width="0" y="20" x="0" id="proj_31_West"><g id="proj_31_West_plugins"><g transform="translate(0,0) scale(1,1)" id="proj_31_West_plugin_PiePlugin_32"><defs id="proj_31_West_plugin_PiePlugin_32_definition"></defs><g id="proj_31_West_plugin_PiePlugin_32_graphics"></g></g></g></svg><svg height="360" width="1140" y="20" x="0" id="proj_31_Device"><g id="proj_31_Device_plugins"><g transform="translate(0,0) scale(1,1)" id="proj_31_Device_plugin_PiePlugin_32"><defs id="proj_31_Device_plugin_PiePlugin_32_definition"><linearGradient y2="282.19099764656374" x2="629" y1="77.80900235343626" x1="510.99999999999994" id="gradient61" gradientUnits="userSpaceOnUse"><stop stop-opacity="0.8" stop-color="rgb(60,60,60)" offset="0%"></stop><stop stop-opacity="0" stop-color="rgb(255,255,255)" offset="49%"></stop><stop stop-opacity="0" stop-color="rgb(255,255,255)" offset="51%"></stop><stop stop-opacity="0.8" stop-color="rgb(255,255,255)" offset="100%"></stop></linearGradient><linearGradient y2="282.19099764656374" x2="629" y1="77.80900235343626" x1="510.99999999999994" id="gradient62" gradientUnits="userSpaceOnUse"><stop stop-opacity="0.8" stop-color="rgb(60,60,60)" offset="0%"></stop><stop stop-opacity="0" stop-color="rgb(255,255,255)" offset="49%"></stop><stop stop-opacity="0" stop-color="rgb(255,255,255)" offset="51%"></stop><stop stop-opacity="0.8" stop-color="rgb(255,255,255)" offset="100%"></stop></linearGradient><linearGradient y2="282.19099764656374" x2="629" y1="77.80900235343626" x1="510.99999999999994" id="gradient63" gradientUnits="userSpaceOnUse"><stop stop-opacity="0.8" stop-color="rgb(60,60,60)" offset="0%"></stop><stop stop-opacity="0" stop-color="rgb(255,255,255)" offset="49%"></stop><stop stop-opacity="0" stop-color="rgb(255,255,255)" offset="51%"></stop><stop stop-opacity="0.8" stop-color="rgb(255,255,255)" offset="100%"></stop></linearGradient><linearGradient y2="274.42642629348813" x2="657.977774788672" y1="70.04443100036065" x1="539.977774788672" id="gradient64" gradientUnits="userSpaceOnUse"><stop stop-opacity="0.8" stop-color="rgb(60,60,60)" offset="0%"></stop><stop stop-opacity="0" stop-color="rgb(255,255,255)" offset="49%"></stop><stop stop-opacity="0" stop-color="rgb(255,255,255)" offset="51%"></stop><stop stop-opacity="0.8" stop-color="rgb(255,255,255)" offset="100%"></stop></linearGradient><linearGradient y2="282.19099764656374" x2="629" y1="77.80900235343626" x1="510.99999999999994" id="gradient65" gradientUnits="userSpaceOnUse"><stop stop-opacity="0.8" stop-color="rgb(60,60,60)" offset="0%"></stop><stop stop-opacity="0" stop-color="rgb(255,255,255)" offset="49%"></stop><stop stop-opacity="0" stop-color="rgb(255,255,255)" offset="51%"></stop><stop stop-opacity="0.8" stop-color="rgb(255,255,255)" offset="100%"></stop></linearGradient><clipPath id="clip66" clipPathUnits="userSpaceOnUse"><rect height="129.2955322265625" width="280.23687744140625" y="306.8753204345703" x="438.28424072265625"></rect></clipPath><filter height="258.591064453125" width="280.23687744140625" y="48.28425598144531" x="438.28424072265625" id="filter67" filterUnits="userSpaceOnUse"><feGaussianBlur stdDeviation="3" in="SourceGraphic"></feGaussianBlur></filter><linearGradient y2="81.27310396857393" x2="513.0000000000001" y1="278.726896031426" x1="627" id="gradient69" gradientUnits="userSpaceOnUse"><stop stop-opacity="0.8" stop-color="rgb(60,60,60)" offset="0%"></stop><stop stop-opacity="0" stop-color="rgb(255,255,255)" offset="49%"></stop><stop stop-opacity="0" stop-color="rgb(255,255,255)" offset="51%"></stop><stop stop-opacity="0.8" stop-color="rgb(255,255,255)" offset="100%"></stop></linearGradient><linearGradient y2="81.27310396857393" x2="513.0000000000001" y1="278.726896031426" x1="627" id="gradient70" gradientUnits="userSpaceOnUse"><stop stop-opacity="0.8" stop-color="rgb(60,60,60)" offset="0%"></stop><stop stop-opacity="0" stop-color="rgb(255,255,255)" offset="49%"></stop><stop stop-opacity="0" stop-color="rgb(255,255,255)" offset="51%"></stop><stop stop-opacity="0.8" stop-color="rgb(255,255,255)" offset="100%"></stop></linearGradient><linearGradient y2="81.27310396857393" x2="513.0000000000001" y1="278.726896031426" x1="627" id="gradient71" gradientUnits="userSpaceOnUse"><stop stop-opacity="0.8" stop-color="rgb(60,60,60)" offset="0%"></stop><stop stop-opacity="0" stop-color="rgb(255,255,255)" offset="49%"></stop><stop stop-opacity="0" stop-color="rgb(255,255,255)" offset="51%"></stop><stop stop-opacity="0.8" stop-color="rgb(255,255,255)" offset="100%"></stop></linearGradient><linearGradient y2="73.50853261549832" x2="541.9777747886721" y1="270.9623246783504" x1="655.977774788672" id="gradient72" gradientUnits="userSpaceOnUse"><stop stop-opacity="0.8" stop-color="rgb(60,60,60)" offset="0%"></stop><stop stop-opacity="0" stop-color="rgb(255,255,255)" offset="49%"></stop><stop stop-opacity="0" stop-color="rgb(255,255,255)" offset="51%"></stop><stop stop-opacity="0.8" stop-color="rgb(255,255,255)" offset="100%"></stop></linearGradient><linearGradient y2="81.27310396857393" x2="513.0000000000001" y1="278.726896031426" x1="627" id="gradient73" gradientUnits="userSpaceOnUse"><stop stop-opacity="0.8" stop-color="rgb(60,60,60)" offset="0%"></stop><stop stop-opacity="0" stop-color="rgb(255,255,255)" offset="49%"></stop><stop stop-opacity="0" stop-color="rgb(255,255,255)" offset="51%"></stop><stop stop-opacity="0.8" stop-color="rgb(255,255,255)" offset="100%"></stop></linearGradient></defs><g id="proj_31_Device_plugin_PiePlugin_32_graphics"><g opacity="1" id="pie33"><g opacity="1" id="pie33_fill34"><g opacity="1" id="pie33_fill34slice35"><path d="M654.8528137423857,95.14718625761431 A120,120 0 0,0 485.1471862576143,264.8528137423857 L570,180 Z" fill="rgba(240, 240, 240, 0.9)"></path></g><g opacity="1" id="pie33_fill34slice37"><path d="M485.1471862576143,264.8528137423857 A120,120 0 0,0 519.285808591116,288.756934444398 L570,180 Z" fill="rgb(197, 208, 89)"></path></g><g opacity="1" id="pie33_fill34slice39"><path d="M519.285808591116,288.756934444398 A120,120 0 0,0 689.5433637710095,169.54131087028097 L570,180 Z" fill="rgba(78,148,44,1)"></path></g><g opacity="1" id="pie33_fill34slice41"><path d="M718.5211385596815,161.7767395172054 A120,120 0 0,0 707.73470923307,121.52123723804046 L598.977774788672,172.2354286469244 Z" fill="rgb(255, 136, 83)"></path></g><g opacity="1" id="pie33_fill34slice43"><path d="M678.756934444398,129.28580859111605 A120,120 0 0,0 654.8528137423857,95.14718625761431 L570,180 Z" fill="rgb(61, 44, 105)"></path></g></g><g opacity="1" id="pie33_effect45"><g opacity="1" id="pie33_effect45slice35"><path fill-opacity="0.6" d="M653.4386001800126,96.5613998199874 A118,118 0 0,0 486.5613998199874,263.4386001800126 L570,180 Z" fill="url(#gradient61)"></path></g><g opacity="1" id="pie33_effect45slice37"><path fill-opacity="0.6" d="M486.5613998199874,263.4386001800126 A118,118 0 0,0 520.1310451145974,286.94431887032465 L570,180 Z" fill="url(#gradient62)"></path></g><g opacity="1" id="pie33_effect45slice39"><path fill-opacity="0.6" d="M520.1310451145974,286.94431887032465 A118,118 0 0,0 687.550974374826,169.71562235577628 L570,180 Z" fill="url(#gradient63)"></path></g><g opacity="1" id="pie33_effect45slice41"><path fill-opacity="0.6" d="M716.528749163498,161.95105100270072 A118,118 0 0,0 705.9220936589967,122.36647376152186 L598.977774788672,172.2354286469244 Z" fill="url(#gradient64)"></path></g><g opacity="1" id="pie33_effect45slice43"><path fill-opacity="0.6" d="M676.9443188703247,130.13104511459747 A118,118 0 0,0 653.4386001800126,96.5613998199874 L570,180 Z" fill="url(#gradient65)"></path></g></g><g opacity="1" id="pie33_effect51"><g clip-path="url(#clip66)"><g id="null_reflection68" transform="translate(0,258.591064453125), scale(1,-1), translate(0,-355.1595764160156)" filter="url(#filter67)" opacity="1"><g opacity="1" id="pie33_fill34"><g opacity="1" id="pie33_fill34slice35"><path d="M654.8528137423857,95.14718625761431 A120,120 0 0,0 485.1471862576143,264.8528137423857 L570,180 Z" fill="rgba(240, 240, 240, 0.9)"></path></g><g opacity="1" id="pie33_fill34slice37"><path d="M485.1471862576143,264.8528137423857 A120,120 0 0,0 519.285808591116,288.756934444398 L570,180 Z" fill="rgb(197, 208, 89)"></path></g><g opacity="1" id="pie33_fill34slice39"><path d="M519.285808591116,288.756934444398 A120,120 0 0,0 689.5433637710095,169.54131087028097 L570,180 Z" fill="rgba(78,148,44,1)"></path></g><g opacity="1" id="pie33_fill34slice41"><path d="M718.5211385596815,161.7767395172054 A120,120 0 0,0 707.73470923307,121.52123723804046 L598.977774788672,172.2354286469244 Z" fill="rgb(255, 136, 83)"></path></g><g opacity="1" id="pie33_fill34slice43"><path d="M678.756934444398,129.28580859111605 A120,120 0 0,0 654.8528137423857,95.14718625761431 L570,180 Z" fill="rgb(61, 44, 105)"></path></g></g><g opacity="1" id="pie33_effect45"><g opacity="1" id="pie33_effect45slice35"><path fill-opacity="0.6" d="M653.4386001800126,96.5613998199874 A118,118 0 0,0 486.5613998199874,263.4386001800126 L570,180 Z" fill="url(#gradient61)"></path></g><g opacity="1" id="pie33_effect45slice37"><path fill-opacity="0.6" d="M486.5613998199874,263.4386001800126 A118,118 0 0,0 520.1310451145974,286.94431887032465 L570,180 Z" fill="url(#gradient62)"></path></g><g opacity="1" id="pie33_effect45slice39"><path fill-opacity="0.6" d="M520.1310451145974,286.94431887032465 A118,118 0 0,0 687.550974374826,169.71562235577628 L570,180 Z" fill="url(#gradient63)"></path></g><g opacity="1" id="pie33_effect45slice41"><path fill-opacity="0.6" d="M716.528749163498,161.95105100270072 A118,118 0 0,0 705.9220936589967,122.36647376152186 L598.977774788672,172.2354286469244 Z" fill="url(#gradient64)"></path></g><g opacity="1" id="pie33_effect45slice43"><path fill-opacity="0.6" d="M676.9443188703247,130.13104511459747 A118,118 0 0,0 653.4386001800126,96.5613998199874 L570,180 Z" fill="url(#gradient65)"></path></g></g></g></g></g><g opacity="1" id="pie33_effect60"><g opacity="1" id="pie33_effect60slice35"><path fill-opacity="0.4" d="M650.6101730552664,99.38982694473358 A114,114 0 0,0 489.38982694473356,260.6101730552664 L570,180 Z" fill="url(#gradient69)"></path></g><g opacity="1" id="pie33_effect60slice37"><path fill-opacity="0.4" d="M489.38982694473356,260.6101730552664 A114,114 0 0,0 521.8215181615602,283.3190877221781 L570,180 Z" fill="url(#gradient70)"></path></g><g opacity="1" id="pie33_effect60slice39"><path fill-opacity="0.4" d="M521.8215181615602,283.3190877221781 A114,114 0 0,0 683.5661955824589,170.0642453267669 L570,180 Z" fill="url(#gradient71)"></path></g><g opacity="1" id="pie33_effect60slice41"><path fill-opacity="0.4" d="M712.5439703711311,162.29967397369137 A114,114 0 0,0 702.2968625108501,124.05694680848465 L598.977774788672,172.2354286469244 Z" fill="url(#gradient72)"></path></g><g opacity="1" id="pie33_effect60slice43"><path fill-opacity="0.4" d="M673.3190877221781,131.82151816156028 A114,114 0 0,0 650.6101730552664,99.38982694473358 L570,180 Z" fill="url(#gradient73)"></path></g></g><g opacity="1" id="label36"><rect stroke-width="2" fill-opacity="1" fill="black" stroke="rgba(240, 240, 240, 0.9)" ry="8" rx="8" height="18.5" width="50.5" y="67.50505065917969" x="431.0216979980469"></rect><text text-anchor="end" fill="hsla(0, 0%, 100%, 0.9)" font-size="12" y="81.00505063388334" x="471.00505063388334">Silver</text></g><g opacity="1" id="label38"><rect stroke-width="2" fill-opacity="1" fill="black" stroke="hsl(4, 63%, 70%)" ry="8" rx="8" height="18.5" width="70.48333358764648" y="281.1812744140625" x="429.7159729003906"></rect><text text-anchor="end" fill="hsl(4, 63%, 90%)" font-size="12" y="294.6812862004588" x="489.6992989108535">Platinium</text></g><g opacity="1" id="label40"><rect stroke-width="2" fill-opacity="1" fill="black" stroke="rgba(78,148,44,1)" ry="8" rx="8" height="18.5" width="69.41666793823242" y="281.1812744140625" x="639.8007202148438"></rect><text text-anchor="start" fill="hsl(100, 54%, 68%)" font-size="12" y="294.6812862004589" x="650.3007010891464">Rhodium</text></g><g opacity="1" id="label42"><rect stroke-width="2" fill-opacity="1" fill="black" stroke="rgb(255, 136, 83)" ry="8" rx="8" height="18.5" width="63.63333511352539" y="119.91256713867188" x="784.5"></rect><text text-anchor="start" fill="hsl(18, 100%, 96%)" font-size="12" y="133.41257188154628" x="795">Chrome</text><path stroke="darkgray" fill="none" d="M 714.8888739433603,141.1771432346219 Q 743.8666487320323,133.41257188154628 785,133.41257188154628"></path></g><g opacity="1" id="label44"><rect stroke-width="2" fill-opacity="1" fill="black" stroke="hsl(257, 41%, 59%)" ry="8" rx="8" height="18.5" width="66.28333282470703" y="86.19930267333984" x="674.1812744140625"></rect><text text-anchor="start" fill="hsl(257, 41%, 79%)" font-size="12" y="99.69929891085356" x="684.6812862004589">Uranium</text></g></g></g></g></g></svg></g></svg></g><g id="view_piebuilder_selectors"><g id="view_piebuilder_selectors_definitions"></g><g id="view_piebuilder_selectors_graphics"></g></g><svg height="360" width="1140" y="20" x="0" id="view_piebuilder_widgets"><defs id="view_piebuilder_widgets_definitions"></defs><g id="view_piebuilder_widgets_graphics"></g></svg><g id="view_piebuilder_foreground"><g id="foreground29"><g id="view_piebuilder_foreground_definitions"></g><g id="view_piebuilder_foreground_graphics"><text text-anchor="start" fill-opacity="1" fill="#242c5f" font-size="6" y="18" x="0" id="text_foreground29">JenScript 1.1.0 - www.jensoftapi.com</text></g></g></g><g id="view_piebuilder_dispatcher"><svg height="20px" width="1140px" y="380px" x="0px" id="view_piebuilder_South_dispatcher"><rect style="stroke: black;stroke-opacity: 0; fill: #0000ff;fill-opacity :0" height="20" width="1140" y="0" x="0" id="view_piebuilder_dispatcher"></rect></svg><svg height="20px" width="1140px" y="0px" x="0px" id="view_piebuilder_North_dispatcher"><rect style="stroke: black;stroke-opacity: 0; fill: #0000ff;fill-opacity :0" height="20" width="1140" y="0" x="0" id="view_piebuilder_dispatcher"></rect></svg><svg height="360px" width="0px" y="20px" x="1140px" id="view_piebuilder_East_dispatcher"><rect style="stroke: black;stroke-opacity: 0; fill: #0000ff;fill-opacity :0" height="360" width="0" y="0" x="0" id="view_piebuilder_dispatcher"></rect></svg><svg height="360px" width="0px" y="20px" x="0px" id="view_piebuilder_West_dispatcher"><rect style="stroke: black;stroke-opacity: 0; fill: #0000ff;fill-opacity :0" height="360" width="0" y="0" x="0" id="view_piebuilder_dispatcher"></rect></svg><svg height="360px" width="1140px" y="20px" x="0px" id="view_piebuilder_Device_dispatcher"><rect style="stroke: black;stroke-opacity: 0; fill: #0000ff;fill-opacity :0" height="360" width="1140" y="0" x="0" id="view_piebuilder_dispatcher"></rect></svg></g></svg>